<?xml version="1.0"?>
    
<!--********* Copyright (c) 2024 Pareto Softare, LLC DBA Simplemaps.com ***************************************
************* Free for Commercial Use, full terms at  https://simplemaps.com/resources/svg-license ************
************* Attribution is appreciated! https://simplemaps.com *******************************************-->

<svg baseprofile="tiny" fill="#6f9c76" height="1000" stroke="#ffffff" stroke-linecap="round" stroke-linejoin="round" stroke-width=".5" version="1.2" viewbox="0 0 1000 1000" width="1000" xmlns="http://www.w3.org/2000/svg">
 <g id="features">
  <path d="M223.7 143.1l0.4 1.7-0.4 0.1-0.1 0.3 0 0.6 0.7 4.7 0.2 2.5 0 1.4 0.3 1.7 0.2 0.4 0.2 1.4 0.1 0.4 0.2 0.3 0.1 0.2 0.5 0.4 1.3 0.7 0.2 0.1 0 0.8 0 1.1-0.3 2.7 0 1.1 0.1 0.8 0.3 0.5 0.1 0.2 0 0.3-0.4 1.1-1.9 2.8-5.6 1.8-1.6 1.2-0.5 0.3-0.4 0.1-0.6 0.1-3.4-0.2-0.6-0.2-0.7-0.5-0.2-0.1-0.3-0.1-5.7-1.3-0.5 0.1-0.5 0.2-0.8 0.4-0.5 0.2-0.5 0.2-1.1-0.1-0.5 0.1-0.4 0.2-1.1 1.1-0.7 0.9-0.4 0.4-1.2 0.7-0.2 0.1-0.8 0.8-0.2 0.2-8.6 2.9-0.4 0.3-0.4 0.1-0.8 0.1-2.8-0.4-1-0.3-0.2-0.1-0.2-0.2 0-0.2-0.1-0.1 0-0.1 0.3-0.7 0-0.3-0.3 0-0.4 0.2-2.5 2.7-0.8 0.9-0.2-0.3-2.5-1.9-2.7-1.5-0.5-1.2-0.3-3.5-0.2-0.6-0.7-1-0.1-0.7 0.2-0.7 0.7-1.4 0.1-0.5-0.4-1.3-0.7-0.5-1.9-0.5-0.8-0.6-1.3-1.3-0.8-0.3-1.5-0.3-1.6-1.2-1.2-1.8-0.6-3.4-0.1-0.5-0.1-1.1 0-1.4 0.4-1.4 0.7-1.3 0.9-0.5 1.6-0.5 0.5 0.2 0.4 0.2 0.3 0.6 0.4-0.1 0.1-0.4 0-0.6 0.1-0.4 0.4-0.1 1.4 0 1.3-0.3 1.3-0.7 1.2-1 0.8-1.4 0.4-1.1 0.4-1 0.6-0.8 0.9-0.4 2.6 3 1.4 0.8 1.8 0.3 1.9 0 1.8-0.3 3.6-1.5 1.6-1 0.8-0.3 4.4 0.5 1.9-0.7 3.5-2.5 1.7-0.8 1.2-0.1 0.7-0.9 0.5-1 1-0.5 6 1.5 0.9 0.6 0.9 0.8 1.1 1.6 0.1 0.2 0.7 0.3 0.5-0.2 0.4-0.2 0.6 0 2.8 1 1.7 0 1 0.3 0.3 0 0.8-0.4 0.1-0.3 0-0.4 0.2-0.9 0-0.1z" id="IT23" name="Valle d'Aosta">
  </path>
  <path d="M275.3 128.9l0.3 5.2 0 0.4-0.1 0.6-0.2 1-0.3 0.5-0.2 0.4-7.5 8-0.1 0.2-0.1 0.4 0 0.6 0.1 1.3 0.4 1.6 0.3 2.5 0 0.5-0.1 0.3-0.2 0.3-0.1 0.2-0.2 0.3-1.2 1-0.1 0.3-0.2 0.2-0.1 0.3 0.2 0.7 0.4 1.2 1.3 2.5 0.7 1 0.5 0.5 1.2 0.4 0.4 0.2 0.2 0.3 0.1 0.4 0 0.8-0.1 0.5-0.2 0.7 0.1 0.3 0.1 0.4 0.4 0.3 0.3 0.1 0.6-0.1 0.2 0 0.1 0.3 0 0.6 0 0.5 0.1 0.5 0.2 0.5 0.1 0.3-0.3 0.4-0.2 0-0.3 0-0.3 0 0 0.4 0.2 0.5 1.6 1.9 0.1 0.3 0.1 0.4-0.1 1.5 0.5 0.7-0.1 0.9 0.1 0.4 0.2 0.5 0.3 0.9 0.1 0.6 0.1 0.8 0.2 0.4 0.4 0.5 1.2 1 1.2 0.4 0.2 0.2 0.4 0.5 0.4 0.9 1.5 4.1 0.2 0.3 1 1.3-3.9 1.5-1.7 1.2-0.1 0.3 0.3 0.2 0.7 0.4 0.2 0.2 0.1 0.2 0.1 0.3-0.1 0.2-0.3 0.2-1.6 1-0.4 0.3-0.1 0.3-0.2 0.2-0.1 0.3-0.1 0.3-0.1 1-0.1 0.3-0.1 0.2-0.4 0.1-0.4-0.1-1.1-0.3-0.4-0.3-0.3-0.3-1-2.1-0.2-0.5-0.3-0.5-0.2-0.2-0.3-0.1-0.5-0.2-2.6-0.6-0.9 0-0.4 0.1-0.2 0.1-0.3 0.4-0.2 0.5-0.4 1.3-0.4 1.2-0.7 0.8-0.1 0.1-0.3 0.6-0.3 0.6-0.1 0.2 0 0.3 0.1 0.4 0.3 0.3 0.3 0.2 0.3 0.3 0.1 0.5 0.1 1.6 0.3 0.5 0.3 0.2 0.2 0.2 0.1 0.3-0.1 0.6 0 0.5 0.1 0.6 0.5 0.9 0.4 0.3 0.3 0.3 0.2 0.3 0 0.2-0.4 1.2 0.2 0.8 0.1 0.4 0.4 0.7 0.1 0.2 0.5 1.4 2 2.4 1.4 3.9 0.8 1.7 1.4 1.3 0.8-0.5 0.6 0 1.2 0.5 2.2 0 1.3-0.2 3.5-2.1 1-0.5 1.6 0.4 0.2 0.1 0 0.5-0.3 2.1 0 0.3 0.1 0.3 0 0.4 0.1 0.2 0.1 0.3 0.1 0.2 0.1 0.1 0.8 0.6 0.4 0.2 0.4 0.1 1.8 0.2 0.5 0.2 0.4 0.2 0.1 0.1 0.3 0.4 0.2 0.3 0.1 0.4 0.2 0.8 0 0.4-0.2 0.7 0.2 0.4 0.3 0.5 1.1 1.3 3.1 2.8 0.2 0.3 0.1 0.3 0 0.5-0.1 0.3-0.2 0.6-0.1 0.3 0 0.3 0 0.3 0.3 0.4 0.4 0.6 0.9 1 0.6 0.4 0.5 0.1 1.4 0 1.3 0.3 0.3 0.1 0.2 0.1 0.3 0.2 0.2 0.3 0.2 0.4 0.6 1.3 1.1 3.3 0.3 0.6 0.3 0.4 0.2 0.1 0.2 1-0.3 3.2 0.1 5.6-0.2 1.2-0.5 0.5-0.7 0.5-0.5 0.3-0.9 0.2-0.4 0-0.8-0.2-0.8-0.3-0.3-0.2-0.2-0.2-0.2-0.2-0.1-0.2-0.1-0.4 0-0.7-0.4-0.4-0.6-0.3-2.8-1.1-0.8-0.7-0.9-1.1-0.8-0.5-1-0.5-0.4-0.2-0.4-0.3-0.5-0.9-0.4-0.1-0.5 0-1.2 0.1-0.3 0.2-0.2 0.1-0.1 0.2-0.2 1.1-0.1 0.2-0.1 0.1-0.7 0.8-1 0.8-0.1 0.3 0 0.2 0.1 0.3 0.1 0.1 0.7 0.5 0.7 0.5 0.1 0.2 0.1 0.3 0.1 0.3 0 0.3 0 1.1 0.1 0.7 0 0.3 0 0.4-0.1 0.4-0.2 0.3-0.5 0.4-0.3 0.1-1.2-0.2-1.5 0-0.7 0.1-0.4 0.1-0.2 0.3-0.3 1.2-0.1 0.3-0.1 0.2-0.2 0.3-0.1 0.1-0.9 0.7-0.2 0.2-0.3 0.5-0.5 0.8-0.2 0.2-0.1 0-0.2-0.1-0.1-0.2-0.1-0.3 0-0.3 0.1-0.9 0-0.3-0.1-0.3-0.5-0.6-0.2-0.5-0.4-0.8-0.5-0.6-0.2-0.5-0.3-0.5-0.1-0.3-0.2-0.2-0.3-0.2-0.5-0.1-4.6-0.5-0.6 0-0.5 0.1-0.2 0.2-0.1 0.2-0.3 0.5 0 0.3-0.3 0.6 0 0.3 0 0.2 0 0.3 0.1 0.2 0.1 0.3 0 0.3-0.1 0.3-0.1 0.2-0.5 0.7-0.4 0.5-1.1 0.7-5.1-0.1-1.7 0.2-0.6 0.3-0.4 0-0.5-0.1-0.5-0.3-0.3 0.1-0.2 0.1-0.9 0.6-0.2 0.2-0.1 0.2-0.1 0.1-0.1 0.2-0.1 0.3-0.2 0.3-0.3 0.4-0.7 0.4-0.3 0.1-0.3-0.2-0.2-0.2-0.1-0.2-0.2-0.2-0.5-0.2-1.1-0.4-0.3-0.1-0.4-0.4-0.6-0.5-0.9-0.5-0.5-0.4-0.1-0.1-0.3-0.5-0.6-0.6-0.8 0.2-0.9 1.2-0.2 0.3-0.4 1-0.2 0.9-0.5 0.8-0.2 0.6-0.1 0.4 0.1 0.3 0.1 0.3 0.2 0.2 0.3 0.4 0.2 0.3 0.1 0.4 0 0.9-0.1 0.5-0.2 0.5-0.4 0.7-0.2 0.2-0.2 0.2-0.2 0.1-0.9 0.3-0.2 0.1-0.3 0.3-0.3 0.5-0.7 1.3-0.2 0.8-0.2 0.9-0.1 0.3-0.2 0.3-1.1 0.8-0.4 0.4-0.4 0.6-0.4 0.4-0.4 0.3-0.6 0.3-0.5 0.4-0.1 0.3 0 0.2 0.2 0.3 0.2 0.1 0.1 0.4 0 0.6-0.4 2-0.1 0.6 0.1 0.3 0 0.3 0.1 0.4 0 0.6-0.2 0.9 0.1 0.5 0.1 0.3 0.2 0.2 0.2 0.3 0.1 0.4 0 0.7-0.1 0.5-0.1 0.3-0.6 1-0.6 0.8-0.4 0.4-0.1 0.1-0.2 0-0.3 0-0.6-0.1-0.8-0.3-0.6-0.1-0.3 0.1-0.3 0.2-0.6 0.7-0.2 0.4 0 0.4 0.1 0.3 0.1 0.2 0.3 0.2 0.4 0.2 0.2 0.1 0.1 0.2 0 0.5 0 0.2-0.1 0.2-0.4 0.2-0.4 0.1-4-0.5-1.1-0.4-3.9-0.1-1.6-0.3-0.1-0.2-0.9-0.5-0.9-0.4-0.6-0.1-0.4 0-0.2 0.1-0.2 0.1-0.4 0.4-0.2 0.2-0.4 0.7-0.1 0.3-0.1 0.3-0.1 0.2 0.1 0.3 0.1 0.3 0.1 0.2 0.3 0.2 0 0.2 0 0.1-1.7 0.6-1.3 0.1-0.6-1.5-1.3-1.3-0.8-1.5 0.8-2.7-1.8-0.3-2.4 1.6-1.7 0.1-10.2 3-2.3-0.1-0.6-0.1-0.5-0.5-0.4-0.7-0.4-0.6-0.7-0.3-1.6-0.3-1.1-0.5-6.2-3.8-2.4-0.9-3.4-1.8-0.7-0.2-0.8 0-0.7 0.3-0.7 0.1-0.8-0.3-0.6-0.7-0.2-0.7-0.2-0.7-0.4-0.9-0.5-0.6-1.2-0.8-0.5-0.6-0.4-0.6-0.6-1.7-0.5-0.8-1-1.2-0.3-0.3-0.2-0.4-0.3-0.7 0.1-0.4 0.1-0.5 0.5-2.6 0.4-0.7 2-1.1-1.6-1.3-1.7-1.9-1.4-2.3-0.1-2.5 0.6-1.1 3-2.3 2-3.5 0.8-0.7-0.7-1.7 0.3-0.9 0.2-0.8 1-1.3 1.4-0.8 1.1 0 2.1 0.7 1-0.1-0.3-1-0.6-1.2-1.2-2.2-0.2-0.7-0.3-2.1-0.7-1.7 0-0.1 0.3-1.4 0.1 0 0-0.4 0.1-0.2 0-0.3-0.1-0.5-0.3-0.4-1-1.1-3-1.3-1 0-2.9 0.5-1.1-0.2-4-2.4-1.9-1.7-1.1-1.7 0.1-4.6-0.3-2.4-1.6-1.2-2-0.1-0.6-0.6-0.7-1.2-0.2-0.8 0.1-0.6-0.1-0.6-1-0.8-1-1.6 0.7-0.9 0.9-0.8 0.1-0.1 2.1-1.2 0.5-0.1 1.1 0 0.4 0 0.5-0.3 1.1-0.9 0.4-0.2 2.1 0.4 2.1 1.1 2.1 0.8 2-0.9 0.1-0.6-0.4-0.3-0.2-0.5 0.3-0.7 0.4-0.2 1.4 0 0.5-0.2 0.9-0.7 1-1.8 0.8-0.8 2.1-0.9 2-0.6 0.5 0.2 0.7 0.9 0.3 0.1 0.4-0.4 1.2-2 1.5-1.4 0-1.3-0.6-1.6-0.3-2.5 0.3-0.5 1.9-2.2 1.2-2.2 0.6-1.3 0-1-0.4-0.4-2.5-1.1-0.8-0.6-0.5-0.9-0.4-1.1-0.4-0.6 0.8-0.9 2.5-2.7 0.4-0.2 0.3 0 0 0.3-0.3 0.7 0 0.1 0.1 0.1 0 0.2 0.2 0.2 0.2 0.1 1 0.3 2.8 0.4 0.8-0.1 0.4-0.1 0.4-0.3 8.6-2.9 0.2-0.2 0.8-0.8 0.2-0.1 1.2-0.7 0.4-0.4 0.7-0.9 1.1-1.1 0.4-0.2 0.5-0.1 1.1 0.1 0.5-0.2 0.5-0.2 0.8-0.4 0.5-0.2 0.5-0.1 5.7 1.3 0.3 0.1 0.2 0.1 0.7 0.5 0.6 0.2 3.4 0.2 0.6-0.1 0.4-0.1 0.5-0.3 1.6-1.2 5.6-1.8 1.9-2.8 0.4-1.1 0-0.3-0.1-0.2-0.3-0.5-0.1-0.8 0-1.1 0.3-2.7 0-1.1 0-0.8-0.2-0.1-1.3-0.7-0.5-0.4-0.1-0.2-0.2-0.3-0.1-0.4-0.2-1.4-0.2-0.4-0.3-1.7 0-1.4-0.2-2.5-0.7-4.7 0-0.6 0.1-0.3 0.4-0.1-0.4-1.7 1.2-0.1 0.2-1.6 0.6-1.2 0.9-0.7 4.1-0.9 0.6-0.2 0.4-0.3 0.7-1 0.1-0.2 0.6-1.2 0.1-0.2 0.3-2.4 0-1 0.1-0.9 0.4-0.9 0.6-0.5 1.2-0.1 0.7-0.2 2.5-2.2 1.3-2.8-0.2-3.1-1.7-3.3-1.4-1.2-0.2-0.4 0.3-0.7 0.6-0.8 1.1-1.2 1.3-0.6 2.5-0.5 1.2-0.9 2.9-3.8 1.7-0.8 0.7-0.6 0.5-0.7 0.4-0.7 0-0.9-0.4-0.3-0.2-0.4 0.4-1 1.3-1.4 1.6-0.8 2.5-0.6 0.8-0.1 1.6 0.3 0.8 1.1 0.3 2 0 2.5-0.2 2.5-0.9 4.4-0.2 2.2 0.2 2 0.6 1.4 1.1 0.9 1.6 0.6 1.6 0.8 1.6 1.7 3.7 5.5 0.6 0.3 1.1 0.4 2.8 1.6 1 0.1 0.4-0.3 0.9-0.8 0.4-0.2 0.3 0.2z" id="IT21" name="Piedmont">
  </path>
  <path d="M214.2 296.5l1.3-0.1 1.7-0.6 0-0.1 0-0.2-0.3-0.2-0.1-0.2-0.1-0.3-0.1-0.3 0.1-0.2 0.1-0.3 0.1-0.3 0.4-0.7 0.2-0.2 0.4-0.4 0.2-0.1 0.2-0.1 0.4 0 0.6 0.1 0.9 0.4 0.9 0.5 0.1 0.2 1.6 0.3 3.9 0.1 1.1 0.4 4 0.5 0.4-0.1 0.4-0.2 0.1-0.2 0-0.2 0-0.5-0.1-0.2-0.2-0.1-0.4-0.2-0.3-0.2-0.1-0.2-0.1-0.3 0-0.4 0.2-0.4 0.6-0.7 0.3-0.2 0.3-0.1 0.6 0.1 0.8 0.3 0.6 0.1 0.3 0 0.2 0 0.1-0.1 0.4-0.4 0.6-0.8 0.6-1 0.1-0.3 0.1-0.5 0-0.7-0.1-0.4-0.2-0.3-0.2-0.2-0.1-0.3-0.1-0.5 0.2-0.9 0-0.6-0.1-0.4 0-0.3-0.1-0.3 0.1-0.6 0.4-2 0-0.6-0.1-0.4-0.2-0.1-0.2-0.3 0-0.2 0.1-0.3 0.5-0.4 0.6-0.3 0.4-0.3 0.4-0.4 0.4-0.6 0.4-0.4 1.1-0.8 0.2-0.3 0.1-0.3 0.2-0.9 0.2-0.8 0.7-1.3 0.3-0.5 0.3-0.3 0.2-0.1 0.9-0.3 0.2-0.1 0.2-0.2 0.2-0.2 0.4-0.7 0.2-0.5 0.1-0.5 0-0.9-0.1-0.4-0.2-0.3-0.3-0.4-0.2-0.2-0.1-0.3-0.1-0.3 0.1-0.4 0.2-0.6 0.5-0.8 0.2-0.9 0.4-1 0.2-0.3 0.9-1.2 0.8-0.2 0.6 0.6 0.3 0.5 0.1 0.1 0.5 0.4 0.9 0.5 0.6 0.5 0.4 0.4 0.3 0.1 1.1 0.4 0.5 0.2 0.2 0.2 0.1 0.2 0.2 0.2 0.3 0.2 0.3-0.1 0.7-0.4 0.3-0.4 0.2-0.3 0.1-0.3 0.1-0.2 0.1-0.1 0.1-0.2 0.2-0.2 0.9-0.6 0.2-0.1 0.3-0.1 0.5 0.3 0.5 0.1 0.4 0 0.6-0.3 1.7-0.2 5.1 0.1 1.1-0.7 0.4-0.5 0.5-0.7 0.1-0.2 0.1-0.3 0-0.3-0.1-0.3-0.1-0.2 0-0.3 0-0.2 0-0.3 0.3-0.6 0-0.3 0.3-0.5 0.1-0.2 0.2-0.2 0.5-0.1 0.6 0 4.6 0.5 0.5 0.1 0.3 0.2 0.2 0.2 0.1 0.3 0.3 0.5 0.2 0.5 0.5 0.6 0.4 0.8 0.2 0.5 0.5 0.6 0.1 0.3 0 0.3-0.1 0.9 0 0.3 0.1 0.3 0.1 0.2 0.2 0.1 0.1 0 0.2-0.2 0.5-0.8 0.3-0.5 0.2-0.2 0.9-0.7 0.1-0.1 0.2-0.3 0.1-0.2 0.1-0.3 0.3-1.2 0.2-0.3 0.4-0.1 0.7-0.1 1.5 0 1.2 0.2 0.3-0.1 0.5-0.4 0.2-0.3 0.1-0.4 0-0.4 0-0.3-0.1-0.7 0-1.1 0-0.3-0.1-0.3-0.1-0.3-0.1-0.2-0.7-0.5-0.7-0.5-0.1-0.1-0.1-0.3 0-0.2 0.1-0.3 1-0.8 0.7-0.8 0.1-0.1 0.1-0.2 0.2-1.1 0.1-0.2 0.2-0.1 0.3-0.2 1.2-0.1 0.5 0 0.4 0.1 0.5 0.9 0.4 0.3 0.4 0.2 1 0.5 0.8 0.5 0.9 1.1 0.8 0.7 2.8 1.1 0.6 0.3 0.4 0.4 0 0.7 0.1 0.4 0.1 0.2 0.2 0.2 0.2 0.2 0.3 0.2 0.8 0.3 0.8 0.2 0.4 0 0.9-0.2 0.5-0.3 0.7-0.5 0.5-0.5 0.2-1.2 0.7-0.3 0.6-0.2 0.3 0 0.4 0.2 0.5 0.4 0.5 0.6 0.2 0.1 0.4 0 0.5-0.2 0.6-0.3 0.4 0.1 0.7 0.2 2.4 1.6 0.2 0.2 0.3 0.1 0.5 0.1 1.1 0 0.5-0.1 0.3-0.2 0.5-0.6 0.2-0.2 0.2 0 0.4 0.1 0.7 1 0.3 0.4 0.6 0.3 2.3 0.9 0.6 0.7 0 0.3 0.2 1.8-0.1 1.4-0.1 0.5-0.3 0.6-0.6 1-0.4 0.4-0.4 0.3-0.2 0.1-0.2 0.1-0.2 0.3-0.1 0.2-0.5 2.5-0.2 0.7-0.1 0.4 0 0.5 0.1 0.4 0.1 0.2 0.8 0.1 1.3-0.1 0.7-0.3 0.2-0.1 0.3-0.2 0.2-0.2 0.4-0.5 0.3-0.1 1.4 0.1 1.2-0.1 0.9 0.2 1.2-0.1 0.4 0.1 3.1 1.7 0.3 0.3 0.2 0.5 0.3 1.1 0.5 1.1 1 1 1.5 2.2 2.1 2 5 3.6 0.5 0.4 0.4 0.4 0.1 0.2 0 0.4 0 0.3 0 0.4-0.1 0.3 0.1 0.3 0.3 1.6 0 0.3 0 0.3-0.1 0.7 0.1 0.4 0.1 0.2 0.3 0.1 0.2-0.2 0.1-0.2 0.5-1 0.3-0.2 0.3 0 0.7 0.4 0.3 0.3 0.1 0.4-0.1 0.3-0.4 0.8-0.1 0.3-0.1 0.4 0.1 0.2 0.1 0.1 0.6 0.2 0.6 0 1-0.2 0.5 0 0.5 0.1 0.8 0.4 0.4 0.2 0.3 0.3 0.1 0.3 0 0.3-0.1 0.3 0 0.4 0.1 0.5 0.2 0.8 0.3 0.3 0.2 0.2 0.4 0 0.5-0.2 0.4 0.1 0.6 0.2 1.1 0.8 0.5 0.4 0.2 0.4 0 0.3-0.2 0.3-0.1 0.2-0.5 0.7-0.4 0.8-0.2 0.4-0.2 0.5-0.1 0.4 0 0.1-0.8-0.2-0.9-0.5-0.6-0.2-0.3 0.4-0.2 0.4-0.5 0.4-0.5 0.1-0.6-0.4-0.9-0.9-2-1.6-0.9-1.1-0.7 0.4-1.9-1.6-1 0.1 0.4 0.6-0.3 0.1-0.3 0.3-0.2 0.1 0.3 0.7 0.3 0.5 0.5 0.3 0.5 0.2 0 0.5-0.3 0.2-0.2 0.3-0.3 0.7 0.7 0.4-0.2 0.5-0.6-0.1-0.3-1.1-0.4-0.7-2.8-1.3-3-2.7-0.7-0.4-1.6-1.5-0.6-0.4-1.7-0.1-0.7-0.2-0.6-0.3-2-2.4-0.4-0.1-0.4-1-1-0.7-2.6-1.3-0.7-0.5-0.6-0.7-0.3-1.1-0.7 0.3-1.1 0.2-1-0.2-0.4-0.6-0.4-0.8-2.8-1.2-0.4-1.8-6.2-3.5-1.9-1.4-0.5 0.8-0.5 0.9-0.2 1 0.1 1.3-2.7-1.1-1.1-0.8 0.1-1-1.1-1.9-1.6-0.9-5.9-1.1-2.9-1-1.7-1-0.5 0.3-2.7-0.1-1.4-0.3-0.4-0.3-0.7-0.9-3.7-0.3-1.5 0.2-0.7 0.4-1.7 1.4-0.7 0.7-0.4 0.3-0.4 0-0.5 0-0.4 0-1.5 1.1-2.1 1.5-1 0.2-0.7 0.3-1.5 1.4-4.3 2.9-1.3 1.7 0.3 1.6-0.6 0.9-0.2 0.5 0 0.6-0.2 0.2-0.9 0.6-0.3 0.3-0.3 1 0.1 0.8 0 0.9-0.8 0.9-1.5 0.7-3.3 1.1-1.7 1-0.8 0.8-0.8 0.8-1.4 2.1-0.2 0.6 0.1 1.3-0.1 0.6-0.3 1.3-0.5 0.9-2.7 3.2-1 1.9 0.9 1.7 0 0.5-1.4 0.3-0.8 1-0.9 1-1.5 0.6-0.5 0.4-0.3 0.5-0.2 0.4-0.3 0.6-0.7 0.4-1.4 0.4-4.2 2.8-10.2 2.5-2.9 1.9-2.4 0.6-7.3 0-1.6 0.6-0.8 0-0.4-0.4-0.6-0.3-0.6 0-1.2-3.9-0.3-2 0.9-1.7 2.6-2.8 1.2-1.9 3-2.6 1.3-1.5 0.5-0.9 0.4-1.8 0.4-1 0.7-0.7 0.8-0.7 0.7-0.9 0.1-1.4-0.3-0.5z" id="IT42" name="Liguria">
  </path>
  <path d="M275.3 128.9l0.2 0 0.4 0.8 0.5 0.3 0.9 0.1 1.8 0 0.9 0.3 1.5 2-0.9 2-1.7 2-1 2.4-0.2 0.4-0.1 0.2 1 0.1 0.9 0.3 3.4 1.8 0.3 0.3 0.4 0.6 0.6 1.3 1 1.8 0.5 1.1 0.3 1.1 0.1 1.5-0.2 1-0.4 1-0.2 1.3 0.6-0.1 1.8-0.6 1.9 0.9 1.7 0.3 1.9-2.3 1.5-2.8 0.2-1.5-0.7-1.4-0.5-0.3-1.3-0.3-0.6-0.3-0.5-0.8-0.5-1.5-0.6-0.7-0.1-0.2-0.1-0.2 0.1-0.2 0.1-0.2 1.9-1.8-1-3 0.2-0.9 1.5-1.2 1.3-0.4 0.6-0.3 0.4-0.8 0.2-1.1-0.1-1.9 0.2-1.1 1.1-1.6 4.3-2.9 0.4-0.8 0.3-1 0.3-0.9 0.7-0.4 0.7-0.4 0.6-0.6 0.6-0.9 0.9-3 1.7-3.6 0.3-1.9 0-1.1-0.8-3 0-1.2 0.1-1.1-0.1-0.8-0.8-0.6-0.5-1.1 0.4-2.1 1-2 1.2-1.1 2.8-0.3 1.2 0.3 0 1 1.5 1.5 0.5 0.2 0.6-0.3 0.3-0.5 0.2-0.6 0.4-0.6 0.9-0.7 0.5-0.1 0.2 0.6 0.3 8.1-0.1 1.3 0.2 0.5 0.4 0.4 1.3 0.7 0.5 0.5 1.2 3 0.7 1.1 1.3 0.8 1.3 0.5 6.7 0.1 1.1-0.5 0.9-1.2 0.1-0.7-0.1-0.9 0.1-1 0.6-0.7 0.7 0 1.4 0.9 0.7 0.1 1.3-0.4 3.9-2 2.5-0.4 1.2 0.1 1.2 0.3 1.4 0.9 0.4 1.4 0 1.7 0.4 1.9 0.9 1.1 2.3 2.1 0.6 1.4 0 1.9 2 0.1 2.5-1 1.6-1 0.8-1.6-0.8-1.5-2.4-2.5-0.5-0.9-0.3-0.8 0.1-0.7 0.3-1.2 0.4-0.8 1.2-1.1 0.5-0.6 0.4-1.8-0.4-1-1-0.4-2.7-0.5-1.7-0.7-0.9-1.1 1-1.8-0.5-0.3-0.3-0.5-0.1-0.6-0.1-0.8 0.3-0.9 0-1.9 0.1-0.6 0.5-0.8 1.2-1.2 0.5-0.7 0.7-2.8 0.3-0.6 0.6-0.3 5.5-1.6 1.5 0 1 0.7 0.1 1-0.3 1.7 0.2 1 2.4 0.8 0.5 0.4 0.3 0.4 0.4 0.4 0.6 0.3 0.8 0.2 2-0.2 4.2 1.1 1.1-0.2 0.4-0.8 0.4 0.4 0.6 2 0.3 0.5 0.5 1 0.4 0.3 0.3 0.3 2.8 0.4 1.6 0.7 2.8 1.8 0.5 0.5 0.2 0.5 0.1 0.7 0.5 2.5 0 1 0 0.3-0.2 0.4-0.2 0.4-0.2 0.2-0.6 0.7-0.4 0.3-0.2 0.2-0.6 0.2-0.6 0.1-1.4-0.1-0.3 0-0.4 0.2-1 1-0.4 0.9 2.3 1.7 0.6 0.8 0.1 0.3 0.1 0.7 0 0.3-0.1 0.4 0 0.3 0 0.6 0.1 0.8 0.4 1.9 0.1 0.8 0.1 0.7-0.9 2.3-0.5 1-0.1 0.5-0.1 0.5 0 2.2-0.3 3.2-0.1 0.5-0.1 0.3-0.2 0.2-1.7 1.7-0.4 0.4-0.3 0.5-0.3 0.8-0.4 1.9-0.2 0.9-0.3 0.5-0.7 0.5-0.3 0.3-0.3 0.5-0.4 1.1-0.1 0.7 0 0.5 0 0.3 0.2 0.2 0.2 0.2 0.2 0.2 0.3 0.1 1.2 0.3 0.2 0.1 0.1 0.2 0 0.4 0.1 1.1 0 0.4 0.1 0.3 0.1 0.3 0.1 0.3 0.5 0.8 0.2 0.5 0 0.4 0 0.3-0.4 0.9-0.3 0.8 0 0.5 0 0.4 0.4 1 0.5 2.1 0.2 0.4 0.2 0.2 0.2 0.1 1 0.3 0.3 0.1 0.2 0.3 0.1 0.4-0.2 1.1 0.1 0.3 0.1 0.2 0.6 0.3 0.5 0.2 0.3 0 0.3 0 0.3-0.1 0.2-0.1 0.8-0.8 0.3-0.1 0.3-0.1 1.4 0.1 0.6-0.1 0.3-0.1 0.3-0.1 0.2-0.2 0.1-0.3 0.1-0.3 0-0.3 0.1-0.7 0.1-0.3 0.1-0.2 0.1-0.3 0.2-0.2 0.3-0.1 0.9 0.1 0.3 0 1.2-0.4 0.3 0 0.3 0.1 0.3 0.1 0.7 0.4 0.3 0 0.4 0 1.8-0.3 0.6 0 0.2 0.1 0.8 0.3 1.1 0.6-2.5 3.8-0.3 0.5-0.8 2.2-1.3 2.3-0.9 1-6 9-0.1 1.6-0.1 2.3 0.6 5.5 0 3.1-0.2 0.1-0.2 0.5 0 0.5 0.1 0.6 0.3 0.9 0.6 0.9 0.1 0 1.5-0.4 0.8 0.1 0.2 1.7-0.2 1.7 0.2 0.7 0.8 0.5 0 0.5-0.7 0.6 0 2.1-0.5 0.7 1.2 0.4 0.6-0.2 0.3 0 0.4 0.2 0.3 0.4 0.1 0.4 0.2 0.6 0.1 0.2 0.2 0.2 0.3 0.1 0.3-0.2 0.3-0.2 0.2-0.2 0.2-0.4 0.2-0.2 0.3-0.1 0.5 0.1 0.5 0.4 1.9 1.8 0.2 0.5 0.4 0.8 0.1 0.2 5.7 4.5 2 0.7 0.5 0.3 0.3 0.3 0.4 0.5 0.2 0.3 0.1 0.3 0 0.3-0.1 0.2-0.2 0.5 0 0.2-0.1 0.3 0.1 0.3 0 0.1 0.1 0.2 0.3 0.1 0.3 0.2 0.8-0.1 0.8-0.1 0.3 0 0.3 0.2 0.3 0.4 0 0.3 0 0.3-0.3 0.5-0.1 0.3 0 0.3 0 0.3 0.1 0.3 0.2 0.2 0.7 0.9 0.3 0.3 0.4 0.2 0.4 0.1 0.4-0.1 0.4-0.3 0.3-0.3 0.2-0.2 0.2-0.1 1.7-0.2 0.4-0.2 0.4-0.1 0.2-0.2 0.4-0.1 0.7 0.1 1.8 0.5 0.3 0.7-0.8 0.7-0.2 0.2-0.1 0.2 0 0.3 0.2 1.9 0.1 0.1 1 0.4 3.5-0.1 0 2.2 1.9 1.7 4.9 3.3 1 0.1 0.8 0.4 0.1 1.4-2.9-0.6-4-0.2-0.3 0.1-0.2 0.1-0.2 0.3-0.3 0.6-0.4 0.3-0.3 0-1-0.4-4.2 1.3-1.3 0.1-0.2-0.2-0.5-0.7-0.2-0.2-0.2-0.1-3.2-1.3-0.4-0.1-4.9 0.7-0.2 0.2-0.2 0.1-0.1 0.3-0.3 0.5-0.3 0.2-0.4 0.2-1.7 0.4-0.5 0.3-0.3 0.1-0.6 0.4-1.9 0.7-0.1-0.1-0.6-0.4-0.2-0.2-0.5-0.3-0.3-0.2-5.6-1.3-0.2-0.2-0.2-0.2 0.1-0.3 0-0.3 0.2-0.2 0-0.3 0-0.3-0.1-0.3-0.1-0.3-0.1-0.2-0.2-0.2-0.8-0.6-0.2-0.2-0.7 0-0.9 0-0.5 0-0.3-0.2-0.2-0.1-0.8 0.3-0.9 1.8-1.8 2.1-1.9 1.4-2.1 0.6-2.6-0.1-1-0.2-0.1 0-1.4-0.4-2-1.1-0.8-1.2-1-2.8-0.8-0.5-1.2 0.2-0.8 0.3-0.9 0.1-1.4-0.6-6-3.9-2.4-0.7-2.4 0.3-2.2 0.7-1.9-0.2-1.5-2.4-1.1-2.6-0.1-0.6-0.3-0.5-1.1-0.8-0.3-0.4-0.6-0.3-4.2 1.7 0.4-1.8-1.1-0.7-1.2 0.3 0.1 1.4 0.9 1.5-0.3 0.7-0.8 0-2.5-0.6-0.5 0.2 0.4 1 0.2 0.9-0.4 0.4-0.6 0-0.2-0.7-0.5-0.7-2.1-1.3-0.7-1.2-0.3 0-0.1 0.4 0 0.1-0.1 0-0.2 0.1 0 2.2-1.7 0.8-2.4-0.3-1.9-1-0.8-0.5-0.1-0.4 0-1.1 0.2-0.4 0.2-0.5 0-0.3-0.7-0.2-0.9 0.3-0.6 0.6-0.8 0.4-1-0.2-0.7-1.1-0.5-0.5-0.4 0.2-0.2 0.1-0.2 0.6 0.1 0.7 0.2 0.7 0.1 0.8-0.2 0.9-0.6-0.1-1.2-1.1-0.6-0.2-0.6 0-1.2 0.2-2.7 0-0.4 1.1-0.2 0.5-1.8 3-3.7 8.6-0.5 0.7-0.3 0.7-0.2 0.4-0.1 0.6 0 0.9 0 0.5 0.2 0.4 0.1 0.2 0.4 0.4 0.2 0.1 0.5 0.3 1 0.5 0.5 0.3 0.1 0.2 0.2 0.2 0.1 0.3 0 0.4 0 0.3-0.2 2.1-0.8 1.8-1.4 2.1-0.4 1-0.3 0.7 0.1 0.4 0.1 0.3 0.5 1.6 0.3 1.3 0 0.3 0 0.4-0.2 0.3-0.3 0.4-0.3 0.3-0.4 0.1-0.5 0-1.1-0.2-0.5-0.2-0.2-0.2-0.3-0.9-0.2-0.2-0.2-0.1-0.2 0.1-0.1 0.5-0.1 0.4 0.1 0.7-0.1 0.4-0.1 0.6-0.6 0.3-1.8-0.2 0.3-3.2-0.2-1-0.2-0.1-0.3-0.4-0.3-0.6-1.1-3.3-0.6-1.3-0.2-0.4-0.2-0.3-0.3-0.2-0.2-0.1-0.3-0.1-1.3-0.3-1.4 0-0.5-0.1-0.6-0.4-0.9-1-0.4-0.6-0.3-0.4 0-0.3 0-0.3 0.1-0.3 0.2-0.6 0.1-0.3 0-0.5-0.1-0.3-0.2-0.3-3.1-2.8-1.1-1.3-0.3-0.5-0.2-0.4 0.2-0.7 0-0.4-0.2-0.8-0.1-0.4-0.2-0.3-0.3-0.4-0.1-0.1-0.4-0.2-0.5-0.2-1.8-0.2-0.4-0.1-0.4-0.2-0.8-0.6-0.1-0.1-0.1-0.2-0.1-0.3-0.1-0.2 0-0.4-0.1-0.3 0-0.3 0.3-2.1 0-0.5-0.2-0.1-1.6-0.4-1 0.5-3.5 2.1-1.3 0.2-2.2 0-1.2-0.5-0.6 0-0.8 0.5-1.4-1.3-0.8-1.7-1.4-3.9-2-2.4-0.5-1.4-0.1-0.2-0.4-0.7-0.1-0.4-0.2-0.8 0.4-1.2 0-0.2-0.2-0.3-0.3-0.3-0.4-0.3-0.5-0.9-0.1-0.6 0-0.5 0.1-0.6-0.1-0.3-0.2-0.2-0.3-0.2-0.3-0.5-0.1-1.6-0.1-0.5-0.3-0.3-0.3-0.2-0.3-0.3-0.1-0.4 0-0.3 0.1-0.2 0.3-0.6 0.3-0.6 0.1-0.1 0.7-0.8 0.4-1.2 0.4-1.3 0.2-0.5 0.3-0.4 0.2-0.1 0.4-0.1 0.9 0 2.6 0.6 0.5 0.2 0.3 0.1 0.2 0.2 0.3 0.5 0.2 0.5 1 2.1 0.3 0.3 0.4 0.3 1.1 0.3 0.4 0.1 0.4-0.1 0.1-0.2 0.1-0.3 0.1-1 0.1-0.3 0.1-0.3 0.2-0.2 0.1-0.3 0.4-0.3 1.6-1 0.3-0.2 0.1-0.2-0.1-0.3-0.1-0.2-0.2-0.2-0.7-0.4-0.3-0.2 0.1-0.3 1.7-1.2 3.9-1.5-1-1.3-0.2-0.3-1.5-4.1-0.4-0.9-0.4-0.5-0.2-0.2-1.2-0.4-1.2-1-0.4-0.5-0.2-0.4-0.1-0.8-0.1-0.6-0.3-0.9-0.2-0.5-0.1-0.4 0.1-0.9-0.5-0.7 0.1-1.5-0.1-0.4-0.1-0.3-1.6-1.9-0.2-0.5 0-0.4 0.3 0 0.3 0 0.2 0 0.3-0.4-0.1-0.3-0.2-0.5-0.1-0.5 0-0.5 0-0.6-0.1-0.3-0.2 0-0.6 0.1-0.3-0.1-0.4-0.3-0.1-0.4-0.1-0.3 0.2-0.7 0.1-0.5 0-0.8-0.1-0.4-0.2-0.3-0.4-0.2-1.2-0.4-0.5-0.5-0.7-1-1.3-2.5-0.4-1.2-0.2-0.7 0.1-0.3 0.2-0.2 0.1-0.3 1.2-1 0.2-0.3 0.1-0.2 0.2-0.3 0.1-0.3 0-0.5-0.3-2.5-0.4-1.6-0.1-1.3 0-0.6 0.1-0.4 0.1-0.2 7.5-8 0.2-0.4 0.3-0.5 0.2-1 0.1-0.6 0-0.4-0.3-5.2z" id="IT25" name="Lombardy">
  </path>
  <path d="M494.7 80.6l-1.5 0.9-0.7 0.6-0.3 0.5-0.2 0.2-0.3 0.3-1.1 0.6-0.3 0.3-0.2 0.3 0.1 0.6 0 0.3-0.3 0.2-0.3 0.1-0.7-0.1-0.3-0.1-0.3-0.2-0.2-0.2-0.3-0.2-0.3-0.1-0.4 0.1-0.4 0.1-0.6 0.5-0.6 0.3-0.6 0.2-2.9 0.3-0.9 0.5-1.4 0.8-0.3 0.1-0.3-0.3-0.1-0.7-0.1-0.2-1.3-2.2-0.2-0.2-0.3-0.1-1.3-0.2-0.5-0.3-2.3-2-0.3-0.1-0.3 0.2-0.3 0.5-0.2 0.5 0 0.4-0.1 1.2-0.1 0.7-0.4 1.2-0.4 1.2-0.5 1.1-0.8 1-0.2 0.3-0.1 0.4-0.2 1-0.1 0.4-0.1 0.2-0.1 0.3-0.2 0.2-0.2 0.2-0.9 0.4-9 1.8-1.2 0.8 0.1 1.8 0.6 0.4 1.6 0.4 0.6 0.2 0.4 0.4 0.2 0.2 0.1 0.2 0.1 0.3 0 0.3-0.1 0.4-0.3 0.6-0.3 0.2-0.6 0.4-0.4 0.3-0.2 0.3-0.1 0.2-0.2 0.4-0.1 0.7-0.3 2.5-0.2 0.3-0.3 0.2-0.9 0.1-0.3 0.2-1.1 0.8-0.2 0.2-0.1 0.3 0.1 0.6 0.1 0.4 0.1 0.3 2.2 2.4 0.3 0.5 0.1 0.2 0.1 0.3 0.1 0.5-0.1 1.4 0.1 0.4 0.2 0.3 0.2 0.1 0.4 0.1 1.4-0.1 0.3 0.1 0.2 0.1 0.2 0.2 0.2 0.6 0.2 0.2 0.2 0.1 0.6 0.3 0.2 0.1 0.1 0.1 0.1 0.1-0.4 1.4-0.1 0.5 0.1 0.5 0.1 0.2 0.2 0.2 0.4 0.4 1.8 1 0.2 0.2 0.2 0.2 0.1 0.3-0.1 0.3-0.2 0.3-0.5 0.4-0.8 0.3-0.3 0.3-0.4 0.4-1.3 1.9-0.3 0.5-0.2 0.4-0.3 0.3-0.7 0.4-2.6 0.8-1.2 0.8-0.6 0.2-0.6 0.1-3.3 0-1.8 0.4-0.3 0.1-0.3 0.4-0.2 0.6 0.1 1 0 0.5 0.3 0.7 0 0.3-0.1 0.4-0.3 0.4-0.5 0.5-0.2 0.4-0.2 0.6-0.2 2.2 0.3 1.7-1.9 0.8-0.9 0.1-1.4-0.1-0.6-0.2-0.2-0.2-0.2-0.2-0.2-0.2-0.1-0.2-0.4-1.1 0-0.1-0.4-0.4-0.3-0.4-0.3-0.2-0.2-0.1-0.3-0.1-0.3 0-0.8-0.1-2.7 0.3-0.5 0.3-2.7 1.8-1.4 0.4-1.4 0.2-0.3 0.2-0.2 0.3-0.2 0.6 0 0.5 0 0.3 0.2 0.6 0.1 0.2-0.1 0.4-0.4 0.4-0.4 0.4-0.4 0.7-0.2 0.3-0.5 0.1-0.3-0.1-0.3-0.1-0.4-0.4-0.2-0.2-0.2-0.2-0.1-0.2-0.1-0.2-0.3-0.1-0.2 0-0.3 0.2-0.2 0.1-0.7 0.8-1 0.6-0.2 0.4-0.2 0.5-0.3 1-0.5 1.1-3.3 6.1-0.1 0.3 0 0.5 0.2 0.6-0.1 0.3-0.1 0.2-0.6 0.4-0.3 0.2-0.1 0.3 0 0.4 0.2 1 0 0.3-0.1 0.3-2.1 3.7-1 0.9-1.1-0.1-2.9-1-0.3 0-0.3 0-0.6 0.1-0.4 0-0.4-0.1-0.7-0.2-0.3 0-0.3 0.2-0.8 1.1-0.2 0.3-0.2 0.1-0.2 0.2-0.2 0-1-0.2-0.3 0-0.2 0.2-0.3 0.5-0.2 0.2-0.2 0.1-0.3 0.1-0.3 0-0.4-0.4-0.5-0.5-0.8-1.3-0.5-0.5-0.4-0.3-0.6 0.1-0.3-0.1-0.1-0.4 0-0.7 0.3-1.7 0-0.3 0.1-0.3 0.1-0.3 0.1-0.3 0.1-0.2 0.8-0.8 0.2-0.3 0-0.3 0-0.5-0.2-0.8-0.1-0.6-0.3-0.5-0.3-0.4-2.3-1.4-1.1-0.6-0.8-0.3-0.2-0.1-0.6 0-1.8 0.3-0.4 0-0.3 0-0.7-0.4-0.3-0.1-0.3-0.1-0.3 0-1.2 0.4-0.3 0-0.9-0.1-0.3 0.1-0.2 0.2-0.1 0.3-0.1 0.2-0.1 0.3-0.1 0.7 0 0.3-0.1 0.3-0.1 0.3-0.2 0.2-0.3 0.1-0.3 0.1-0.6 0.1-1.4-0.1-0.3 0.1-0.3 0.1-0.8 0.8-0.2 0.1-0.3 0.1-0.3 0-0.3 0-0.5-0.2-0.6-0.3-0.1-0.2-0.1-0.3 0.2-1.1-0.1-0.4-0.2-0.3-0.3-0.1-1-0.3-0.2-0.1-0.2-0.2-0.2-0.4-0.5-2.1-0.4-1 0-0.4 0-0.5 0.3-0.8 0.4-0.9 0-0.3 0-0.4-0.2-0.5-0.5-0.8-0.1-0.3-0.1-0.3-0.1-0.3 0-0.4-0.1-1.1 0-0.4-0.1-0.2-0.2-0.1-1.2-0.3-0.3-0.1-0.2-0.2-0.2-0.2-0.2-0.2 0-0.3 0-0.5 0.1-0.7 0.4-1.1 0.3-0.5 0.3-0.3 0.7-0.5 0.3-0.5 0.2-0.9 0.4-1.9 0.3-0.8 0.3-0.5 0.4-0.4 1.7-1.7 0.2-0.2 0.1-0.3 0.1-0.5 0.3-3.2 0-2.2 0.1-0.5 0.1-0.5 0.5-1 0.9-2.3-0.1-0.7-0.1-0.8-0.4-1.9-0.1-0.8 0-0.6 0-0.3 0.1-0.4 0-0.3-0.1-0.7-0.1-0.3-0.6-0.8-2.3-1.7 0.4-0.9 1-1 0.4-0.2 0.3 0 1.4 0.1 0.6-0.1 0.6-0.2 0.2-0.2 0.4-0.3 0.6-0.7 0.2-0.2 0.2-0.4 0.2-0.4 0-0.3 0-1-0.5-2.5-0.1-0.7-0.2-0.5-0.5-0.5-2.8-1.8-1.6-0.7-2.8-0.4-0.3-0.3-0.4-0.3-0.5-1-0.3-0.5-0.6-2-0.4-0.4 0.4-0.6 0.5-2.1 0-2.2-0.4-1.7-1.3-1-2.4-0.3-1.1-1.2-0.5-1.6 0.3-0.8 0.6-0.6 0.6-1.1 0.1-1.2 0-0.9 0.2-0.8 1-0.7 0.7-1-0.2-1.2-0.4-1.3-0.1-1.2 1.3-1.6 0.3-0.5 0.3-0.8 0.3-2.8 1.9 1.6 2.4 0.3 6-1.7 1-0.1 0.9 0.2 4.5 2.7 0.6 0.9-0.3 0.6-1.3 1-0.3 0.5 0.3 0.7 0.7 0 1.2-0.4 0.7 0.3 1.7 0.9 0.6 0.1 1.1-0.4 0.6 0 0.5 0.3 1 0.9 0.6 0.2 0.6 0 1.9-0.7 1-0.1 2.1 0.2 1 0.3 0.8-0.1 0.8-0.9 1.4-2.2 0.2-0.3 0.6-0.2 0.3-0.3 0.1-0.5-0.1-0.8 0.1-0.4 1.1-2.6 0.6-3 0.5-1.1 3.8-3.8 1-0.6 4.1-1.3 4.1-0.7 2.1 0.4 1.8 0.9 1.8 0.1 2-1.9 0.5-0.7 0.5-0.4 0.6-0.1 1 0.2 0.4 0.3 0.3 0.3 0.3 0.4 0.5 0.3 0.6 0.1 0.5-0.1 0.6-0.3 1.7-0.5 1.4-0.1 3 0.6 0.1 0 0.4 0 0.5 0 1.1 0.1 1.9 1.4 1.1 0.4 0.7-0.1 1.1-1 0.7-0.4 2.6-0.4 2.1-1.6 2.5-1.4 2.5-0.9 4.2-0.2 6-3.1 1-0.2 2.7-0.5 1.4 0.4 0 1.1 0 1.2-1.3 1.7-3.5 2-0.6 1.5 0.4 0.8 0.2 1 0.4 2 0.4 1 0.4 0.8 0 0.8-0.9 0.8 0.6 0.3 1.4 0.2 0.6 0.4 0.7 0.6 0.3 0.6 0.4 0.4 0.8 0.3 2.5 0.1 0.9 0.6 0.5 1.9 0 1-0.1 0.7-0.2 0.6-0.2 0.9 0 1.2 0.1 0.5 0.4 0.4 0.5 0.4 1.3 0.4 1.2 0.2 0.9 0.6 0.6 1.9 1.1 2.8 2 1.8 2.4 0.9 1.4 0.3z" id="IT32" name="Trentino-Alto Adige">
  </path>
  <path d="M494.7 80.6l1.8 0.3 1.8 1.2 1 0.5 0.8 0.1 3.4-0.5 2.9 0.3 0.1 0.1 0.5 0.2 1.1 0.8 0.5 0.2 0.5 0 1-0.3 0.4-0.1 0.6 0.2 0.3 4 0.4 1.8 0 1.1-0.1 0.8 0.1 0.7-0.1 0.4-0.1 0.3-3.9 0.6-0.6 0.2-0.5 0.2-0.2 0.2-0.3 0.3-1 1.2-0.3 0.5 0 0.4 0.2 0.3 0.2 0.1 0.3 0.2 0.3 0.1 0.5 0.2 0.2 0.3 0.1 0.5 0 0.7-0.2 0.4-0.2 0.1-0.3-0.1-0.5-0.3-0.7-0.1-2.8 0-2.4 0.5-1.3 0.7-0.3 0.3-0.2 0.3-0.8 1.7-0.4 1.5-0.2 0.6-1.9 3.5-1.2 1.6-0.4 0.5-3.1 1.5-0.8 0.7-0.6 0.7-1 1.3-0.3 0.7-0.1 0.4 0 0.2 0.2 0.6 0.2 0.2 0.9 1.1 1.4 1.2 0.3 0.2 0.3 0.1 1.3 0 0.3 0.1 0.1 0.2 0.2 0.3 0.1 0.3 0.1 0.2 0.2 0.2 0.3 0 0.6 0 0.3 0.2 0.2 0.2 0.1 0.7 0.1 1.2 0.1 0.3 0.1 0.2 0.2 0.2 0.4 0.4 1.1 0.8 0.2 0.5 0.2 0.8 0.2 1.6 0 0.9 0 0.5-0.2 0.4-0.1 0.2-0.1 0.2-0.5 0.4-0.4 0.2-1.5 0.5-0.2 0.1-0.2 0.2-0.2 0.2-0.2 0.2-0.1 0.3-0.2 0.6-0.3 0.6-0.7 1 0.2 0.7 0.1 0 0.6 2.2 0.4 1.6 0.2 2.6 0.2 0.6 0.3 0.3 0.6 0.2 0.3 0.1 0.3 0.2 1.2 1.4 0.2 0.1 0.9 0.3 0.6 0.4 0.2 0.3 0.1 0.4 0.1 0.4 0.2 0.7 1.5 4 0.1 0.7 0.2 0.4 0.3 0.3 2 1 0.3 0.1 0.3-0.1 0.7-0.4 0.3-0.1 0.2 0 0.3 0.1 0.3 0.2 1 0.9 0.3 0.3 0.4 1.1 1 0.1 0.5-0.2 2-2 0.4-0.4 0.5-0.2 1-0.2 0.3-0.2 0.3-0.3 0.2-0.4 0.3-0.5 0.2-0.2 0.3-0.1 0.5 0.3 0.4 0.3 0.2 0.2 0.1 0.2 0.1 0.3 0 0.3 0 0.3 0.1 0.2 0.2 0.3 0.4 0.3 0.3 0 0.2-0.2 0.2-0.3 0.2-0.3 0.2-0.4 0.6-0.5 0.5-0.2 0.4 0 0.3 0.1 0.3 0.1 0.2 0.2 0.1 0.2 0.1 0.3-0.1 0.3 0.2 0.3 0.3 0.3 2.7 0.5 0.4 0 0.3-0.1 0.1-0.2 0.5-0.9 0.6-0.7 1.2 0.7 0.4 0.7 0 0.2-0.2 0.9 0.1 0.9 0.1 1 0 0.4 0.1 0.3 1.4 1.9 0.2 0.4 0.1 0.3-0.1 0.1 0 0.6 0.2 0.4 0.3 0.4 0.6 0.7 0.2 0.5 1.4 3.7 0.3 0.8 0.9 1.1-0.6 0.8-1.4 0.5-4.7 0.1-2.2 0.6-9.6 6.2-9.9 4.8-5.8 2.2-1 0.8-0.4 0.3-2.2 0.6-1.6 1-0.8 0.2 0.5-1.3 0.6-1.1 0.4-0.9-0.3-0.7 0.6 0 0.4-0.1 0.2-0.4 0-0.7 0.4 0 0.3 0.7 0.2 0.3 0.3 0 0.4-0.4-0.8-1.1 0.7 0 0.6 0 0.6-0.2 0.1 0.2 0.1-0.2 0.2 0.3 0.1 0.3 0.1 0.1-0.2 0-0.6 0 0 0.6 1.3-0.2 0.3-1 0-1.2 0.6-0.5 1-0.1 0.8-0.4 0.7-0.7 0.5-1.1-0.7 0.3-1.5 1.1-0.4 0-1.1-1.2-0.5-0.7-0.2-1.2-1.3 0.7-1.6 1.4-0.9 1.5 0.5 1 0 0.5-0.9 0-1-0.9-0.5 0.4-0.4 0-0.4-1.8-0.7 1.4 0.3 0.8 2 0.8 0 0.5-0.7 0.4-1.1 0.1-0.7-0.2 0.1-0.8-1.9-0.1-2.4 1.4-2.2 2.1-1.1 2.3 0 0.5 0.3 0-0.5 0.8-0.2 0.7 0.1 0.8 0.6 0.6-0.5 0.8-0.1 0.6 0 0.6-0.2 0.8-0.4 0.3-0.6 0-0.2 0.3 0.5 1.1-0.7 1.2-0.3 0.9-0.4 0.6-1.3 0.2-0.7-0.3-0.7-0.5-0.5 0.2-0.3 1.8 0.6 0.7 0.6 1.8 0.6 0.3 0.7-0.4 0.4-1 0.2-1.1-0.3-0.9 1.2 0.4 0.2 0.9 0 1.2 0.2 1.5-0.6 0.3-0.2 0.4 0.3 0.5 0.5 0.5-0.2 1.2 0.6 1 1 0.6 1.1 0-0.2-0.3-0.1 0-0.2-0.2 0.9-0.6 1.3-1.4 0.7-0.3-0.6 1.3 0.4 1.2 0.6 1.2 0.4 1.2 0 0.6 0 2.2 0.4 3.1-0.6-0.2-0.6-0.4 0-0.5 0-0.8 0-0.4-0.6 1.9 0 1.4 0.5 0.9 1.3-0.2-0.2-0.3-0.1-0.2-0.1-0.6 1.1 1 0.8 1.2 0.6 1.3 0.7 1 0 0.6-0.4 0.1-0.3 0.1-0.2 0.2-0.3 0.2 0.8 1.2 0.8-1.3 0.2-1-0.3-1-0.7-1.3 0.8 0.8 1.1 0.5 0.7 0.6-0.2 0.9 1 1 0.4 0.4 0.6 0.4 1.2 1.5 1.3 1.3 0.7-0.6-0.2 0-0.4 0.1-0.1-0.1 0-0.6 0.9 0 0.9 0.3 0.6 0.6 0.4 0.9-0.1 0.7-0.6 0.9 0.3 0.6-0.5 0.8-0.2 0.4-0.2 0.5-0.3 0-0.5 0.1-0.2 0.9-0.1 2.7-0.4 1.3-0.7 1.4-1.8 2-0.1-0.3-0.2-0.8-0.4-1-0.5-0.7 0.9-1.9 0.2-1-0.2-0.9-0.7-0.3-0.7 0.4-0.5 0.7-0.2 0.5-0.7 1.4 0 0.8 1.5 0.6-0.1 0.6-0.4 0.6-0.7 0.3 0 0.5 0.4 0.1 0.8 0.4 0.4 0-0.4 1.5-1.1 0.8-0.3 0-1.7-1.3-0.8-0.7-0.2-0.3-0.1-0.2 0-0.3-0.1-0.8 0-0.3-0.1-0.2-0.1-0.3-0.2-0.2-0.2-0.2-0.4-0.1-1.3-0.5-0.4-0.2-0.2-0.3-0.1-0.3-0.1-0.3-0.1-0.6-0.1-0.9-0.2-0.9 0-0.3 0-0.3 0.1-0.3 0.1-0.3 0.3-0.5 0.1-0.2 0-0.3-0.1-0.2-0.1-0.3-0.2-0.2-0.4 0-0.5 0-1.6 0.3-0.3 0.1-0.2 0.2-0.2 0.1-0.1 0.1-0.5 0-1.8-0.4-1-0.5-0.3 0-0.4 0.2-0.4 0.1-0.5 0-0.7-0.3-0.4-0.2-0.2-0.3-0.3-0.9-0.1-0.2-0.2-0.2-0.6-0.5-1-0.5-5.7-1.1-0.3-0.1-0.4 0-0.6 0-2.2 0.6-0.5 0-0.7-0.2-0.9-0.1-1.5-0.3-2.8 0.6-1.4 0-0.3 0.2-0.3 0.8-0.2 0.2-1 0-0.6 0.2-0.6 0.4-0.5 0.6-0.2 0.9-1 0.5-2.4 0.8-1.3 1.4-0.8 0.6-1.1 0.3-0.9-0.3-3.1-2.6-1.7-0.8-0.9-0.3-1.2 0-2.3 0.5-1.1-0.1-0.6-1-0.1-1.4-0.8-0.4-1-0.1-4.9-3.3-1.9-1.7 0-2.2-3.5 0.1-1-0.4-0.1-0.1-0.2-1.9 0-0.3 0.1-0.2 0.2-0.2 0.8-0.7-0.3-0.7-1.8-0.5-0.7-0.1-0.4 0.1-0.2 0.2-0.4 0.1-0.4 0.2-1.7 0.2-0.2 0.1-0.2 0.2-0.3 0.3-0.4 0.3-0.4 0.1-0.4-0.1-0.4-0.2-0.3-0.3-0.7-0.9-0.2-0.2-0.1-0.3 0-0.3 0-0.3 0.1-0.3 0.3-0.5 0-0.3 0-0.3-0.3-0.4-0.3-0.2-0.3 0-0.8 0.1-0.8 0.1-0.3-0.2-0.3-0.1-0.1-0.2 0-0.1-0.1-0.3 0.1-0.3 0-0.2 0.2-0.5 0.1-0.2 0-0.3-0.1-0.3-0.2-0.3-0.4-0.5-0.3-0.3-0.5-0.3-2-0.7-5.7-4.5-0.1-0.2-0.4-0.8-0.2-0.5-1.9-1.8-0.5-0.4-0.5-0.1-0.3 0.1-0.2 0.2-0.2 0.4-0.2 0.2-0.3 0.2-0.3 0.2-0.3-0.1-0.2-0.2-0.1-0.2-0.2-0.6-0.1-0.4-0.3-0.4-0.4-0.2-0.3 0-0.6 0.2-1.2-0.4 0.5-0.7 0-2.1 0.7-0.6 0-0.5-0.8-0.5-0.2-0.7 0.2-1.7-0.2-1.7-0.8-0.1-1.5 0.4-0.1 0-0.6-0.9-0.3-0.9-0.1-0.6 0-0.5 0.2-0.5 0.2-0.1 0-3.1-0.6-5.5 0.1-2.3 0.1-1.6 6-9 0.9-1 1.3-2.3 0.8-2.2 0.3-0.5 2.5-3.8 2.3 1.4 0.3 0.4 0.3 0.5 0.1 0.6 0.2 0.8 0 0.5 0 0.3-0.2 0.3-0.8 0.8-0.1 0.2-0.1 0.3-0.1 0.3-0.1 0.3 0 0.3-0.3 1.7 0 0.7 0.1 0.4 0.3 0.1 0.6-0.1 0.4 0.3 0.5 0.5 0.8 1.3 0.5 0.5 0.4 0.4 0.3 0 0.3-0.1 0.2-0.1 0.2-0.2 0.3-0.5 0.2-0.2 0.3 0 1 0.2 0.2 0 0.2-0.2 0.2-0.1 0.2-0.3 0.8-1.1 0.3-0.2 0.3 0 0.7 0.2 0.4 0.1 0.4 0 0.6-0.1 0.3 0 0.3 0 2.9 1 1.1 0.1 1-0.9 2.1-3.7 0.1-0.3 0-0.3-0.2-1 0-0.4 0.1-0.3 0.3-0.2 0.6-0.4 0.1-0.2 0.1-0.3-0.2-0.6 0-0.5 0.1-0.3 3.3-6.1 0.5-1.1 0.3-1 0.2-0.5 0.2-0.4 1-0.6 0.7-0.8 0.2-0.1 0.3-0.2 0.2 0 0.3 0.1 0.1 0.2 0.1 0.2 0.2 0.2 0.2 0.2 0.4 0.4 0.3 0.1 0.3 0.1 0.5-0.1 0.2-0.3 0.4-0.7 0.4-0.4 0.4-0.4 0.1-0.4-0.1-0.2-0.2-0.6 0-0.3 0-0.5 0.2-0.6 0.2-0.3 0.3-0.2 1.4-0.2 1.4-0.4 2.7-1.8 0.5-0.3 2.7-0.3 0.8 0.1 0.3 0 0.3 0.1 0.2 0.1 0.3 0.2 0.3 0.4 0.4 0.4 0 0.1 0.4 1.1 0.1 0.2 0.2 0.2 0.2 0.2 0.2 0.2 0.6 0.2 1.4 0.1 0.9-0.1 1.9-0.8-0.3-1.7 0.2-2.2 0.2-0.6 0.2-0.4 0.5-0.5 0.3-0.4 0.1-0.4 0-0.3-0.3-0.7 0-0.5-0.1-1 0.2-0.6 0.3-0.4 0.3-0.1 1.8-0.4 3.3 0 0.6-0.1 0.6-0.2 1.2-0.8 2.6-0.8 0.7-0.4 0.3-0.3 0.2-0.4 0.3-0.5 1.3-1.9 0.4-0.4 0.3-0.3 0.8-0.3 0.5-0.4 0.2-0.3 0.1-0.3-0.1-0.3-0.2-0.2-0.2-0.2-1.8-1-0.4-0.4-0.2-0.2-0.1-0.2-0.1-0.5 0.1-0.5 0.4-1.4-0.1-0.1-0.1-0.1-0.2-0.1-0.6-0.3-0.2-0.1-0.2-0.2-0.2-0.6-0.2-0.2-0.2-0.1-0.3-0.1-1.4 0.1-0.4-0.1-0.2-0.1-0.2-0.3-0.1-0.4 0.1-1.4-0.1-0.5-0.1-0.3-0.1-0.2-0.3-0.5-2.2-2.4-0.1-0.3-0.1-0.4-0.1-0.6 0.1-0.3 0.2-0.2 1.1-0.8 0.3-0.2 0.9-0.1 0.3-0.2 0.2-0.3 0.3-2.5 0.1-0.7 0.2-0.4 0.1-0.2 0.2-0.3 0.4-0.3 0.6-0.4 0.3-0.2 0.3-0.6 0.1-0.4 0-0.3-0.1-0.3-0.1-0.2-0.2-0.2-0.4-0.4-0.6-0.2-1.6-0.4-0.6-0.4-0.1-1.8 1.2-0.8 9-1.8 0.9-0.4 0.2-0.2 0.2-0.2 0.1-0.3 0.1-0.2 0.1-0.4 0.2-1 0.1-0.4 0.2-0.3 0.8-1 0.5-1.1 0.4-1.2 0.4-1.2 0.1-0.7 0.1-1.2 0-0.4 0.2-0.5 0.3-0.5 0.3-0.2 0.3 0.1 2.3 2 0.5 0.3 1.3 0.2 0.3 0.1 0.2 0.2 1.3 2.2 0.1 0.2 0.1 0.7 0.3 0.3 0.3-0.1 1.4-0.8 0.9-0.5 2.9-0.3 0.6-0.2 0.6-0.3 0.6-0.5 0.4-0.1 0.4-0.1 0.3 0.1 0.3 0.2 0.2 0.2 0.3 0.2 0.3 0.1 0.7 0.1 0.3-0.1 0.3-0.2 0-0.3-0.1-0.6 0.2-0.3 0.3-0.3 1.1-0.6 0.3-0.3 0.2-0.2 0.3-0.5 0.7-0.6 1.5-0.9z m-3 106.1l-0.8-0.2-1.7 0-3.2 6.2-0.1-0.5 0.5-1.5 1.4-2.8 1.2-1.6 1-0.7 1 0.2 1.4 1.3-0.7-0.4z m-4.8-0.6l-0.9-0.2-0.3-1.1 0.8-1.3 1 0 1 0.7-0.1 1-0.6 0.3-0.9 0.6z" id="IT34" name="Veneto">
  </path>
  <path d="M511.1 83.6l1.4 0.5 3.4 2.1 13.7 1 4.8 1.1 3.7 2.3 1.3 0.5 2.3 0.2 6-1.3 2.6 0.4 3.5-0.2 0.4 0.1 0.9 1 0.4 0.3 2.5 0.1 7.1 2.3 0.9 0.1 0.9-0.2 0 0.7-0.1 0.6-0.2 0.5-0.3 0.5-0.1 2.1-0.2 0.4-0.5 1-1.1 0.6-1.4-0.1-2 0.3-1.4 1.3-1.3 1.8-1.4 1.5-2.7 1.5-1.4 1-0.8 0.3-0.7 0.1-0.7 0.8-0.8 1.8-0.8 1.4-0.2 0.5-1.6 0.9 0.5 0.9 0.3 1 0.4 2.1 0.8 1.1 0.2 1.2 0.5 0.7 1.6-0.2-0.9-1.5 0.9 0.3 1.8 0.1 0.8 0.5 1.6 0.3 1.1 0.8 1.8 1.7 1.5 0.3 1.7-0.2 0.8 0.1 0.6 0.1 0.2 0.8 0.2 0.8-1.6 3.1-5.5 4.2-1.1 0.8-1.3 1.8 0.5 0.5 0.1 0.6-0.2 0.5-0.4 0.6-0.3 0.2-0.9 0.9 0.8 0.9 0.2 0.2 0.1 0 0 0.1 0.1 0.1 0 0.1 1.6 1.8 1.7-0.1 1.9-0.9 1.7-0.4 0.3-0.1 1 1.6-0.4 1.8-0.4 1.6-0.5 1.2-1.8 4-0.2 2.9 0.5 1 0.4 0.8 0.4 0.2 1.2 0.7 2.1 0.2 0.9 0.3 2.4 1.8 0.5 0.5 4.1 1.8 4.6 7.9 0.7 0.7 0.9 0.5 0.5 0 0 0.1 0.1 0.2-0.5 1.1-1.1 1.4-1.2 1.4-2.7 0.3-2.4-1.2-1.1 0.1-1.8 0.1 0.5-0.6 0.6-1 1.6-0.1 1.8 0.2 1.2-0.3-0.7-0.2-0.6-0.6-0.5-0.9-2.2-1.2 1-0.5-0.2-1.4-0.8-1.6-0.8-1.1-4.6-4.9-1.1-0.8-2.7-1.2-0.5-0.3-1.4-0.2-1 0.9-0.6 1.8 0.3 1.7 1.6 0.2-2.2 1.1-0.3 0.3-0.3 0.5-1.6 0.4-0.7 0.3-1 1.1-1.4 1-1.5 0.5-1.5-0.6 0.8-0.2 1.1-0.5 0.9-0.6 0.4-0.7-0.5-1.5-2.4-0.5-0.7-1.2-1.1 0.4-5.6-1.3-0.6-0.3-1.4-1.4-0.4-0.3-0.6 0.1-2.1 0.8-0.6 1.2-0.5 0.2-0.6-0.3-0.5-1.1-0.7-0.3-0.5 0.4-0.2 0.8 0.3 0.8 0.6 0.3 0 0.6-1.3 0.1-1.2 0.7-0.6 1.2 0.3 1.4 1 0.7 1.2-0.2 2.2-1.1-0.7 1.3-2.1 1.7-0.4 1.4-0.9-1.1-0.3-0.8-1.4-3.7-0.2-0.5-0.6-0.7-0.3-0.4-0.2-0.4 0-0.6 0.1-0.1-0.1-0.3-0.2-0.4-1.4-1.9-0.1-0.3 0-0.4-0.1-1-0.1-0.9 0.2-0.9 0-0.2-0.4-0.7-1.2-0.7-0.6 0.7-0.5 0.9-0.1 0.2-0.3 0.1-0.4 0-2.7-0.5-0.3-0.3-0.2-0.3 0.1-0.3-0.1-0.3-0.1-0.2-0.2-0.2-0.3-0.1-0.3-0.1-0.4 0-0.5 0.2-0.6 0.5-0.2 0.4-0.2 0.3-0.2 0.3-0.2 0.2-0.3 0-0.4-0.3-0.2-0.3-0.1-0.2 0-0.3 0-0.3-0.1-0.3-0.1-0.2-0.2-0.2-0.4-0.3-0.5-0.3-0.3 0.1-0.2 0.2-0.3 0.5-0.2 0.4-0.3 0.3-0.3 0.2-1 0.2-0.5 0.2-0.4 0.4-2 2-0.5 0.2-1-0.1-0.4-1.1-0.3-0.3-1-0.9-0.3-0.2-0.3-0.1-0.2 0-0.3 0.1-0.7 0.4-0.3 0.1-0.3-0.1-2-1-0.3-0.3-0.2-0.4-0.1-0.7-1.5-4-0.2-0.7-0.1-0.4-0.1-0.4-0.2-0.3-0.6-0.4-0.9-0.3-0.2-0.1-1.2-1.4-0.3-0.2-0.3-0.1-0.6-0.2-0.3-0.3-0.2-0.6-0.2-2.6-0.4-1.6-0.6-2.2-0.1 0-0.2-0.7 0.7-1 0.3-0.6 0.2-0.6 0.1-0.3 0.2-0.2 0.2-0.2 0.2-0.2 0.2-0.1 1.5-0.5 0.4-0.2 0.5-0.4 0.1-0.2 0.1-0.2 0.2-0.4 0-0.5 0-0.9-0.2-1.6-0.2-0.8-0.2-0.5-1.1-0.8-0.4-0.4-0.2-0.2-0.1-0.2-0.1-0.3-0.1-1.2-0.1-0.7-0.2-0.2-0.3-0.2-0.6 0-0.3 0-0.2-0.2-0.1-0.2-0.1-0.3-0.2-0.3-0.1-0.2-0.3-0.1-1.3 0-0.3-0.1-0.3-0.2-1.4-1.2-0.9-1.1-0.2-0.2-0.2-0.6 0-0.2 0.1-0.4 0.3-0.7 1-1.3 0.6-0.7 0.8-0.7 3.1-1.5 0.4-0.5 1.2-1.6 1.9-3.5 0.2-0.6 0.4-1.5 0.8-1.7 0.2-0.3 0.3-0.3 1.3-0.7 2.4-0.5 2.8 0 0.7 0.1 0.5 0.3 0.3 0.1 0.2-0.1 0.2-0.4 0-0.7-0.1-0.5-0.2-0.3-0.5-0.2-0.3-0.1-0.3-0.2-0.2-0.1-0.2-0.3 0-0.4 0.3-0.5 1-1.2 0.3-0.3 0.2-0.2 0.5-0.2 0.6-0.2 3.9-0.6 0.1-0.3 0.1-0.4-0.1-0.7 0.1-0.8 0-1.1-0.4-1.8-0.3-4z" id="IT36" name="Friuli Venezia Giulia">
  </path>
  <path d="M435 434.7l-1.8-1-1.5-0.5 0-0.6-0.5-0.3-0.6-0.2-0.7-0.1-0.6 0.1 0.4 0.5-1.7 0-4.3-1.6-0.8-0.1-1.1 0-0.9 0.3-0.4 0.6-0.2 1.2-0.9 1.3-0.1 1-0.6-0.2-0.5 0-0.5 0.1-0.1 0.1-0.4-0.4-0.8-1-1.6-0.5-0.8-1-0.4-1.2 0-0.9 0.7-1 0.8-0.3 1.7 0.6 1.3-0.1 0.9-1.3 0.6-1.9 0-2-0.1-1.2-1.3-2.1-0.4-1.4-0.6 0.1-0.7 0.3-0.5 0.1-0.7-1.1-0.5-1.5-0.6-1.3-1-0.5-0.1-1.5-1.5-1.2-2.8-1.7-0.3-0.9-0.3-1.3-0.3-1.1-0.5-0.5-0.5-0.3-1.7-1.9-3.1-1.6-9.4-3.3 1.5-1.1 0.5-1.3 0.1-1.5 0-1.9 0.1-0.5 0.4-0.4 0.2-0.5-0.3-1.1-0.6-0.8-0.7-0.5-2.7-1.3-1.4-0.6-2.9-0.8-2.8-0.1-2.6 0.9 0.2 0.8 0.2 0.3-1.6 0.8-1.2-1.3-1.2-3.9 1.4-1.3 0.9-1.4 1.3-4.5-0.2-1 0-1.7 0.2-1.7 0.4-1-0.5-1.4-0.2-1.7-0.1-3.3-0.3-1.7-0.6-1.6-4.7-9.8-3.8-5.2-0.8-1-1.9-0.9-0.5-1.3-1.4-6.1 0-0.9-1.8-18.7-0.1-0.5-0.6-2.5-2.4-6-1.8-2.8-2.1-1.7-0.4-0.2-1.8-3.1-0.9-0.8-1.1-0.3-2.2-1.5-0.4-0.1 0-0.1 0.1-0.4 0.2-0.5 0.2-0.4 0.4-0.8 0.5-0.7 0.1-0.2 0.2-0.3 0-0.3-0.2-0.4-0.5-0.4-1.1-0.8-0.6-0.2-0.4-0.1-0.5 0.2-0.4 0-0.2-0.2-0.3-0.3-0.2-0.8-0.1-0.5 0-0.4 0.1-0.3 0-0.3-0.1-0.3-0.3-0.3-0.4-0.2-0.8-0.4-0.5-0.1-0.5 0-1 0.2-0.6 0-0.6-0.2-0.1-0.1-0.1-0.2 0.1-0.4 0.1-0.3 0.4-0.8 0.1-0.3-0.1-0.4-0.3-0.3-0.7-0.4-0.3 0-0.3 0.2-0.5 1-0.1 0.2-0.2 0.2-0.3-0.1-0.1-0.2-0.1-0.4 0.1-0.7 0-0.3 0-0.3-0.3-1.6-0.1-0.3 0.1-0.3 0-0.4 0-0.3 0-0.4-0.1-0.2-0.4-0.4-0.5-0.4-5-3.6-2.1-2-1.5-2.2-0.2-0.5 0-0.3 0.1-0.3 0.2-0.2 0.2-0.1 0.2-0.2 1-0.1 1.6-0.6 0.3-0.2 0.2-0.1 0.1-0.3 0.2-0.9 0.2-0.2 0.1-0.3 0.9-1.3 1.4-1.6 1.1-1.6 0.9-1 0.5-0.2 0.5-0.3 0.4 0 0.4 0 1.8 0.3 2.3 0.7 3.2 1.8 0.2 0.3 0.2 0.3 0.3 0.7-0.1 0.4 0 0.2-0.6 0.3-0.2 0.2-0.1 0.3 0 0.2 0.3 0.6 3.6 3 0.1 0.2 0.4 0.5 0.7 0.7 0.8 0.3 2.1 0 0.8 0.6 2 1.2 1.1 0.4 0.3 0.1 0.3 0.2 0.3 0.3 0.6 1.5 0.2 0.3 0.7 0.9 1.2 1 0.2-0.1 0.6-0.1 1.4-0.9 0.5 0 3.2 0.6 0.5 0.3 0.7 0.7 1.5 2.1 0.2 0.1 1 0.4 3.2 0.6 0.3 0.9 0.1 1.1 0 0.3 0.1 0.3 0.1 0.2 0.1 0.3 1.9 2 0.4 0.5 2.8 2.5 0.7 0.2 1.7-0.2 0.3-0.5 0.3-0.4 0.4-0.8 0.1-0.3 0.2-0.2 0.2-0.1 0.5-0.3 0.3-0.1 3.3-0.3 1.6 0.6 3.9 3 0.9 0.4 1.1 0.4 0.6 0.5 0.2 0.2 0.1 0.2 0.3 0.2 1.3 0.5 0.2 0.2 0.5 0.6 0.5 0.3 1 0.5 0.3 0.1 0.2 0 2.3-2.8 0.5-1 0.2-0.2 0.5-0.6 0.1-0.2 0.1-0.1 0.1-0.2 0-0.3 0.1-0.3 0.1-0.2 0.5-0.1 0.3 0 0.3 0.1 0.3 0.2 0.1 0.3-0.1 0.5-0.2 0.2-0.4 0.5-0.1 0.2-0.1 0.3 0.2 0.4 0.2 0.3 1.9 1 0.4 0 8.8-1.1 0.1 0.1 0.9 0.1 0.9 0 0.9-0.3 0.5-0.4 0.1-0.3 0-0.3-0.2-0.2-0.3-0.1-1.9-0.8-0.5-0.3-0.2-0.2-0.2-0.2-0.1-0.2-0.1-0.3 0-0.3 0.1-0.2 0.1-0.3 0.2-0.1 4.6-0.8 0.6-0.2 1.8-2 0.3-0.4 0.1-0.1 0.1-0.2 0.2-0.3 0.5-0.1 1.1 0 0.5-0.1 0.3-0.2 0.2-0.2 0.5-1 0.1-0.3 0.2-0.2 0.3-0.1 0.3-0.1 0.6 0.1 0.3 0.1 0.8 0.5 0.2 0.2 0.3 0.3 0.2 0.7 0.4 0.6 2 2.5 0.7 0.6 1.2 0.4 0.6 0 1.4-0.1 0.3-0.1 0.4-0.2 0.1-0.2 0.2-0.2 0.2-0.2 0.5 0.1 0.5 0.2 0.9 0.6 0.3 0.5 0.1 0.4-0.1 0.2-0.2 0.2-0.7 0.7-0.2 0.3-0.1 0.2 0 0.3 0.3 0.2 0.6 0.3 1.8 0.4 0.6 0 0.5-0.1 1.5-0.7 0.8-0.2 1.6-0.1 0.2 0 0.5-0.1 0.3 0 0.3 0.1 0.2 0.1 0.1 0.3 0 0.4-0.3 0.7-0.2 0.4-0.5 1-0.2 1.1-0.2 0.6-0.2 0.4-1 1.4-0.3 0.9-0.1 0.3-0.6 0.9-0.2 0.2-0.3 0.1-1 0.1-0.2 0.1-0.2 0.3-0.1 0.4 0 1.1-0.1 0.3 0.1 0.4 0.1 0.3 0.4 0.5 1.4 1.2 0.1 0.3 0.1 0.4-0.1 1.1 0 0.4 0.1 0.3 0.5 0.3 0.3 0.2 0.3 0.4 0.2 0.4 0 2.8 0.4 0.5 0.3 0.2 0.7 0.6 3 1.7 0.3 0.3 0.5 0.7 0.7 0.7 0.2 0.2 0.4 0.2 0.6 0.1 2.6 0.3 0.6 0.1 2 1 1 0.7 1.1 1.1 0.8 0.7 5.8 1.5 0.8 0 1.2-0.4 0.8-0.3 0.6-0.1 0.3 0 0.6 0.1 0.6 0.3 0.4 0.3 0.8 0.7 0.2 0.2 0.3 0.1 0.3 0 0.3 0 0.2-0.2 0.2-0.2 0.6-0.9 0.2-0.1 0.2-0.2 0.3-0.1 0.3 0 1.2 0.2 0.3 0 0.3-0.1 0.5-0.6 0.3-0.1 0.3 0 0.3 0 0.2 0.1 0.2 0.1 0.3 0.2 0.9 0.7 3 2.9 0 0.4-0.2 0.5-0.8 1.2-0.4 0.6-0.3 0.4-0.2 0.1-0.3-0.2-0.2-0.3-0.2-0.3-0.2-2.5-0.1-0.3-0.1-0.2-0.2 0.1-0.3 0.4-0.4 1-0.3 1.1-0.2 0.4-0.3 0.3-0.5 0.3-1.1 0.2-0.3 0.3-1 1.1-0.5 0.4-0.3 0.2-0.8 0.3-0.3 0.1-0.1 0.4 0 0.3 0.7 2.3-3 5.5-1 1.4-0.3 0-0.7 0.1-0.5 0.2-0.6 0.4-0.2 0.3-0.1 0.4 0.1 0.2 0.2 0.2 0.2 0.2 1 0.5 0.4 0.3 0.2 0.3 0.1 0.3 0 0.6-0.1 0.3-0.3 0.3-0.5 0.1-0.4 0.3-0.5 0.4-1.2 1.4-0.3 0.3-0.3 0.1-0.4 0.1-0.5 0.3-0.8 0.8-0.3 0.5-0.1 0.4 0.2 0.2 0.2 0.1 0.3 0.1 1.2-0.1 0.3 0.1 0.1 0.3 0 0.5-0.1 1.3 0 0.4 0.1 0.3 0.1 0.2 0.2 0.2 2.3 0.7 0.5 0.3 0.2 0.1 0.2 0.6 0 0.8 0 1.9 0.1 0.8 0.1 0.6 0.2 0.1 0.6 0.2 0.3 0 0.6 0 0.3-0.1 0.2-0.1 0.2-0.2 0.1-0.3 0.4-0.8 0.1-0.2 0.2-0.1 0.3-0.1 0.2 0.1 0.3 0.3 0.2 0.4 0.3 0.7 0 0.5-0.1 0.3-0.8 0.7-2.5 1.6-0.2 0.1-0.3 0-1.3 0-0.3 0.1-0.2 0.1-0.2 0.2-0.4 0.4-0.4 0.3-0.3 0.1-0.2 0.1-0.4 0-0.5-0.1-1.6-0.8-0.4 0-0.4 0.1-0.4 0.4-0.3 0.3-0.1 0.3-0.4 2.5-0.1 0.5-0.1 0.4-0.2 0.3-0.5 0.5-0.3 0.2-0.2 0.1-1.6 0.5-0.5 0.3-0.2 0.2-0.5 0.5-1.3 2.4-0.3 1.2 0.1 0.4 0 0.3 0.1 0.3 0.1 0.2 0.1 0.5 0.1 0.6 0.1 1.4 0.1 0.7 0.2 0.4 0.3 0 0.2 0 0.2-0.2 0.3-0.4 0.2-0.2 0.3-0.1 0.3 0.1 0.3 0.3 0.4 0.9 0.1 0.5 0 0.5-0.1 1.4 0 0.4-0.1 0.3-0.2 0.5-0.1 0.2-0.6 0.9-0.4 0.8-0.4 1.8-0.3 0.9-0.4 2.3 0 0.6 0.1 0.4 0.5 0.3 0.2 0.3 0.3 0.4 0 0.4 0 0.3-0.1 0.3-0.1 0.3-0.1 0.3-0.2 0.2-0.3 0.4-0.4 0.3-2.5 1.7-2.8 1.1-0.5 0.3-1.4 1.5-0.4 0.2-0.3 0-0.4-0.4-0.3-0.2-0.6-0.2-0.3 0.1-0.2 0.1-0.8 0.8-0.1 0.2-0.2 0.6 1.6 1.4 0.2 0.3 0.3 0.5 0.2 0.9 0.2 0.4 0.4 0.3 0.5 0.4 0.1 0.3 0.1 0.3-0.1 0.3-0.2 0.5-0.3 0.5-0.1 0.2-0.2 0.2-0.2 0.5-0.2 0.9 0.2 2.3 0 0.9-0.1 0.7-0.3 0.1-0.2 0.1-0.9 0.1-0.3 0.1-0.2 0.1-0.1 0.1-0.1 0.2-0.1 0.2-0.5 1.2-0.2 0.3-0.2 0.3-0.4 0.3-0.4 0.3-1.1 0.3-0.2 0.2-0.3 0.3-0.8 1.2-0.1 0.2-0.2 0.1-0.2 0.2-3 1.3-0.2 0.1-0.2-0.1-0.5-0.6-0.2-0.1-0.4 0-0.4 0.2-0.2 0.3 0 0.3 0 0.3 0.1 0.3 0.1 0.3 0 0.4-0.2 0.6-0.8 0.8-0.3 0.4 0 0.3 0.1 0.2 0.2 0.2 1.7 1.3 0.3 0.4 0.2 0.2 0 0.4 0 0.6-0.1 1.2-0.1 0.6-0.2 0.4-0.2 0.2-0.2 0.1-0.3 0.1-5.4 0.7-0.3 0.1-0.3 0.1-0.5 0.4-0.3 0.3-0.1 0.3-1.2 3.5z m-33.8 0l0-1 0.4-0.4 0.8 0.4 1 0.9 0.8 1.8 0.2 1 0.6 0.8-1 0.9-0.8-0.5-2.2-2.3-0.6-1 0.8-0.6z m-27.4-30.5l1 1.3 0.3 1.5-0.9 1.1-0.2-0.8-0.5 0-0.6 0-0.7-0.3-0.2-0.5-0.6-1.4-0.2-0.3-0.8-0.5-0.7-0.7-0.8 0-0.7 1.7-0.5-1.3-2.3 1.2-1.2-1-0.3 1.2-0.3 0.5-0.3 0-4.8-0.1-1.3-0.5-1.1-1.1-0.3-2.1 0.6-1.4 1.2-0.9 1.5-0.4 1.3-0.1 0.6 0.1 1.3 0.8 0.7 0.2 1.1 0.1 1.3-0.1 0-0.4-0.1 0-0.3-0.2 0.8-0.5 0-0.6 0-0.1 1 0.1 2.2 0-0.3 1.2 0.7 0.4 0.8 0 0.4-0.2 0.2-0.7 0.5-0.4 0.5-0.4 0.4-0.4 0.6-2 0.5-0.9 0.7-0.4 0.6 0.2 0.5 0.5 0.5 0.8 0.3 0.8-0.5 0.5-0.3 0.9 0 0.9 0.4 0.9-0.4 1.4-0.6 0.9-0.8 0.6-1 0.4 1.1 0.5z m-35.3-24.8l1.1-0.6 0.9 0.7 0.1 0.2 0.1 0.2 0.2 0.2 0.4 1.1-0.7 1.6-1.1 1.3-1.3 0.1-1-1.7 1.3-3.1z m28.6 59l0.2-1.4 0.5-0.5 0.6 0.9-0.2 1.3-1.1-0.3z m-14.2-20.8l0.6-0.2 0.6-0.7 0.4-1.1 0.3 0 0.2 0.8 0.2 0.7 0.3 0.4 0.1 0.2 0 0.3-0.2 0.6-0.5 0.3-0.8 0-0.8-0.2-0.5-0.5 0.1-0.6z m124.3-97.8l0-0.3 0.4-1.1 0 0.1 0.4 0.2 2.4 0.3 0.4 0.2 0.2 0.1 0.1 0.1 0 0.1 0.1 0.1 0 0.1 0 0.3 0 0.1 0 0.1-0.1 0.1-0.2 0-0.5 0.2-1.4 1.1-0.2 0.1 0 0.1-0.5-0.2-0.5-0.5-0.3-0.6-0.3-0.7z" id="IT52" name="Tuscany">
  </path>
  <path d="M460.6 396.8l2.5-1.7 0.4-0.3 0.3-0.4 0.2-0.2 0.1-0.3 0.1-0.3 0.1-0.3 0-0.3 0-0.4-0.3-0.4-0.2-0.3-0.5-0.3-0.1-0.4 0-0.6 0.4-2.3 0.3-0.9 0.4-1.8 0.4-0.8 0.6-0.9 0.1-0.2 0.2-0.5 0.1-0.3 0-0.4 0.1-1.4 0-0.5-0.1-0.5-0.4-0.9-0.3-0.3-0.3-0.1-0.3 0.1-0.2 0.2-0.3 0.4-0.2 0.2-0.2 0-0.3 0-0.2-0.4-0.1-0.7-0.1-1.4-0.1-0.6-0.1-0.5-0.1-0.2-0.1-0.3 0-0.3-0.1-0.4 0.3-1.2 1.3-2.4 0.5-0.5 0.2-0.2 0.5-0.3 1.6-0.5 0.2-0.1 0.3-0.2 0.5-0.5 0.2-0.3 0.1-0.4 0.1-0.5 0.4-2.5 0.1-0.3 0.3-0.3 0.4-0.4 0.4-0.1 0.4 0 1.6 0.8 0.5 0.1 0.4 0 0.2-0.1 0.3-0.1 0.4-0.3 0.4-0.4 0.2-0.2 0.2-0.1 0.3-0.1 1.3 0 0.3 0 0.2-0.1 2.5-1.6 0.8-0.7 0.1-0.3 0-0.5-0.3-0.7-0.2-0.4-0.3-0.3-0.2-0.1-0.3 0.1-0.2 0.1-0.1 0.2-0.4 0.8-0.1 0.3-0.2 0.2-0.2 0.1-0.3 0.1-0.6 0-0.3 0-0.6-0.2-0.2-0.1-0.1-0.6-0.1-0.8 0-1.9 0-0.8-0.2-0.6-0.2-0.1-0.5-0.3-2.3-0.7-0.2-0.2-0.1-0.2-0.1-0.3 0-0.4 0.1-1.3 0-0.5-0.1-0.3-0.3-0.1-1.2 0.1-0.3-0.1-0.2-0.1-0.2-0.2 0.1-0.4 0.3-0.5 0.8-0.8 0.5-0.3 0.4-0.1 0.3-0.1 0.3-0.3 1.2-1.4 0.5-0.4 0.4-0.3 0.5-0.1 0.3-0.3 0.1-0.3 0-0.6-0.1-0.3-0.2-0.3-0.4-0.3-1-0.5-0.2-0.2-0.2-0.2-0.1-0.2 0.1-0.4 0.2-0.3 0.6-0.4 0.5-0.2 0.7-0.1 0.3 0 1-1.4 3-5.5 0.2 0.4 0.2 0.2 0.7 0.1 0.7 0 0.5 0.1 0.9 0.3 1.2 0.8 0.3 0.1 0.5-0.1 0.2-0.2 0.2-0.6 0.1-0.2 0.3-0.2 0.2-0.1 2.3-0.9 0.3 0 0.2 0 0.1 0.4 0 0.4-0.1 0.3-0.2 0.5-0.1 0.3 0 0.3 0.2 0.4 0 0.3 0 0.3-0.1 0.3-0.1 0.2-0.2 0.3-0.1 0.2-0.3 0.1-0.2 0.1-0.3 0-0.9-0.1-0.3-0.1-0.3 0.1-0.2 0.2-0.1 0.2 0 0.3 0.1 0.3 0.2 0.2 0.2 0.2 0.4 0.3 3.6 1.7 0.7 0.2 0.6-0.1 0.3-0.2 0.3-0.2 0.3-0.5 0.2-0.1 0.3-0.1 0.3-0.1 0.6 0.2 2.7 1.1 1.3 0.8 5.5 6.6 0.3 0.2 0.3-0.1 0.5-0.4 0.5-0.5 0.2-0.2 0.2 0 0.4 0 0.7 0.1 0.7 0.2 0.7 0.4 0.3 0.1 0.3-0.1 0.3-0.4 0.5-0.8 0.2-0.1 0.3-0.3 1.1-0.5 1.5-0.1 0 1.4 0 0.3-0.2 1.1 0 0.6 0 0.3-0.1 0.7-0.4 2 0 0.3 0.2 0.5 0.3 0.6 2 3.3 0.2 0.4 0.1 0.4 0.1 1.2-0.1 1.1 0.1 0.6 0.4 0.7 2.9 4.9 0 0.2 0.3 1.2 0 0.6 0 0.3 0 0.4-0.1 0.3 0 0.3-0.2 0.2-0.1 0.3-0.3 0.4-0.4 0.4-0.2 0.2 0 0.2 0 0.3 0.2 0.8 0.1 0.3 0.3 0.2 0.9 0.1 0.4 0.3 0.5 0.5 0.7 1.1 0.3 0.6 0.2 0.6-0.1 0.7-0.2 1.3 0 0.8 0.1 0.9 0.3 1 0 0.1 0 0.3 0 0.3-0.1 0.7 0 0.3 0 0.3 0.1 0.2 0.3 0.5 0.1 0.3 0 0.3 0 0.7 0.2 0.6 0.3 0.6 1 1.3 0.3 0.4 1.6 1 0.1 0.2 0.2 0.3 0 0.3 0.1 0.3 0 0.3 0 1.4 0 0.2 0.2 0.3 0.2 0.1 0.6-0.2 0.2-0.2 0.1-0.3 0-0.3-0.2-0.5-0.1-0.3 0-0.2 0.1-0.3 0.4-0.1 1.7 0.1 0.5-0.1 0.4-0.1 0.2-0.1 0.4 0.2 0.4 0.4 0.8 0.9 1.2 1 0.6 0.6 0.3 0.4 1.9 2.1 0.2 0.5 0.1 0.2 0.1 0.3 0.1 0.6 0.1 0.3 0.1 0.2 1-0.1 3.4-1.8 0.4 0.2 0.1 0.1 0.2 0.2 0.1 0.2 0.5 1 0.4 1 0.1 0.6 0 0.3 0 0.4 0 0.4-0.3 1.7-0.1 0.3-0.2 0.2-0.4 0.3-0.7 0.2-0.4 0-0.4-0.1-0.2-0.1-0.4 0.1-0.2 0.3-0.3 0.6 0 1.1-0.5 0.9-0.1 0.3 0 0.4 0 0.3 0.1 0.3 0.1 0.5 0.1 0.3 0 0.3-0.1 0.2-0.1 0.3-0.7 0.8-0.2 0.5-0.3 0.5-0.3 0.9-0.1 0.2-0.1 0.2-0.2 0.3-0.2 0.1-0.4 0.1-1-0.3-0.4 0-0.4 0.1-1 0.9-0.3 0.2-1.8 0.6-0.4 0-0.6-0.2-0.4-0.2-0.5-0.3-0.3 0-0.3 0-0.3 0.4-0.1 0.4-0.3 0.6-0.1 0.2-0.1 0.1-0.1 0.1-0.7 0.1-5-0.1-1.4 1.5-0.1 0.7 0.1 0.3 0.1 0.2 0.1 0.3 0 0.3-0.1 0.3-0.7 0.4-5.2 2.6-0.2 0.2-0.6 1.3-0.2 0.2-0.3 0.3-0.1 0.1-0.1 0-1.9 0.3-0.3 0.2 0 0.3 0 0.3 0.1 0.3 0.4 1 0.1 0.3 0 0.2 0 0.3-0.1 0.2-0.2 0.3-0.5 0.2-0.9 0.3-1.9 0.3-0.8 0-0.5-0.2-0.8-1.3-0.2-0.2-0.3-0.1-0.3 0.1-0.2 0.1-0.3 0.5 0 0.4 0.1 0.3 0.1 0.3 0 0.2 0.1 0.4-0.1 0.3-0.2 0.9-0.2 0.5-0.7 1.2-0.3 0.4-0.6 0.4-1.6 0.9-0.8 0.8-0.2 0.1-0.3-0.1-0.3-0.5-0.4-0.9-0.3-0.2-0.4-0.1-2.3 0.3-0.5-0.2-0.5 0.1-0.5-0.1-0.5-0.3 0.6-1.1 0.3-0.3 0.3-0.3 0-0.5-0.2-0.2-0.7-0.2-0.3-0.2-0.1-0.1-0.5 0.1-0.2 0 0-0.2 0.1-0.6-0.1-0.2-1.4-1.7-2.9-2.3-1.4-0.5-1.1 0.6-0.3-0.5-0.7-0.8-0.2-0.3-0.2-0.7-0.1-1.4-0.2-0.9 0.1-1.1-0.1-0.3-0.3 0-0.3 0.1-0.2-0.1-0.8-1.6 0.2-1.1-0.2-1.6-0.2-1.6-0.3-0.6-0.9-0.5-0.1-0.1-0.9 0-2.8-1.7-0.2 0-0.2 0.1-0.2 0.2-0.4 0.7-0.2 0.2-0.2 0.1-0.2 0.2-0.3 0-0.3 0-1.2-0.3-0.3 0-1.7 0.4-1.8 0.8-0.2 0-0.3 0-0.3-0.2-1.4-1.7-0.6-0.5-1.5-0.7-0.3-0.2-0.4-0.4-1-1.3-0.1-0.3-0.1-0.3 0.2-0.5 0.2-0.3 0.2-0.2 0.4-0.3 0.7-0.3 0.4-0.4 0.2-0.2 0.1-0.2 0.1-0.3 0.1-0.2 0.1-0.3 0-0.3-0.2-0.4-0.6-0.5-0.7-0.4-0.9-1.2-2.6-4.7z m30.8-59.9l-0.3-0.6 0-0.7 0.1-0.9 0.4-0.5 0.4-0.3 0.4 0 0.4 0.3 0.3 0.6 0.2 0.7-0.1 0.8-0.3 0.6-0.5 0.4-0.5 0-0.5-0.4z" id="IT55" name="Umbria">
  </path>
  <path d="M569.4 524.1l-1.3-1.1-0.7-0.3-1.8 0.4-0.9 0-0.4-0.7-3.6 0.5-1.8 1.2 0.7 2.3-1.9 0.2-0.6-0.2-0.5-0.5-0.3-0.8-0.3-0.3-0.5 0.6-0.4 0-1.1-1.4-9.2-4.3-2.2-0.1-4.8 0.9-1 0.5-2.1 1.4-2.2 0.7-1.4 1.9-1.3 0.4-1.4-0.5-0.4-1-0.2-1.3-0.6-1.3-0.7-1-1.1-2.2-0.8-1.2-3.3-3.9-1.7-1.5-1.9-1.1-1.2-0.4-3.9-0.2-0.7 0-0.8-0.2-4.2-2.7-1.4-0.6-0.7 0.6-0.4 0.8-0.9-0.9-4.4-6.6-5.7-6.8-6.1-5.6-1-0.7-1.5-0.5-0.9-0.8-0.5-0.2-1.8-0.3-0.4-0.2-0.9-1.1-0.5-1.4-0.2-1.5-0.1-1.6-0.3-1.6-0.6-1.5-1.5-2.6-1.3-1.9-5.7-4.4-0.7-0.4-0.5-0.6-0.2-1-0.4-0.6-1.6-0.3-0.6-0.2-0.8-1-0.9-0.8-1.1-0.8-1-0.5-4.6 0.2-0.7 0.1-0.3-1-0.7-1.5-1-1.4-0.8-0.7-0.4-1.1-1.3-1.7-0.3-0.7-0.1-1.2-0.2-0.6-0.2-0.7-3.2-6.6-1.4-2.2-7-5.5-2.9-0.8-2.2-1.2 1.2-3.5 0.1-0.3 0.3-0.3 0.5-0.4 0.3-0.1 0.3-0.1 5.4-0.7 0.3-0.1 0.2-0.1 0.2-0.2 0.2-0.4 0.1-0.6 0.1-1.2 0-0.6 0-0.4-0.2-0.2-0.3-0.4-1.7-1.3-0.2-0.2-0.1-0.2 0-0.3 0.3-0.4 0.8-0.8 0.2-0.6 0-0.4-0.1-0.3-0.1-0.3 0-0.3 0-0.3 0.2-0.3 0.4-0.2 0.4 0 0.2 0.1 0.5 0.6 0.2 0.1 0.2-0.1 3-1.3 0.2-0.2 0.2-0.1 0.1-0.2 0.8-1.2 0.3-0.3 0.2-0.2 1.1-0.3 0.4-0.3 0.4-0.3 0.2-0.3 0.2-0.3 0.5-1.2 0.1-0.2 0.1-0.2 0.1-0.1 0.2-0.1 0.3-0.1 0.9-0.1 0.2-0.1 0.3-0.1 0.1-0.7 0-0.9-0.2-2.3 0.2-0.9 0.2-0.5 0.2-0.2 0.1-0.2 0.3-0.5 0.2-0.5 0.1-0.3-0.1-0.3-0.1-0.3-0.5-0.4-0.4-0.3-0.2-0.4-0.2-0.9-0.3-0.5-0.2-0.3-1.6-1.4 0.2-0.6 0.1-0.2 0.8-0.8 0.2-0.1 0.3-0.1 0.6 0.2 0.3 0.2 0.4 0.4 0.3 0 0.4-0.2 1.4-1.5 0.5-0.3 2.8-1.1 2.6 4.7 0.9 1.2 0.7 0.4 0.6 0.5 0.2 0.4 0 0.3-0.1 0.3-0.1 0.2-0.1 0.3-0.1 0.2-0.2 0.2-0.4 0.4-0.7 0.3-0.4 0.3-0.2 0.2-0.2 0.3-0.2 0.5 0.1 0.3 0.1 0.3 1 1.3 0.4 0.4 0.3 0.2 1.5 0.7 0.6 0.5 1.4 1.7 0.3 0.2 0.3 0 0.2 0 1.8-0.8 1.7-0.4 0.3 0 1.2 0.3 0.3 0 0.3 0 0.2-0.2 0.2-0.1 0.2-0.2 0.4-0.7 0.2-0.2 0.2-0.1 0.2 0 2.8 1.7 0.9 0 0.1 0.1 0.9 0.5 0.3 0.6 0.2 1.6 0.2 1.6-0.2 1.1 0.8 1.6 0.2 0.1 0.3-0.1 0.3 0 0.1 0.3-0.1 1.1 0.2 0.9 0.1 1.4 0.2 0.7 0.2 0.3 0.7 0.8 0.3 0.5 1.1-0.6 1.4 0.5 2.9 2.3 1.4 1.7 0.1 0.2-0.1 0.6 0 0.2 0.2 0 0.5-0.1 0.1 0.1 0.3 0.2 0.7 0.2 0.2 0.2 0 0.5-0.3 0.3-0.3 0.3-0.6 1.1 0.5 0.3 0.5 0.1 0.5-0.1 0.5 0.2 2.3-0.3 0.4 0.1 0.3 0.2 0.4 0.9 0.3 0.5 0.3 0.1 0.2-0.1 0.8-0.8 1.6-0.9 0.6-0.4 0.3-0.4 0.7-1.2 0.2-0.5 0.2-0.9 0.1-0.3-0.1-0.4 0-0.2-0.1-0.3-0.1-0.3 0-0.4 0.3-0.5 0.2-0.1 0.3-0.1 0.3 0.1 0.2 0.2 0.8 1.3 0.5 0.2 0.8 0 1.9-0.3 0.9-0.3 0.5-0.2 0.2-0.3 0.1-0.2 0-0.3 0-0.2-0.1-0.3-0.4-1-0.1-0.3 0-0.3 0-0.3 0.3-0.2 1.9-0.3 0.1 0 0.1-0.1 0.3-0.3 0.2-0.2 0.6-1.3 0.2-0.2 5.2-2.6 0.7-0.4 0.1-0.3 0-0.3-0.1-0.3-0.1-0.2-0.1-0.3 0.1-0.7 1.4-1.5 5 0.1 0.7-0.1 0.1-0.1 0.1-0.1 0.1-0.2 0.3-0.6 0.1-0.4 0.3-0.4 0.3 0 0.3 0 0.5 0.3 0.4 0.2 0.6 0.2 0.4 0 1.8-0.6 0.3-0.2 1-0.9 0.4-0.1 0.4 0 1 0.3 0.4-0.1 0.2-0.1 0.2-0.3 0.1-0.2 0.1-0.2 0.3-0.9 0.3-0.5 0.2-0.5 0.7-0.8 0.1-0.3 0.1-0.2 0-0.3-0.1-0.3-0.1-0.5-0.1-0.3 0-0.3 0-0.4 0.1-0.3 0.5-0.9 2.8-0.1 0.3 0 0.3-0.1 0.6-0.5 0.1-0.1 0.2 0 0.4 0.1 0.5 0.3 1.2 1.1 0.5 0.5 1.5 2.6-0.1 0.6 0 0.3 0.1 0.5 0.4 0.5 0.2 0.3 0.2 0.2 0.3 0.2 0.2 0.1 0.7 0.1 0.2 0.1 0.3 0.2 0.2 0.1 0.2 0.2 0 0.6 0 0.5-0.7 2.2-0.4 1.4-1.8 0.9-0.2 0.1-0.4 0-1.2-0.1-0.9 0.2-0.3 0-0.6-0.2-0.2-0.1-0.5-0.3-0.3 0-1.7-0.1-0.6-0.1-0.8-0.3-0.6-0.2-0.3 0-0.3 0.1-0.2 0.3-0.2 0.4-0.1 1.1-0.2 0.5-0.3 0.5-0.4 0.1-0.9 0.1-0.3 0.1-0.2 0.2-0.1 0.2-0.1 0.4 0.2 0.4 0.1 0.3 0.2 0.3 0.7 0.4 0.2 0.2 0.2 0.2 0.1 0.2 0.1 0.3 0 0.3 0 0.5 0 0.2 0.1 0.5 0 0.4-0.1 0.4-0.4 0.6-0.3 0.4-0.3 0.2-0.8 0.6-0.2 0.2-0.1 0.3-0.1 0.5 0.1 0.7 0.1 0.4 0.1 0.4 0.2 0.4 0.3 0.4 0.2 0.2 0.5 0.3 1.1 0.4 0.2 0.2 0.2 0.2 0 0.4-0.2 0.6-0.9 1.6-0.2 0.4-0.1 0.3 0.1 0.7 0 0.4 0.2 0.3 0.2 0.1 1.5 0.8 0.6 0.4 0.4 0.4 0.3 0.4 0.1 0.3 0.1 0.2 0.2 1.2 0.1 0.6 0.2 0.5 0.2 0.5 0.2 0.2 1.2 1 0.1 0.2 0.2 0.2 0.7 1.5 0.1 0.2 0.2 0.1 0.2 0.2 0.3 0.1 1.1 0.3 0.2 0.1 0.1 0.1 0.1 0.2 0.2 0.2 0 0.3 0.2 0.6 0.1 0.2 0.1 0.3 0.2 0.1 0.2 0.1 0.7 0.2 0.9 0 0.4 0 0.2 0.1 0.2 0.2 0.2 0.2-0.3 0.3-0.5 0.2-2.2 0.5-0.7 0.4-0.2 0.3-0.1 0.4 0.1 0.3 0.2 0.4 0.1 0.3 0 0.2-0.1 0.3-0.2 0.2-0.2 0.1-0.2 0.2-0.3 0.1-0.3 0-0.6-0.1-0.6-0.4-0.2 0-0.4 0.2-0.4 0.4-0.3 0.1-0.5 0-0.8-0.2-0.4-0.1-0.3-0.2-1.1-0.8-0.9-0.6-1.8-0.4-2.6-1.2-0.3 0-0.2 0.3-0.3 0.6-0.2 0.8-0.1 0.3-0.2 0.2-0.2 0.4-1.3 1.2-1.2 0.8-0.1 0-0.9 0.6-0.1 0.5 0 0.2 0.3 3.5 0.1 0.3 0.3 1 0.1 0.3 0.2 0.2 0.4 0.3 0.8 0.4 1.3 0.3 0.6 0 0.4-0.1 0.2-0.2 0.3 0 10.7 6 0.9 0 0.2 0 0.5 0.1 0.3 0.2 0.3 0.2 0.8 1.1 0.6 0.4 0.7 0.2 0.6 0.5 0.3 0.4 0.1 0.4 0 0.3-0.1 0.3-0.1 0.3-0.5 1-0.1 0.2-0.1 0.4-0.1 2 0 0.3 0.1 0.3 0 0.3 0.1 0.3 0.3 0.1 0.3 0.1 0.6-0.1 0.8-0.2 0.3 0 0.3 0 0.3 0 5.6 2.8 0.5 0.4 0.2 0.4 0.1 0.2 0.1 0.2 0.1 0.3 0.2 0.2 0.2 0.1 0.2 0.2 0.4 0.1 0.6 0.1 1 0 1-0.1 1.1-0.7 1-0.8 1-1.2 0.4-0.3 0.2-0.1 0.2-0.1 0.6 0 3.4 1.2 0.5 0.5 0.3 0.3 0.1 0.4 0.4 1 0.2 0.5 0.1 0.2 0.2 0.3 0.3 0.2 0.5 0.2 0.9 0.1 0.4 0 0.4-0.1 0.1-0.2 0.3-0.2 0.4 0.1 0.5 0.3 1.2 0.8 0.7 0.4 1 0.3 0.8-0.1 1.1 0.6 3.2 2.8 0.3 0.7 0.4 0.4 0.6 0.5 0.1 0.2 0.1 0.2 0.1 0.3 0.2 0.5 0.2 0.5 0.7 1.4 0.1 0.2 0 0.6 0 2.7 0.1 0.8 0.2 0.5 0.2 0.2 0.2 0.1 0.1 0.3 0.1 0.5-0.1 1.2 0.1 0.4 0 0.3 0 0.3-0.2 0.4-1.5 1.2-0.1 0.2 0.1 0.3 0.2 0.3-0.1 0.3 0 0.3-1.2 1.2-0.5 0.1-0.5 0.1-0.4 0.3-1.5 1.7-0.2 0-0.7 0.6-0.4 0.2-1.4 0.4-0.2 0.1-0.1 0.3-0.1 0.3 0.8 1.4 0.1 0.6 0.1 0.4-0.1 0.5-0.3 1.8 0.2 1.8-0.3 1.1 0 1 0 0.2-0.1 0.3-0.2 0.2-0.2 0.3-0.3 0.3-0.4 0.3-0.6 0.2-0.4 0.1-0.5 0.3-0.3 0.3-0.2 0.6-0.1 0.3 0.1 0.4-0.2 0.3-0.3 0.2-2 0.3-0.5 0.3-1.1 0.6z m-75.7-52.2l0 0.1 0.1 0 0-0.1-0.1 0z m56.4 87.4l0.3-0.8 0.3-0.4 0.4 0-0.3 0.8-0.7 0.4z" id="IT62" name="Lazio">
  </path>
  <path d="M578.9 392.7l2.3 8.2 2.1 5.5 1.2 2.5 3.7 5.9 0.3 1.2 0.4 0.8 4.4 5.4 4.1 4.9 2.1 1.9 1.6 1.4 4.2 2.8 1.9 1.6 2.4 4.1 7.7 7.6 2.1 1.3 3.4 1.4 2.3 0.5 1 0.8 0.4 1.2 0.3 3.2 0.4 1.6 0.7 1.1 1 0.5 0.3 0.1 0 0.2 0 0.8 0 0.2-0.2 0.4-0.3 0.5-0.3 0.7-0.1 0.4 0 0.6 0.1 0.6-0.1 0.3-0.2 0.4-4.1 4.2-0.6 0.5-0.8 0.2-0.2 0.3-0.1 0.5 0 0.3 0.1 0.6 0.1 0.4-0.2 0.4-0.6 0.9-1.5 1.6-1.9 2.5-1.2 1.9-1.4 1.9-0.3 0.5-0.2 0.5-0.3 0.4-0.3 0.3-1.4 0.8-1 0.5-0.9 0.3-0.3 0-0.2-0.1-0.1-0.3 0-0.3 0.2-0.5 0.1-0.3-0.1-0.3 0-0.2-0.3-0.5-0.3-0.4-0.3-0.4-0.1-0.2-0.1-0.3 0-0.3 0.2-1-0.1-0.3-0.1-0.2-0.1-0.2-0.1-0.2-0.4-0.4-2-1.5-0.3-0.2-0.1-0.2-0.3-0.2-0.2 0-0.4 0.3-0.4 0.6-0.3 0.1-0.3-0.1-0.6-0.3-0.3-0.2-0.2-0.3-0.1-0.2-0.4-0.7-0.1-0.2-0.2-0.2-0.2-0.2-1.1-0.4-0.3-0.3-0.2-0.2-0.1-0.1-0.1-0.2-0.3 0.1-0.3 0.1-2.5 2.1-0.1 0.1-0.6 1.2-0.2 0.3-0.1 0.2-1.2 1.2-0.4 0-1.4-0.2-0.4 0.2-0.3 0.3-0.4 0.9 0 0.4 0.1 0.3 0.3 0.5 0.3 0.3 0.2 0.5 0.1 0.6 0.1 0.2 0.3 0.4 0.2 0.2 0.6 0.5 0.2 0.2 0.2 0.1 0 0.2 0 0.2-0.2 0.2-0.5 0.2-1.2 0.4-0.9 0.5-1.5 0.9-0.9 1-0.2 0.1-0.4-0.1-0.8-0.5-0.3 0-0.4 0.2-0.5 0.5-1.1 1.5-0.3 0.2-1 0.6-0.3 0.3-0.4 0.1-0.4 0.1-1.7-0.4-1.1 0.3-3.2-2.8-1.1-0.6-0.8 0.1-1-0.3-0.7-0.4-1.2-0.8-0.5-0.3-0.4-0.1-0.3 0.2-0.1 0.2-0.4 0.1-0.4 0-0.9-0.1-0.5-0.2-0.3-0.2-0.2-0.3-0.1-0.2-0.2-0.5-0.4-1-0.1-0.4-0.3-0.3-0.5-0.5-3.4-1.2-0.6 0-0.2 0.1-0.2 0.1-0.4 0.3-1 1.2-1 0.8-1.1 0.7-1 0.1-1 0-0.6-0.1-0.4-0.1-0.2-0.2-0.2-0.1-0.2-0.2-0.1-0.3-0.1-0.2-0.1-0.2-0.2-0.4-0.5-0.4-5.6-2.8-0.3 0-0.3 0-0.3 0-0.8 0.2-0.6 0.1-0.3-0.1-0.3-0.1-0.1-0.3 0-0.3-0.1-0.3 0-0.3 0.1-2 0.1-0.4 0.1-0.2 0.5-1 0.1-0.3 0.1-0.3 0-0.3-0.1-0.4-0.3-0.4-0.6-0.5-0.7-0.2-0.6-0.4-0.8-1.1-0.3-0.2-0.3-0.2-0.5-0.1-0.2 0-0.9 0-10.7-6-0.3 0-0.2 0.2-0.4 0.1-0.6 0-1.3-0.3-0.8-0.4-0.4-0.3-0.2-0.2-0.1-0.3-0.3-1-0.1-0.3-0.3-3.5 0-0.2 0.1-0.5 0.9-0.6 0.1 0 1.2-0.8 1.3-1.2 0.2-0.4 0.2-0.2 0.1-0.3 0.2-0.8 0.3-0.6 0.2-0.3 0.3 0 2.6 1.2 1.8 0.4 0.9 0.6 1.1 0.8 0.3 0.2 0.4 0.1 0.8 0.2 0.5 0 0.3-0.1 0.4-0.4 0.4-0.2 0.2 0 0.6 0.4 0.6 0.1 0.3 0 0.3-0.1 0.2-0.2 0.2-0.1 0.2-0.2 0.1-0.3 0-0.2-0.1-0.3-0.2-0.4-0.1-0.3 0.1-0.4 0.2-0.3 0.7-0.4 2.2-0.5 0.5-0.2 0.3-0.3-0.2-0.2-0.2-0.2-0.2-0.1-0.4 0-0.9 0-0.7-0.2-0.2-0.1-0.2-0.1-0.1-0.3-0.1-0.2-0.2-0.6 0-0.3-0.2-0.2-0.1-0.2-0.1-0.1-0.2-0.1-1.1-0.3-0.3-0.1-0.2-0.2-0.2-0.1-0.1-0.2-0.7-1.5-0.2-0.2-0.1-0.2-1.2-1-0.2-0.2-0.2-0.5-0.2-0.5-0.1-0.6-0.2-1.2-0.1-0.2-0.1-0.3-0.3-0.4-0.4-0.4-0.6-0.4-1.5-0.8-0.2-0.1-0.2-0.3 0-0.4-0.1-0.7 0.1-0.3 0.2-0.4 0.9-1.6 0.2-0.6 0-0.4-0.2-0.2-0.2-0.2-1.1-0.4-0.5-0.3-0.2-0.2-0.3-0.4-0.2-0.4-0.1-0.4-0.1-0.4-0.1-0.7 0.1-0.5 0.1-0.3 0.2-0.2 0.8-0.6 0.3-0.2 0.3-0.4 0.4-0.6 0.1-0.4 0-0.4-0.1-0.5 0-0.2 0-0.5 0-0.3-0.1-0.3-0.1-0.2-0.2-0.2-0.2-0.2-0.7-0.4-0.2-0.3-0.1-0.3-0.2-0.4 0.1-0.4 0.1-0.2 0.2-0.2 0.3-0.1 0.9-0.1 0.4-0.1 0.3-0.5 0.2-0.5 0.1-1.1 0.2-0.4 0.2-0.3 0.3-0.1 0.3 0 0.6 0.2 0.8 0.3 0.6 0.1 1.7 0.1 0.3 0 0.5 0.3 0.2 0.1 0.6 0.2 0.3 0 0.9-0.2 1.2 0.1 0.4 0 0.2-0.1 1.8-0.9 0.4-1.4 0.7-2.2 0-0.5 0-0.6-0.2-0.2-0.2-0.1-0.3-0.2-0.2-0.1-0.7-0.1-0.2-0.1-0.3-0.2-0.2-0.2-0.2-0.3-0.4-0.5-0.1-0.5 0-0.3 0.1-0.6 4.3-0.6 0.5-0.2 0.6-0.4 0.1-0.6 0.1-0.4 0.2-0.5 0.4-0.6 0.5-0.3 0.6-0.2 0.9-0.3 0.5-0.2 0.2-0.2 0.1-0.3 0.1-0.4 0.1-0.6 0.1-0.3 0.1-0.3 0.1-0.2 0.5-0.7 0.2-0.2 0.6-1.4 0.5-0.7 0.4-0.3 0.3-0.1 0.3 0.1 0.2 0.1 0.4 0.4 0.2 0.1 0.3 0.1 0.3 0 0.4-0.1 1.6-0.6 0.3 0 0.3 0 0.6 0.2 0.3 0.1 0.4 0 1.6-0.3 1-0.5 0.4-0.3 0.2-0.2 0.1-0.2 0.1-0.3 0.1-0.3 0-0.8 0.2-0.3 0.2-0.4 0.5-0.6 0.4-0.3 0.3-0.1 0.9 0.1 1.2-0.4 3.3-1.5 4.2-1 1-0.1z" id="IT65" name="Abruzzo">
  </path>
  <path d="M651.5 469.8l1.3 0.2 6.8 0 7 1.6 2.7 0.1 9.7-1.7 9.5 0.5 14.8-1.8 5 1.3 0 0.1 1.7 0.5 1.2 2.2 1.1-0.1-0.2 1.3 0.4 1.5 0.5 2.9 0.1 1 0 1.4-0.5 0.9-1.1 1.3-1.2 1.1-1.1 0.5-1.2 0.4-1 0.9-1.5 1.9-2.1 1.7-6 3.2-1.5 2-0.5 2.9 0.3 3.2 0.9 2.6 1.3 1.8 1.6 1.6 0.6 0.4 2.9 2.1 3.8 1.2 0.8 0.7 0.9 0.8 10.9 5.1 9.4 5.1 3.5 1 1 0.8 0.4 0.3 0.6 0.6 2.3 1.6 13.9 4.8 1.2 1 0.4 0 0-0.6 0.4 0 1.2 1.3 10.1 3.3 8.5 4.7 4.3 3.2 2 2 2.2 3.3 0.8 0.4 1 0.3 0.8 0.7 1.3 1 3.6 3.9 1 0.5 1.2 0.3 2.1 1.4 5 1.3 0.7 0.4 6 2.5 5.6 4.2 4.6 0.8 2 1-0.1 1.8 0.7 0 1.5-0.5 0.9 0.2 0.2 0.5 0 0.7 0.3 0.8 1.4 1.3 0.2 0.5-0.3 3.5 3.6 3 1.2 1 5.4 3.1 1.1 0.2 0.4 0.3 1.2 2.1 0.7 0.7 1.9 1.7 1.6 2.5 0.8 1.2 1.1 0.5 0.5 0.5 3.9 5.4 3.7 8.9 0.2 0.5 0.3 0.3 0.4 0.2-0.3 0.9 0.2 0.5 0.2 0.5-0.1 0.8-0.4 0.7-1 0.8-0.5 2.3-0.7 0.9-2.2 1.6-1.3 3.3-0.2 0.8-0.2 1.6-0.6 1.7-0.1 0.7 0.4 2 0 0.9-0.8 4 0.2 0.7-0.3 0.2-0.6 1.1-0.3 0.2-1.3-0.1-0.5-0.1-0.5-0.3-2.8-2.3-1-0.3-2.4 0-0.7-0.1-1.5-1-1.4-0.7-1.9-1.7-2.1-1.5-0.8-0.3-0.5-0.4-3.8-5.7-0.7-0.7 0-0.5 0.9-0.1 0.6-0.5 0.1-0.9-0.4-1.1-0.6-0.7-1.6-0.5-0.6-0.4 2-1.3 0.5-1.7-0.8-1.8-1.7-2-1.6-1.3-0.9-1-0.4-1.1 0-1.5-0.1-1.3-0.3-1.1-0.7-0.6 0.7 0 0-0.5-2.9-2.3-0.9-0.4-4.9-0.2-14.8-0.8-1-0.3-3.2-1.8-0.5-0.1-1.3 0.2-0.6-0.1-0.4-0.3-1-1.1-0.4-0.2-1-0.3-3.2-1.9-3.3-1.2-1.6-0.8-0.7-1.1 1.3-0.6 1.2-1 0.2-1.3-1.1-1.3 1.1-0.4 2.9 0.5 1.2-0.6 0.4-1.3-1.2-0.1-2.4 0.8 0.1-0.2 0.3-0.3-1.3-0.6-1.1 0.5-1 0.8-1.2 0.4-0.5-0.3-0.3-0.6-0.3-0.7-0.3-0.6-0.6-0.2-1.4 0-0.5-0.2-4.4-0.3-4.3 2-3.7 3.7-2.9 4.2-0.5-0.5-0.4-0.4-0.2-0.3-0.4-0.6-0.2-0.4-0.2-0.2-0.6-0.5-0.2-0.2-0.3-0.4-0.9-2.1-0.3-0.5-0.3-0.3-0.6 0-0.2 0-1.3 0.5-0.3 0-0.3-0.1-0.2-0.1-0.4-0.6-0.1-0.6-0.7-4.1-0.3-0.7 0-0.3 0.1-3.5-0.2-3.1 0.6-2.1 0-0.4 0-0.4-0.2-0.6-0.3-0.2-0.2-0.3-0.3-0.1-0.2-0.2-0.2-0.2 0-0.2 0.1-0.2 1-0.5 0-0.7-1.2-1.4-0.2-0.2-0.4-0.1-1.8-0.5-1.2-0.7-0.3-0.2-0.4-0.2-2-0.3-0.5 0.1-0.2 0.2 0 0.3 0.1 0.2-0.1 0.2-0.3 0-1.1-0.6-0.4-0.2-0.4 0.2-0.1 0.2 0 0.2 0.1 0.2 0.5 0.6 0.1 0.2 0.1 0.3 0 0.2-0.2 0.2-0.3-0.1-0.4-0.2-0.5-0.6-0.4-0.8-0.2-0.4-0.1-0.2-0.3-0.1-0.3 0-0.2 0.1-0.1 0.1-1.3 1.2-1.3 1.5-1.1 1.1-0.4 0.2-0.5 0.3-0.6-0.3-0.8-0.5-3.3-3-5.5-6.6-0.7-0.8-0.4-1-0.7-2.4-0.2-0.5-0.2-0.5-0.3-0.3-0.4-0.3-0.9-0.5-0.5-0.2-0.5-0.2-0.3 0-1.1 0.3-0.2 0.1-0.2 0.1-0.2 0.2-0.3 0.4-0.2 0.2-0.2 0.2-0.2 0-0.3 0-0.2-0.1-0.7-0.4-6.3-3.1-0.2-0.2-0.1-0.2 0-0.5 0.2-0.2 0.3-0.1 0.2 0.1 0.2-0.1 0.2 0 0.2-0.1 0.1-0.2 0.3-0.4 0.3-0.4 0.1-0.3 0.2-0.6 0.2-0.7 0.3-1 0.1-0.3-0.4-0.6-2.4-2.8-0.6-0.8-0.6-0.7-0.6-0.4-1.3-0.7-1.8-0.5-0.2-0.2-0.8-0.6-1-1.5-0.5-0.5-0.5 0.4-4.6 2.1-1 0.2-9.2-0.6-0.8 0.4-0.7 0.6-0.6 0.8-0.4 1.4 0.3 1.1-6.1-1.9-1.8-1.3-0.7-0.6-0.4-0.2-0.2 0.1-0.2 0.1-0.4 0.4-0.6 0.1-5.5-0.4-0.5-0.1-0.3-0.2-0.6-1.1-0.3-0.4-0.2-0.2-2.7-1.7-0.4-0.3-0.1-0.2-0.1-0.3 0.1-0.2 0.1-0.2 1.7-2 0.4-0.3 0.5-0.5 0.2-0.2 0.1-0.3 0.1-0.2 0-0.3-0.5-0.7 0-0.3 0.1-0.2 0.7-0.2 0.2-0.1 0.2-0.2 0.1-0.2-0.1-0.3-0.2-0.4-0.6-0.9-0.4-0.4-0.3-0.2-1.1-0.5-2-1.1-0.5-0.2-0.2 0.1-0.5 0.7-0.2 0.1-0.3 0.2-0.2 0-0.7 0.1-0.9-2.6-0.6-0.6-0.7-0.2-0.8-0.3-0.7-0.4-0.3-0.3-0.2-0.4-0.3-1 0-0.4 0-0.4 0.2-0.2 0.1-0.3 0.2-0.1 0.2-0.2 0.2-0.2 0.1-0.2 0-0.3 0.1-0.2 0.2-0.2 0.5-0.2 0.2-0.2 0.1-0.2 0-0.5-0.1-1.7-0.2-0.6-0.2-0.3-1.2-0.6-0.3-0.3-0.3-0.4-0.7-1.1-0.3-0.2-1.1-0.4-1.6-0.9-0.3-0.2-2.8-2.6-0.7-0.8 0-0.3 0-0.3 0-0.3 0.2-1 0-0.7 0-0.3-0.3-2.4-0.1-1.1 0-0.6 0.1-0.4 0.2-0.3 0.1-0.2 0.4-0.3 0.2-0.2 0.3-0.1 0.2 0 0.3 0 2.7 1.2 0.2 0 0.3 0 0.3-0.3 0.7-0.6 0.5-0.7 0.4-0.4 0.3-0.2 0.5-0.1 0.3-0.2 0.2-0.2 0.7-0.9 0.7-0.6 0.6-0.6 0.2-0.3 0.2-0.1 1.1-0.3 0.5-0.2 0.3-0.2 0.7-0.6 0.1-0.3-0.1-0.2-0.3-0.1-1.3-0.1-0.3-0.1-0.3-0.1-0.2-0.2-0.2-0.2-0.1-0.2-0.2-0.5-0.1-0.7 0-1 0-0.4-0.1-0.3-0.1-0.5 0.1-0.8 0.3-0.8 0.1-0.6 0-0.4-0.2-1.2-0.1-0.5 0-0.9 0.1-0.4 0.1-0.4 0.6-0.9 0.7-1.4 0.2-0.5 0-0.7 0-0.4 0.4-3 0.1-0.2z" id="IT75" name="Puglia">
  </path>
  <path d="M681 616.2l-0.9-0.8-0.4-0.6 0-1-0.8 0.4-4.4-0.4-1.3 0.8-1 1.6-2.1 1.3-1.8 2.3-1.1 0.4-2.9-0.3-1.1-0.4-1.7-2.3-0.6-0.2-0.6 0.3-0.6 0.2-0.6 0.1-0.7-0.1 0-0.5 1.1-0.9-0.9-2-1.8-2-1.4-0.9-1.2-0.5-3.6-3.9-0.9-0.4-1 0.1-1.7 0.5-1.1-0.2-0.7-0.5-0.8-1.5-1.1-1.1-1.6-0.7-0.6-0.4-0.5-0.6-1.1 0.3-1-0.8-0.6-0.3-0.3-1.3 1.5-2 0.4-1.7-0.4-1.3 0-0.7 0.6-0.4 0.7-0.1 0.6-0.4 0.5-0.5 1.3-0.5 0.3-0.8-0.1-2.2-1.3-2.7-5.1-10.9-1.6-2.6-1.5-2-1.6-1.6-1.6-1.3-1.7-0.5-1.9 0.8-1.8 1.3-0.7 0.2-3-0.2-0.8 0.3-2.4 2.2-1.6 0.3-1.7-0.5-1.7-1-0.9 0.6-2.9 0.7-1.2 1.1-2.7 1.4-0.8 1-0.7-1.1-0.1-1.6 0.6-1.4 1.2-0.7 1.2-0.1 0.5-0.2 0.6-0.6 0.4-0.9 2.3-2.3 1.9-0.7 0.2-1.3-0.3-1.4-0.8-1.1-1.1-0.9-1.2 0.4-1-0.5-0.6-0.4-0.7-0.8-0.9-0.6-1.1-1.3-2.1-2.4-1.1-0.8-1.1-0.1-1.6 0.1-1.4 0.5-0.7 0.9-0.5 1.5-1.3 0-0.9-1.2-1.8-0.2-1.4-0.8-0.9-0.4-0.8 0.2-0.4 0.7 0.1 1 0.2 1 0.1 1-0.4-0.2-1.6-0.2-0.4-0.6 0.6-3.1-0.4-2.9-1.4-3.7-0.7-1.1-2.6-4.7-2-1.4-0.8-0.7-0.2-0.7-0.1-1.7-0.1-0.8-1.5-3.1-1.9-3.3-3.6-4.6-2.8-2.5 1.1-0.6 0.5-0.3 2-0.3 0.3-0.2 0.2-0.3-0.1-0.4 0.1-0.3 0.2-0.6 0.3-0.3 0.5-0.3 0.4-0.1 0.6-0.2 0.4-0.3 0.3-0.3 0.2-0.3 0.2-0.2 0.1-0.3 0-0.2 0-1 0.3-1.1-0.2-1.8 0.3-1.8 0.1-0.5-0.1-0.4-0.1-0.6-0.8-1.4 0.1-0.3 0.1-0.3 0.2-0.1 1.4-0.4 0.4-0.2 0.7-0.6 0.2 0 1.5-1.7 0.4-0.3 0.5-0.1 0.5-0.1 1.4 0.8 0.2 0.2 0.2 0.3 0.1 0.6 0.2 0.5 1.7 2.9 0.3 0.4 0.2 0.2 0.3 0.1 1.2 0.3 1.6 0.1 0.7 0 0.3-0.1 0.3-0.2 0-0.2-0.1-0.5-0.1-0.4 0-0.5 0-0.4-0.2-0.4-0.2-0.2-0.6-0.5-0.4-0.4-0.1-0.2 0-0.3 0-0.3 0-0.2 0.1-0.3 0.3-0.5 0.7-0.7 0.2-0.2 0.2-0.5 0.3-0.4 0.3-0.6 0.2-0.3 0.6 0.2 2 0.2 1.8-0.3 1.6-0.1 1 0.4 1.6 0.4 0.3 0.1 0.2 0.2 1.2 0.9 1.9 1 2.5 0.9 0.7 0.3 3 1.3 0.6 0.1 1 0.1 0.4 0.2 0.4 0.4 0.4 0.9 0.8 1 1.1 0.1 0.7 0.1 1.7-0.1 0.4 0.1 0.2 0.2 0.4 0.7 0.2 0.2 0.2 0.1 0.2 0.1 0.3 0.1 0.4-0.1 0.5-0.1 2.6-1.8 0.5-0.5 0.2-0.1 0.4-0.1 3.9-0.1 0.4-0.1 0.5-0.2 0.7-0.5 0.3-0.4 0.2-0.3 0.2-0.9 0.1-0.3 0.2-0.2 0.2-0.1 0.3-0.1 0.4 0.2 0.3 0.1 0.2 0.2 0.4 0.4 0.4 0.3 0.5 0.3 0.3 0.1 1.4-0.5 1.7-0.8 2.3-0.7 0.4-0.1 0.6-0.2 3.4-2.2 0.3 0.2 1.6 0.9 1.1 0.4 0.3 0.2 0.7 1.1 0.3 0.4 0.3 0.3 1.2 0.6 0.2 0.3 0.2 0.6 0.1 1.7 0 0.5-0.1 0.2-0.2 0.2-0.5 0.2-0.2 0.2-0.1 0.2 0 0.3-0.1 0.2-0.2 0.2-0.2 0.2-0.2 0.1-0.1 0.3-0.2 0.2 0 0.4 0 0.4 0.3 1 0.2 0.4 0.3 0.3 0.7 0.4 0.8 0.3 0.7 0.2 0.6 0.6 0.9 2.6 0.7-0.1 0.2 0 0.3-0.2 0.2-0.1 0.5-0.7 0.2-0.1 0.5 0.2 2 1.1 1.1 0.5 0.3 0.2 0.4 0.4 0.6 0.9 0.2 0.4 0.1 0.3-0.1 0.2-0.2 0.2-0.2 0.1-0.7 0.2-0.1 0.2 0 0.3 0.5 0.7 0 0.3-0.1 0.2-0.1 0.3-0.2 0.2-0.5 0.5-0.4 0.3-1.7 2-0.1 0.2-0.1 0.2 0.1 0.3 0.1 0.2 0.4 0.3 2.7 1.7 0.2 0.2 0.3 0.4 0.6 1.1 0.3 0.2 0.5 0.1 5.5 0.4 0.6-0.1 0.4-0.4 0.2-0.1 0.2-0.1 0.4 0.2 0.7 0.6 1.8 1.3 6.1 1.9 1 2.2 0.1 1.2-0.3 1-1 2-0.7 2.2-0.4 0.8-0.8 0.7-2 1.3-1.1 0.5-5.9 0.2-0.3 1-0.2 0.8 0 1 0 0.5 0.2 0.7 0.1 0.3-0.3 0.7-1 1.1 0.8 0.8 0.3 0.2 0.2 0.2 0.1 0.2 0 0.3-0.1 0.2-0.1 0.3 0.2 0.2 0.1 0.2-0.1 0.4 0 0.4 0.2 0.6 0.1 2.1 0.1 0.4 0.2 0.5 0.5 0.9 0.2 0.4 0.3 0.3 0.9 0.6 0.4 0.3 0.2 0.2 0.7 1 0.1 0.2 1.4 0.8 0.3 0.1 1 0.2 0.2 0.1 0.2 0.2 0.1 0.2 0 0.4-0.1 0.5-0.2 0.3-0.2 0.2-0.7 0.3-0.2 0.2-0.1 0.2-0.7 1-0.2 0.3-0.1 0.3 0 0.2-0.1 0.2 0.1 0.3 0.2 0.2 0.3 0.3 0.4 0.1 0.7 0.1 0.6 0.2 0.4 0.3 0.8 0.7 0.6 0.8 0.2 0.2 1.3 3.4 0 0.4-0.1 0.5-0.2 0.6 0 0.2 0 0.3 0 0.4 0.2 0.3 0.3 0.6 0.2 0.3 0.2 0.2 0.4 0.3 0.7 0.4 0.4 0.3 0.2 0.4 0.7 1.5 0.4 0.4 0.3 0.1 0.3 0 0.3 0 0.3 0.1 0.2 0.2 0.4 0.3 0.6 0.8 1 1.1 0.2 0.2 0.2 0.1 0.3 0.1 0.9 0 0.3 0.1 0.2 0.1 0.2 0.2 0.3 0.3 0.3 0.4 0.1 0.5 0.2 2.8 0.2 0.6 0.2 0.4 0.1 0.2 0.2 0.2 0.4 0.4 1.1 0.6 0.2 0.2 0.2 0.2 0.3 0.6 0.2 0.2 0.2 0.2 0.7 0.7 0.4 0.4 0.1 0.2 0.1 0.3 0.1 0.4 0 0.4-0.1 0.3 0 0.3-0.3 0.7-0.5 1.1-0.7 0.4-0.4 0.3-0.4 0.6-0.3 0.3-0.3 0.2-0.5 0.2-0.4 0.2-0.2 0.2-0.3 0.2-0.6 0.8-0.4 0.5-0.2 0.2-0.1 0.4 0 0.5 0.2 0.9 0 0.4-0.2 0.6-1.5 2.5-0.5 0.7-0.6 0.6 0 0.2 0.1 0.4 0.2 0.2 0.2 0.1 0.2 0.1 0.2 0.1-0.1 0.4-1 1.1z m-103-49.8l-0.5-0.5-1.3-0.6-0.6-0.6 0.4-1.5 0.3-0.7 0.5-0.4-0.1-0.3-0.3-0.7 1.2 0 3.7 1.3 1.2 0.8-0.2 0.5-0.1 0.4 0.3 0.6-0.5 0.3-0.8 0.8-0.6-0.3-0.9 0.1-0.9 0.3-0.8 0.5z" id="IT72" name="Campania">
  </path>
  <path d="M629.2 458.2l1 0.2 1.2 0.7 2.1 1.7 2 1 4.8 0.9 2.4 0.8 0.8 0.7 1.6 2.1 0.7 0.5 1 0.3 2.4 1.8 1.1 0.6 1.2 0.3-0.1 0.2-0.4 3 0 0.4 0 0.7-0.2 0.5-0.7 1.4-0.6 0.9-0.1 0.4-0.1 0.4 0 0.9 0.1 0.5 0.2 1.2 0 0.4-0.1 0.6-0.3 0.8-0.1 0.8 0.1 0.5 0.1 0.3 0 0.4 0 1 0.1 0.7 0.2 0.5 0.1 0.2 0.2 0.2 0.2 0.2 0.3 0.1 0.3 0.1 1.3 0.1 0.3 0.1 0.1 0.2-0.1 0.3-0.7 0.6-0.3 0.2-0.5 0.2-1.1 0.3-0.2 0.1-0.2 0.3-0.6 0.6-0.7 0.6-0.7 0.9-0.2 0.2-0.3 0.2-0.5 0.1-0.3 0.2-0.4 0.4-0.5 0.7-0.7 0.6-0.3 0.3-0.3 0-0.2 0-2.7-1.2-0.3 0-0.2 0-0.3 0.1-0.2 0.2-0.4 0.3-0.1 0.2-0.2 0.3-0.1 0.4 0 0.6 0.1 1.1 0.3 2.4 0 0.3 0 0.7-0.2 1 0 0.3 0 0.3 0 0.3 0.7 0.8 2.8 2.6-3.4 2.2-0.6 0.2-0.4 0.1-2.3 0.7-1.7 0.8-1.4 0.5-0.3-0.1-0.5-0.3-0.4-0.3-0.4-0.4-0.2-0.2-0.3-0.1-0.4-0.2-0.3 0.1-0.2 0.1-0.2 0.2-0.1 0.3-0.2 0.9-0.2 0.3-0.3 0.4-0.7 0.5-0.5 0.2-0.4 0.1-3.9 0.1-0.4 0.1-0.2 0.1-0.5 0.5-2.6 1.8-0.5 0.1-0.4 0.1-0.3-0.1-0.2-0.1-0.2-0.1-0.2-0.2-0.4-0.7-0.2-0.2-0.4-0.1-1.7 0.1-0.7-0.1-1.1-0.1-0.8-1-0.4-0.9-0.4-0.4-0.4-0.2-1-0.1-0.6-0.1-3-1.3-0.7-0.3-2.5-0.9-1.9-1-1.2-0.9-0.2-0.2-0.3-0.1-1.6-0.4-1-0.4-1.6 0.1-1.8 0.3-2-0.2-0.6-0.2-0.2 0.3-0.3 0.6-0.3 0.4-0.2 0.5-0.2 0.2-0.7 0.7-0.3 0.5-0.1 0.3 0 0.2 0 0.3 0 0.3 0.1 0.2 0.4 0.4 0.6 0.5 0.2 0.2 0.2 0.4 0 0.4 0 0.5 0.1 0.4 0.1 0.5 0 0.2-0.3 0.2-0.3 0.1-0.7 0-1.6-0.1-1.2-0.3-0.3-0.1-0.2-0.2-0.3-0.4-1.7-2.9-0.2-0.5-0.1-0.6-0.2-0.3-0.2-0.2-1.4-0.8 1.2-1.2 0-0.3 0.1-0.3-0.2-0.3-0.1-0.3 0.1-0.2 1.5-1.2 0.2-0.4 0-0.3 0-0.3-0.1-0.4 0.1-1.2-0.1-0.5-0.1-0.3-0.2-0.1-0.2-0.2-0.2-0.5-0.1-0.8 0-2.7 0-0.6-0.1-0.2-0.7-1.4-0.2-0.5-0.2-0.5-0.1-0.3-0.1-0.2-0.1-0.2-0.6-0.5-0.4-0.4-0.3-0.7 1.1-0.3 1.7 0.4 0.4-0.1 0.4-0.1 0.3-0.3 1-0.6 0.3-0.2 1.1-1.5 0.5-0.5 0.4-0.2 0.3 0 0.8 0.5 0.4 0.1 0.2-0.1 0.9-1 1.5-0.9 0.9-0.5 1.2-0.4 0.5-0.2 0.2-0.2 0-0.2 0-0.2-0.2-0.1-0.2-0.2-0.6-0.5-0.2-0.2-0.3-0.4-0.1-0.2-0.1-0.6-0.2-0.5-0.3-0.3-0.3-0.5-0.1-0.3 0-0.4 0.4-0.9 0.3-0.3 0.4-0.2 1.4 0.2 0.4 0 1.2-1.2 0.1-0.2 0.2-0.3 0.6-1.2 0.1-0.1 2.5-2.1 0.3-0.1 0.3-0.1 0.1 0.2 0.1 0.1 0.2 0.2 0.3 0.3 1.1 0.4 0.2 0.2 0.2 0.2 0.1 0.2 0.4 0.7 0.1 0.2 0.2 0.3 0.3 0.2 0.6 0.3 0.3 0.1 0.3-0.1 0.4-0.6 0.4-0.3 0.2 0 0.3 0.2 0.1 0.2 0.3 0.2 2 1.5 0.4 0.4 0.1 0.2 0.1 0.2 0.1 0.2 0.1 0.3-0.2 1 0 0.3 0.1 0.3 0.1 0.2 0.3 0.4 0.3 0.4 0.3 0.5 0 0.2 0.1 0.3-0.1 0.3-0.2 0.5 0 0.3 0.1 0.3 0.2 0.1 0.3 0 0.9-0.3 1-0.5 1.4-0.8 0.3-0.3 0.3-0.4 0.2-0.5 0.3-0.5 1.4-1.9 1.2-1.9 1.9-2.5 1.5-1.6 0.6-0.9 0.2-0.4-0.1-0.4-0.1-0.6 0-0.3 0.1-0.5 0.2-0.3 0.8-0.2 0.6-0.5 4.1-4.2 0.2-0.4 0.1-0.3-0.1-0.6 0-0.6 0.1-0.4 0.3-0.7 0.3-0.5 0.2-0.4 0-0.2 0-0.8 0-0.2z" id="IT67" name="Molise">
  </path>
  <path d="M752.4 589.8l-4.7 6.8-1.3 2.5-1.4 4.5-0.4 0.8-0.8 0.5-2.2 3.7-2.3 2.1-1.1-0.3-3.7-0.3-1.8 0.4-0.3 0-0.3 0-2.2-0.4-1.7 0.1-0.3 0-0.2-0.2-0.2-0.2-0.2-0.4-0.2-0.1-0.3 0-0.3 0.3-0.3 0.3-0.1 0.3-0.1 0.2-0.1 0.5-0.1 0.6 0 1.9-0.2 1-0.5 1.1-0.1 0.5-0.3 0.5-0.2 0.6 0 0.2-0.1 0.3 0.2 1.5-0.1 0.3 0 0.3 0 0.1-0.2 0.5-0.2 0.2-0.3 0.4-0.3 0.4-0.2 0.2-0.1 0.2-0.2 0.6-0.2 0.9-0.1 0.3-0.1 0.2-0.1 0.2-0.4 0.4-0.1 0.2-0.1 0.2 0.1 0.2 0.2 0.2 0.2 0.1 0.2 0.1 0.1 0.3 0.1 0.2 0.1 0.9 0 0.3-0.2 0.3-0.2 0.1-0.4-0.2-0.3-0.3-0.2-0.2-0.2-0.5-0.1-0.2-0.1-0.2-0.2-0.1-0.5-0.3-0.2-0.2-0.3-0.4-0.2-0.1-0.3-0.1-2.3-0.4-0.6 0-1.2 0.5-1 0.5-0.2 0.2-0.2 0.2-0.1 0.5-0.6 0.2-6.2 0.6-0.6 0.1-0.3 0-0.4-0.1-0.6-0.2-0.3-0.3-0.2-0.2-0.7-1-1.3-1.5-0.2-0.2-0.1-0.2 0-0.3 0-0.3 0.2-0.5 0.5-1 0-0.3-0.1-0.1-0.3 0-1.1 0.5-0.4 0.2-0.5-0.1-0.3-0.1-0.2-0.2-0.2-0.2-0.8-1.2-0.1-0.1-0.2-0.2-0.3-0.1-0.5 0-1 0.2-0.3 0.1-0.2 0.2-0.3 0.9-0.2 0.2-0.4-0.1-0.2-0.1-0.2-0.2-0.1-0.2-0.4-0.3-0.2-0.2-1.2-0.6-0.4 0-0.6 0.3-3.7 2.9-0.3 0.3-0.2 0.5-0.3 0.8-0.9 1.3-0.2 0.2-0.2-0.3-0.4-1.1-0.4-1.6-0.9-1.3-2-2.1-1.6-2.7-0.3-0.2 1-1.1 0.1-0.4-0.2-0.1-0.2-0.1-0.2-0.1-0.2-0.2-0.1-0.4 0-0.2 0.6-0.6 0.5-0.7 1.5-2.5 0.2-0.6 0-0.4-0.2-0.9 0-0.5 0.1-0.4 0.2-0.2 0.4-0.5 0.6-0.8 0.3-0.2 0.2-0.2 0.4-0.2 0.5-0.2 0.3-0.2 0.3-0.3 0.4-0.6 0.4-0.3 0.7-0.4 0.5-1.1 0.3-0.7 0-0.3 0.1-0.3 0-0.4-0.1-0.4-0.1-0.3-0.1-0.2-0.4-0.4-0.7-0.7-0.2-0.2-0.2-0.2-0.3-0.6-0.2-0.2-0.2-0.2-1.1-0.6-0.4-0.4-0.2-0.2-0.1-0.2-0.2-0.4-0.2-0.6-0.2-2.8-0.1-0.5-0.3-0.4-0.3-0.3-0.2-0.2-0.2-0.1-0.3-0.1-0.9 0-0.3-0.1-0.2-0.1-0.2-0.2-1-1.1-0.6-0.8-0.4-0.3-0.2-0.2-0.3-0.1-0.3 0-0.3 0-0.3-0.1-0.4-0.4-0.7-1.5-0.2-0.4-0.4-0.3-0.7-0.4-0.4-0.3-0.2-0.2-0.2-0.3-0.3-0.6-0.2-0.3 0-0.4 0-0.3 0-0.2 0.2-0.6 0.1-0.5 0-0.4-1.3-3.4-0.2-0.2-0.6-0.8-0.8-0.7-0.4-0.3-0.6-0.2-0.7-0.1-0.4-0.1-0.3-0.3-0.2-0.2-0.1-0.3 0.1-0.2 0-0.2 0.1-0.3 0.2-0.3 0.7-1 0.1-0.2 0.2-0.2 0.7-0.3 0.2-0.2 0.2-0.3 0.1-0.5 0-0.4-0.1-0.2-0.2-0.2-0.2-0.1-1-0.2-0.3-0.1-1.4-0.8-0.1-0.2-0.7-1-0.2-0.2-0.4-0.3-0.9-0.6-0.3-0.3-0.2-0.4-0.5-0.9-0.2-0.5-0.1-0.4-0.1-2.1-0.2-0.6 0-0.4 0.1-0.4-0.1-0.2-0.2-0.2 0.1-0.3 0.1-0.2 0-0.3-0.1-0.2-0.2-0.2-0.3-0.2-0.8-0.8 1-1.1 0.3-0.7-0.1-0.3-0.2-0.7 0-0.5 0-1 0.2-0.8 0.3-1 5.9-0.2 1.1-0.5 2-1.3 0.8-0.7 0.4-0.8 0.7-2.2 1-2 0.3-1-0.1-1.2-1-2.2-0.3-1.1 0.4-1.4 0.6-0.8 0.7-0.6 0.8-0.4 9.2 0.6 1-0.2 4.6-2.1 0.5-0.4 0.5 0.5 1 1.5 0.8 0.6 0.2 0.2 1.8 0.5 1.3 0.7 0.6 0.4 0.6 0.7 0.6 0.8 2.4 2.8 0.4 0.6-0.1 0.3-0.3 1-0.2 0.7-0.2 0.6-0.1 0.3-0.3 0.4-0.3 0.4-0.1 0.2-0.2 0.1-0.2 0-0.2 0.1-0.2-0.1-0.3 0.1-0.2 0.2 0 0.5 0.1 0.2 0.2 0.2 6.3 3.1 0.7 0.4 0.2 0.1 0.3 0 0.2 0 0.2-0.2 0.2-0.2 0.3-0.4 0.2-0.2 0.2-0.1 0.2-0.1 1.1-0.3 0.3 0 0.5 0.2 0.5 0.2 0.9 0.5 0.4 0.3 0.3 0.3 0.2 0.5 0.2 0.5 0.7 2.4 0.4 1 0.7 0.8 5.5 6.6 3.3 3 0.8 0.5 0.6 0.3 0.5-0.3 0.4-0.2 1.1-1.1 1.3-1.5 1.3-1.2 0.1-0.1 0.2-0.1 0.3 0 0.3 0.1 0.1 0.2 0.2 0.4 0.4 0.8 0.5 0.6 0.4 0.2 0.3 0.1 0.2-0.2 0-0.2-0.1-0.3-0.1-0.2-0.5-0.6-0.1-0.2 0-0.2 0.1-0.2 0.4-0.2 0.4 0.2 1.1 0.6 0.3 0 0.1-0.2-0.1-0.2 0-0.3 0.2-0.2 0.5-0.1 2 0.3 0.4 0.2 0.3 0.2 1.2 0.7 1.8 0.5 0.4 0.1 0.2 0.2 1.2 1.4 0 0.7-1 0.5-0.1 0.2 0 0.2 0.2 0.2 0.2 0.2 0.3 0.1 0.2 0.3 0.3 0.2 0.2 0.6 0 0.4 0 0.4-0.6 2.1 0.2 3.1-0.1 3.5 0 0.3 0.3 0.7 0.7 4.1 0.1 0.6 0.4 0.6 0.2 0.1 0.3 0.1 0.3 0 1.3-0.5 0.2 0 0.6 0 0.3 0.3 0.3 0.5 0.9 2.1 0.3 0.4 0.2 0.2 0.6 0.5 0.2 0.2 0.2 0.4 0.4 0.6 0.2 0.3 0.4 0.4 0.5 0.5z" id="IT77" name="Basilicata">
  </path>
  <path d="M739.3 610.7l-0.9 0.8-1.2 1.8-0.4 2.9 0.1 1 0.8 2.8 1.1 2.4-0.6 0.9-0.9 0.8-1 1.8-2.7 2.6-2 3.7-1 2.5-0.1 2.3 0.7 2.1 1.6 2 0 0.5-0.8 1.9 1.8 2.2 2.6 1.8 2 0.9 7.3 0.4 2 0.6 0.9 0.7 1 0.9 0.9 1.1 0.4 1.2 0.5 0.6 3.5 1.8 2.8 2.3 1 0.3 1.4 0.2 1 0.5 0.4 0.5 0.3 0.3 0.7 1.1 1.3 1.5 1.8 1.4 2.1 1 2 0.2-2.1 5.2-0.4 4.2-0.1 1 0.2 1 0.4 0.9 1 1.7 0.3 0.9-0.4 2.4-1 4.4 0.1 2.2 1.4 2.8 0.2 0.6 0.4 0.4 2 0.7 0.8 0.2-1.1 0.8-0.6 0.5-0.3 0.5 0 3 0 0.4-1.9 1.8-0.3 0.3-0.4 0.3-0.5 0.7-0.9 1.5-0.5-1.5-1.5-0.3-1.6 0.5-1.2 0.8-1.5-1.8-0.9-0.6-1.4-0.2-1.3 0.1-2.5 0.7-3.2 0.9-6.5 2.9-2.3 1.8-0.5 0.6-0.5 0.5-3.5 1.8-1.5 1.4-0.7 1-0.6 2.1-0.7 1.2-0.7 1.3-0.3 1.8 0.7 0.5 0.2 0.2-0.1 1.4 0.6 5.7 1.1 5.1 0 1.9-0.2 2.6-0.2 2.9-0.5 1-2.3 2.1-0.8 1.2-0.7 0.2-1.7 1.5-1.9 0.7-5.6 2.9-2 1.8-8 10-1 2.4-1.6 7.9-0.8 2.3-0.6 1-0.7 0.8-0.7 0.7-0.8 0.5-2.8 0.6-0.9 0.5-3.4-1.1-10.6 0.6-1.6-0.4-1.6-0.8-1.4-0.9-1-1-1.2-1.6-0.6-1.5 0.1-1.4 1.2-1.1-1.5-2.4-0.5-1.3 0.2-1.2 0.8-1.3 0.4-1.3-0.1-1.4-0.5-1.8-0.3-2.6 1.1-1.5 1.9-0.9 6-1.9 0.6-0.6 0.1-0.3 0.9-0.8 0.2-0.4 0.8-3.3 4.4-9.3 0.5-2.3 0.2-0.9-0.1-2.5-0.9-2.1-1.7-1.9-0.4-0.3-0.8-0.4-0.4-0.3-0.5-0.8-0.1-0.4 0.1-0.4 0.1-0.8 0.4-0.8 1.1-0.6 2.5-0.9 3.7-2.5 2-0.9 2.7-0.2 4.2 0.5 0.9-0.2 1-0.5 1.6-1.3 1.2-2.2 0.8-2.5 0.1-0.3 0.4-3.2-0.1-3.2-0.3-1.5-0.6-1.1-0.9-0.7-1.2-0.3-0.9-0.6-0.9-1.4-2.5-5.8-0.8-1.9-2.4-17.8-0.4-2.6-2.3-7.1-2.2-3-1.5-2.7-1.6-1.7-1.7-1.2-0.5-0.9-0.5-1.9-0.5-2-0.8-2.9-1.3-2-0.5-1.3-1-7.7 0 0.5-0.3-1.5-0.3-0.8-0.5-0.3 0-0.4 0.7-3-0.5-1.7-1.7-2.6 0.2-0.2 0.9-1.3 0.3-0.8 0.2-0.5 0.3-0.3 3.7-2.9 0.6-0.3 0.4 0 1.2 0.6 0.2 0.2 0.4 0.3 0.1 0.2 0.2 0.2 0.2 0.1 0.4 0.1 0.2-0.2 0.3-0.9 0.2-0.2 0.3-0.1 1-0.2 0.5 0 0.3 0.1 0.2 0.2 0.1 0.1 0.8 1.2 0.2 0.2 0.2 0.2 0.3 0.1 0.5 0.1 0.4-0.2 1.1-0.5 0.3 0 0.1 0.1 0 0.3-0.5 1-0.2 0.5 0 0.3 0 0.3 0.1 0.2 0.2 0.2 1.3 1.5 0.7 1 0.2 0.2 0.3 0.3 0.6 0.2 0.4 0.1 0.3 0 0.6-0.1 6.2-0.6 0.6-0.2 0.1-0.5 0.2-0.2 0.2-0.2 1-0.5 1.2-0.5 0.6 0 2.3 0.4 0.3 0.1 0.2 0.1 0.3 0.4 0.2 0.2 0.5 0.3 0.2 0.1 0.1 0.2 0.1 0.2 0.2 0.5 0.2 0.2 0.3 0.3 0.4 0.2 0.2-0.1 0.2-0.3 0-0.3-0.1-0.9-0.1-0.2-0.1-0.3-0.2-0.1-0.2-0.1-0.2-0.2-0.1-0.2 0.1-0.2 0.1-0.2 0.4-0.4 0.1-0.2 0.1-0.2 0.1-0.3 0.2-0.9 0.2-0.6 0.1-0.2 0.2-0.2 0.3-0.4 0.3-0.4 0.2-0.2 0.2-0.5 0-0.1 0-0.3 0.1-0.3-0.2-1.5 0.1-0.3 0-0.2 0.2-0.6 0.3-0.5 0.1-0.5 0.5-1.1 0.2-1 0-1.9 0.1-0.6 0.1-0.5 0.1-0.2 0.1-0.3 0.3-0.3 0.3-0.3 0.3 0 0.2 0.1 0.2 0.4 0.2 0.2 0.2 0.2 0.3 0 1.7-0.1 2.2 0.4 0.3 0 0.3 0 1.8-0.4 3.7 0.3 1.1 0.3z" id="IT78" name="Calabria">
  </path>
  <path d="M463.5 860.2l-0.3-0.5-0.4-1.2-0.2-1.2 0.7-0.6 0.3-0.1 0.4-0.3 0.3-0.1 0.4 0.2 0.5 0.7 0.3 0.1 0.5 0.2 0.4 0.2 0.3-0.1 0.4-0.8 2.3 2.2 0.8 1.1 0.1 1.7-1.4 1.9-2-0.2-2-1.5-1.4-1.7z m24.5-84l0.8 0.1-0.7 0.8-0.9 0.1-0.9-0.4-0.7-0.5-0.9 0.4-0.7-0.1-0.5-0.6-0.3-0.8 0.8 0.1 0.6-0.2 0.5-0.3 0.5-0.1 0.4 0.5 0.9 0.5 1.1 0.5z m13 20.4l-0.8-0.4-2.3-0.1-1.1-0.5-1-1.3-0.8-1.5-0.6-1.2-0.2-1.1-0.1-1-0.2-0.9-0.5-0.9-0.7-0.8-0.5-1.1 0-0.9 1-0.5 0.1 0.3 0.9-0.5 0.2-0.3-0.1-0.2 0.4-2.1 0.2 0 0.3-1.4 0-0.6-0.1-0.4-0.5-0.8-0.2-0.7 0-0.5 0-0.1 0.1-0.1 1.4-2.8 0.4-2 0.3-1.2 0.1-1.1-0.6-0.8 1.8-0.7 1.5-1.7 1.6-1.3 1.8 0.7 1.8-1.3 0.8-0.9 0.3-1.2 0.3-0.6 0.8 0 0.9 0.3 0.8 0.1 1.2-1.1-0.1-1.9-0.2-1.8 0.7-1.3 0.3 0.9 0.7-0.1 0.7 0.1 0.3 1.3 1.4 3.4 1.6 2.9 0.7 0.6 1.6 0.9 0.7 0.5 0.1 0.7 1.8 1.1 2.5-0.4 1.9-0.9 3-1.3 2-1.6 0.5-0.5 0.1-0.4-0.1-0.4-0.1-0.9-0.1-0.7-0.6-0.7-0.1-0.7 2-1.8-0.3-0.7 0.4-0.6 0.6-0.5 0.7-0.2 0.6 0.1 2 0.8 1.3 0.3 1.7 0 1.3-0.6 0.5-1.7 0.9 0.3 0.7-0.2 0.7-0.3 1.1-0.3 0.8-0.4 0.5-0.1 0.3 0.2 0.1 0.5 0 0.5 0.2 0.3 2.2 1.5 0.3 0.6 0.1 2.4 0.2 0.7 0.9 2.1 7.1-0.6 1.6 1.2-0.1 1.3 0.1 0.7 0.4 0.9 0.6 0.5 1.7 0.7 2.1 1.8 1.7 1.1 2.7 0.5 0.9 0.4-0.3 0.2 0 0.1-0.1 0.3 1.2 0 3.8 0.5 1.3-0.3 2.6-1.4 2.4-0.6 0.8-0.6 0.7-0.7 0.8-0.5 4.1-0.7 0.8-0.8 2.4 1.4 1.2 0.5 1.4 0.1 0.8 0 1.8-0.5 1.7 0.2 5.5 0.8 3.4-0.2 3.1-0.9 2.8-1.4 1.9 0.9 2.8-0.6 7.2-2.7 1.9-1.3 1.7-1.7 2.2-2.7 0.6-0.3 2 0.2 1.2-0.1 4.4-1.2 0.8-0.5 0.6-0.2 0.6-0.1 1.6 0.1 0.6 0.3 1 1.4 0.4 0.3 0.7 0 1.5 0.5 1.9-0.1 0.6 0.1 0.2 0.3 0.6 0.9 0.3 0.4 1.2 0.2 1-0.4 1-0.6 3.2-1.1 1.5-2 2.2-4.3-0.2-0.6 0-0.2 0-0.2 0.2-0.6-0.2-0.2 0.4 0 0.2 0.8-0.4 1.8 0.3 0.9 0.7 0.6 1 0.2 1 0 1.7-0.3 4.6-1.6 1.4-0.9 0.6-0.6 2.3-1.1 2.4-2.3 0.9-0.3 1.8 0.2 3.3 1.4 2.1 0.4-0.2 0.6-0.3 0.4-0.5 0.1-0.6-0.1-2.4 1.6-0.8 1-0.4 1-0.2 1 1 0-2.9 4.7-1.5 3.9-6.4 8.1-5.2 8.3-1.2 2.4-1 1.5-0.3 0.3-1.1 0.9-1.7 2.6-0.4 1 0.1 0.8 0.6 1.4 0.1 0.8-0.2 0.8-0.8 0.8-0.2 0.7-0.2 1.6-0.7 2.1-0.3 1.6-0.9 2.7-2.8 3.4-1.1 2-0.3 1.3-0.1 1.3 0.1 7.3 0 0.2 0.3 1.1 0.4 1 0.4 0.6 4.1 2.3 2.2 0.4 1.1 0.8 0.9 1.2 0.5 1.8-0.9-0.9-0.6 0.3-0.4 0.8-0.5 0.8 0.1-1.3-0.3-0.5-0.6 0-0.8 0.3 0.4 0.9-0.9 1.5 0.6 2.3 1.3 1.6 1-0.8 0.8 0.5 0 0.5-1.1 0.2 0.2 1.1 0.9 1.2 1 0.6 1.4 0.1 0.9 0.5 0.3 1.1-0.3 1.8-0.9-0.5-0.4 0.6 0.1 0.9 0.5 0.5 1.2-0.2 0.5 0.3 0.5 0.9 0.2 1.2-0.4 0.2-0.7-0.2-0.3-0.4-0.3 0.1-2.1 1.1 0.4 0.5-0.5 0.3-0.1 0.2 0.2 0.5 0 0.5-1.4 0.1-1 0.6-0.9 0.6-0.9 0.2-1.3 0.7-0.9 1.4-3 7.7 0 0.8-0.8 0.7 0.3 1.4 1.1 2.4 1 4.4 0 0.9-1.2 1.1-1.2 0.4-1.2-0.4-1.1-0.9-0.8-1.1-0.5-0.5-0.7-0.4-0.8-0.2-0.4 0-0.1 0-0.3 0.5-0.6 0.5-1.5-0.7-2.3-1.6-2.1-0.8-2.1 0.3-3.9 2-0.2-0.6-0.2-0.2-0.7 0.3-1-0.9-3.5-0.5-0.8-1.3-0.7-0.8-3.4-1.3-1.1-0.7-1 0.2-4.6-1.1-0.6-0.8-4.8-10.3-1.5-2.1-2-2-3.3-3.2-4.1-2.7-4.8-2.3-2.2-0.4-2.9 0.3-3.7 0.3-0.6 0.1-1.1 0.7-0.6 0.2-2.5-0.3-3.7-2.9-2.2-0.9-2.5-0.5-2.1-0.9-1.9-1.4-5-4.9-1.7-1.3-2.1-0.6-2.6-0.5-2.1-0.7-1.9-1.2-2.9-2.3-2.5-1.5-1-1.1-0.6-0.3-0.7-0.3-0.7-0.3-1.4-2.8-0.4-0.3-1.3-0.8-0.6-0.9-0.5-0.4-0.7-0.2-0.3-0.2-0.6-1.1-0.3-0.2-7.2-1-0.8 0.4-0.7 0.1-0.5-0.3-0.4-0.7-0.4-1.5-0.2-0.6-1.5-1.6-1.9-0.8-2.8-0.4-1.9-0.2-4.7 0.1-4.9 0.9-2.3-0.2-1.3-1.3-2.5-4.1-1-1z m-31.7-25.2l1-0.1 0.6 0.5 0.5 1.3 0.3 0.6 0.1 0.7-0.8 0-1.1-0.7-0.6-1-0.4-0.8 0.4-0.5z m173-27.8l-1.3-1.3-0.9-1.1-0.2-1.2 0.8-1.6 0.4 0 0 1.1 1 0.5 0.6 0.7 0.5 0.8 0.3 1.1-0.5 0.5-0.7 0.5z m-1.6-10.3l0.4 0.3 0.5 0.5 0.3 0.2 0 0.5-1.6 0 0.3 0.9 0.2 0.3 0.3 0.3 0 0.6-1 0.2-0.8-0.6-0.8-0.8-0.8-0.4-0.5-0.5 0.1-1.3 0.5-1.3 0.9-0.5 1.9 0 0.5 0.5-0.4 1.1z m-4.8-5.1l-0.3 0.3-0.2 0.4-0.3 0.8-0.1 0.8-2.2-1-1.8-1.5 1.3-0.9 2.1-0.1 0.9 0.3 0.6 0.9z m-30.3 2.3l-0.8 0.3-0.2-0.9 0.8-0.3 0.2 0.9z m10.7-3.6l0.2-0.1 1 0.3 0.7 0.5 0.2 0.8 0.4 0.4 0 0.3-0.7 0.1-1.3-0.4-0.5-1 0-0.9z m39.6-14l-0.7-0.2-1.1-1 0-0.3 0.4-0.4 0.5-0.3 0.3-0.3 0.2-0.3 0.4-0.1 0.6 0.1 0.4 0.2 0.2 0.3-0.1 0.6-0.3 0.5-0.1 0.4-0.3 0.5-0.4 0.3z m-121.1 5.3l0.3-0.6 0.6-0.5 1 0 0.6 0.4 0.1 0.3-1.2 1.1-0.7 0.2-0.7-0.3 0-0.6z m-17.7 209.9l-0.3-0.5 0-0.4 0.4-0.2 0.4-0.1 0.4 0 0.4 0.4 0.2 0.8-0.3 0.2-0.9 0-0.3-0.2z m-14.9 26.1l-0.2 0-2.3-1-1.1-0.3-0.6-0.3 0.5-0.4 1.2 0 0.7 0.2 2.7 0.3 0.5 0.1 0.1 0.1-0.1 0.2 0 0.1 0.1 0.5-0.1 0.6-0.6 0.2-0.5-0.1-0.3-0.2z" id="IT82" name="Sicilia">
  </path>
  <path d="M260.6 690.3l0.3 0.2-1.1 1-0.3 0.5 0.2 0.6-0.5 1.1-0.5 2.5-0.5 2.1-0.3 0.3-0.6 0.2-0.7-0.1-0.2-0.4-0.1-0.5-0.2-0.6-2.2-3.6-0.9-2.5 0.3-1.6 0-0.6-0.5 0 0-0.5 0.9-1.5 1.5 1 1.8-0.2 1.6 0.3 0.7 2.2 0.1 0.5 0.3 0.2 0.4-0.1 0.4-0.3 0.1-0.2z m-13.1-2.6l0.1-0.8 0-0.5-1.4-1.5-0.5-1 0.3-1.2 0.9-0.6 2.7-0.5 0.9-0.4 0 2.4 0.3 3.1-0.3 1.2-0.9 0.4-1.3-0.1-0.8-0.5z m17 4.2l-1.4-0.7-1-0.2 0.3-0.3 0.5-1.2-0.8-0.6-1.2 0.8-0.1-0.3-0.2-0.4-0.3-1.3-0.5-0.9-0.6-0.4-0.7 0.5-0.3-0.8 0.1-1.9-0.2-0.9-0.4-0.6-0.6-0.3-0.4 0.1 0.2 0.8-0.3-0.3-0.3-0.4-0.2-0.5 0-0.7-0.2-0.8-0.3-0.2-0.4-0.1-0.4-0.2-0.4-1.1-0.1-0.6 0.3-0.6 3-3.4 0.3-1.4-1-1.7 0.1-1.2-2-1.5-0.5-1.5 0.2-0.7 1.1-1.2 0.3-0.6 0.2-1.1-0.1-0.7-0.3-0.8-0.5-1.2-0.2-0.3 0-0.3 0.5-0.9 1.6-2 0.8-1.3 0.9-2.5 0.7-1.4-0.4-0.6 0.5-1-0.2-1.5-0.7-3.2-0.2-3.4-0.2-0.8 0-0.5 0.2-0.8-0.1-1.9 0.1-0.5 0.8 0.2 0.5 0.4 1.9 3 1 1 1.2 0.5 0.6-0.1 1-0.3-3-0.9-0.6-0.6 0.2-1.3 0.7-1.3 1-1.2 0.5-0.9-0.4 0-0.2 0.5-0.2 0.4-0.4 0.4-0.4 0.2 0.7-0.7 0.7-1.3 0.4-1.4 0.2-1 0.2-2.5-0.1-0.8-0.5-1.1-1.3-1.6-1.7-1-1.8-0.1-1.6 1.1 0.4 0.5 0.2-0.4 0.2-0.1 0.4 0 0.4 0-0.7 0.5-0.4 0.7-0.5 1.9-0.4-0.5 0.5-0.9-0.4-0.6-0.7-0.6-0.9-0.8-0.2 0-0.1-0.2-0.2-0.5-0.1-0.6 0.2-0.5 0.2-0.5 0.1-0.5-0.5-2.8 0.1-0.9 0.7-1.7 0-0.9-0.7-1.1-0.9 0.5-0.1-0.3 0.4-0.6 1-0.6 0.2 0 1.7-0.1 1.1-0.4 0.4-0.1 0.5-0.4 0.6-0.9 0.5-1.2 0.2-1.1-0.3-1.1-1-2-0.3-1.4-0.2-4.1 1-3.5 0-2.3-0.8-1.8-1.3-1.3-1.5-1-0.4 0.5-1.3-1-0.2-1.6 0.5-3.1 0.2-0.9-0.3-1.4-0.6-2-0.8-1.8-0.9-0.8-1.1-0.7-0.5-1.5-0.2-1.9-0.5-1.8-1.2-1.3-1.4 0.1-3 1.8-1.2-0.6 0.6-1.5 0.6-1.1-1.3-0.4-1 0.8-0.6 1.6-0.3 1.7-0.5-1-0.3-1.2-0.4-2 0-0.5 1-0.6 0.9-0.7 0.7-1.1 0.2-1.9 0.2 0 0.2-0.4 0.1-0.4-0.3-0.2-0.8-0.1-0.3-0.2-0.3-0.3-0.9-1.4-0.4-0.5-0.7-0.2 4.4-10.6 0.4-1.2 0-1.5-0.4-1.1-1-0.5-0.8-0.6 0.2-1.3 0.7-1.4 0.5-0.9 0.4 0 0.2 0.9 0.4 0.1 0.6 0 0.4 0.6 0 0.6-0.3 0.9-0.1 1 0.2 0.9 2.6 3.5 1.9 1.1 6.6 1 3.3 0.9 1.3 0.2 1.2-0.2 4.5-2 1.2-1.1 0.9-1.2 0.4-1.1 4-1.9 1.5 0 1 0.1 0.8 0.4 2.7-2.1 0.7-0.5 1-1.1 2.1-3.6 0.7-0.6-0.1-0.3 0-0.1-0.3-0.2 1.9-0.7 0.6-0.3 0.4-0.5 0.6-1.4 0.3-0.3 0.8-0.4 1-1 0.9-1.1 0.8-1.9 1.1-0.6 4.1-0.5 0.8-0.3 1.6-1.6 0.4 0.6 0.9-1.3 0.4-1.2-0.1-3.2 0.5-1.4 1.1-0.6 1.4-0.4 1-0.5 0.1 0.7 0.4 0.4 0.5 0.1 0.6-0.2 0.6 1 0 2.7 0.6 0.6-0.2-0.4-0.1-0.4 0.1-0.6 0.2-0.7 0.4 0 0.3 1-0.1 0.2-0.2 0.4 0 0.5 0.9-0.1 0.3-0.2 0.4-0.2 0.3 0.4 0.9 0.6 0.2-1.8 0.9 0.3 2.2 2.1 0-0.6 0.5 0.3 0.4 0.2 0.5 0.1 0.6 0 0 0.5-0.3 0.2-0.2 0.3-0.1 0.2-0.2 0.4 0.6 0.3 0.4 0.5 0.4 0.7 0.6 0.6-0.4 0.6 0 0.8 0.4 1.8 0.6-1.6 0.4-0.6 0.6-0.5-0.2-0.3-0.1-0.3-0.2-0.3-0.3-0.2 0.7-0.4 0.7 0 0.8 0.3 0.8 0.1 0.3-0.2 0.3-0.4 0.3-0.1 0.5 0.7-0.4 0.6 0.5 0.4 0.4 0.4 0.3 0.1 0.4-0.4 0.4 0 0.1 0.4 0.1 0 0.2 0.2-0.1 0.9-0.1 0.8-0.4 0.7-0.6 0.8-0.1-0.4-0.2-0.3-0.1-0.4-1 4.7-0.6 1.2 1.2 0-0.4-1.1 1.1-0.5 0.6 0.2 0.2 0.7-0.3 1.2 0.3 0 0.1-0.1-0.1-0.2 0.1-0.2 0.4 0.4 0.1 0.1 0.3 0 0.9-0.9 1.6 0.1 1.7 0.6 1.1 0.7-0.7 0.9-0.9-0.1-1-0.5-0.9-0.3-0.9 0.6-0.3 1.2-0.3 1.4-0.7 1 0.3 1.1-0.8 0.3-2.7-0.3 0 0.4 0.1 0.1-0.5 0.1 0.4 0.9 0.5 0 0.5-0.3 0.6-0.1 0.6 0.3 1.1 0.7 0.3 0.1 1.2-0.3 0.8-0.6 0.9-0.4 1.2 0.2-0.3 0.7-0.4 0.5-0.4 0.4-0.6 0 0 0.5 2.1 1.1 0.4 0.3 0.1 0.9 0.3 0.5 0.5-0.1 0.7-0.5 0.4 0.7 0.5 0.5 0.7 0.2 0.8 0.2-2 0.7-0.6 0.5 0.6 0.9 0 0.5-0.9-0.2-0.8 0.4-0.2 0.7 0.6 0.7 0.1-0.8 0.3 0.9 1.7 2.3 0.4 1.1 0.2 1.4 1.8 3.6 0.2 1 0 0.6 0.3 4.2 0.2 0.8 0.3 0.6 0.3 0.3 0.9 0.1 0.2 0.5 0 0.7 0.4 0.8 1.6 1.6 0.4 0.5 0 0.7-0.7 1.4-0.2 0.7-0.2 1.7-0.5 1.2-1.3 2.2-0.9 2.8-0.8 1-1.2 0.4-0.9 0.5-0.7 1-1 2.2-0.8 0.9-1.4 1.3-0.7 1-0.5 1.5-0.1 1.2 0.2 1.8 0.1 1.4 0.1 0.7 1.4 4 0.6 1 0.9 0.4 0.4 0.4 1.4 1.9 1.2 1-0.1 1.1-2.1 5.8-0.4 2.5 0.6 2 0.3-0.2 0.4-0.3 0.4 0.1 0.1 0.4-0.2 0.8-0.4 0.1-0.4 0-0.2 0.2-0.5 1-0.3 1 0 0.9 0.4 0.8-0.4 0 0 0.5 0.2 0.1 0.3 0.3 0.3 0.1 0 0.5-0.8 0.9-0.5 1.6-0.3 1.9-0.1 1.9 0.1 1 0.3 1.9 0.1 1-0.2 0.8-0.5 1.3-0.1 1.1-0.2 0.4-0.2 0.6-0.3 0.8-0.1 1 0.4 3.4-0.2 2.1-0.4 1.4-1 3.6 0.9 1.3-0.3 2.4-1.5 4.1-0.7 3.3-0.1 1.1 0.2 1.1 0.5 0.7 1.3 1.1 0 0.4-1.6 0.6-1.5 1.8-0.8 2.1 0.3 1.8-0.4 0.7 0.2 0.4 0.4 0.4 0.2 0.6-0.1 0.5-0.6 1.6-0.1 0.7-0.5 0.7-1.1 0.5-0.9 0.7-0.3 1.5-0.4-0.3-0.3-0.2 0.1-0.4 0.2-0.6-0.9-0.7-0.9-0.1-0.9 0.2-0.9 0.6-0.4 0-0.3-0.7-0.5-0.4-1.2-0.5-1.5-1.8-0.4-0.3-0.5-0.3-1.4-1.5-0.5-0.3-0.6-0.1-0.8-0.4-0.7-0.5-0.5-0.5-0.4 0.5-0.8-0.5-1.1-0.3-2.1-0.2-1.1 0.5-1 1-0.7 1.1-0.2 0.5-1.7-0.6-1.3-1.3-2.4-2.8-0.6 0.4-0.4-0.3-0.5-0.7-0.5-0.4-0.9-0.2-0.6 0-0.1 0.3 0.8 0.3 0 0.6-0.3 0.6 0.4 0.4 0.5 0.2 0.1 0.4 0.1 0 0.6 0.1 1.5-0.3 0.3 0.4 0 0.6-0.1 0.3-2.3 2.6-0.8 1-0.4 1.5-0.2 1.6 0.2 1.5 0.3 1.4 0.5 1.2 0.3 0.5 0.4 0.4 0 0.5-0.9 1.6-0.6 2.6 0.4 0-0.6 0.5-0.2-0.1-0.4-0.4-0.5 1-6 6.1-0.4 0.1-0.6 0.1-0.3 0.2-0.6 1.1-0.5 0.3-0.7-0.2-0.8-0.6-1.3-1.3 0 1.5-0.9-1.4-1.4-1.2-1.6-0.8-1.3-0.1-1.3 0.5-1.5 1.1-1 1.5 0.2 1.5-0.9 0.5-0.3-0.5 0.4-1.4-0.5-0.4-1.1-0.1-0.9-0.2 0-0.5 0.9-1.3 0-1.9-0.3-0.5-0.4-0.8-1.3 0.4-0.5-4-0.7-3.3-0.5 0-0.4 0.4z m-19-150.4l0.1-0.7 0-0.8 0.4-0.6 0.7-0.8 1.1-1 0.9-0.4 0.1-0.9-0.1-1.1 0.1-0.8 0.4-0.1 1.1 0.2 0.2-0.3 0.1-0.4 0.3-0.4 0.8-0.6 0 0.6 0.1 0.5 0.2 0.5 0.6 0.6 0.2 0.9-0.2 1-0.6 0.7-3.3 0.6-1.4 1 0 2.2-0.3 1.7-2.2-0.1 0.5-0.7 0.2-0.8z m73.5-13.2l0 0.4-0.2 0.6-0.4-0.1-0.4-0.6-0.5-0.4-0.4 0.2-0.3-0.2 0.7-1.5-0.3-0.5 0.2-0.7 0.4-1.1 0.4-0.6 0.4 0.1 0.4 0.4 0.3 0.6 0 0.3 0 0.6-0.5 2.1 0.2 0.4z m-5.9-2.9l0-0.7 0.2-0.3 0.5-0.2 0.4-0.3 0.2-0.5 0.1-0.7 0.3-0.1 0.3-0.1 0.4-0.3 0.4 0.1 0.4 0.6 0.1 0.6 0 0.6 0 0.7 0.1 0.3 0.2 0.4 0 0.3-2.3 0.5-1.1-0.3-0.2-0.6z" id="IT88" name="Sardegna">
  </path>
  <path d="M486.9 307.1l-0.4-0.2-0.2 0.4-0.4 0.2-0.6 0.3-1.2 0.9-2.6 1.6-0.4 0.1-0.4 0-0.3-0.1-2-0.1-0.3 0-0.7-0.4-0.2-0.1-0.2 0-0.2 0.1-0.2 0.2 0 0.3-0.1 0.7 0.2 1.2 0 0.3-1.1 5.1-0.3 0.8-1.1 1.4-0.4 0.9-0.7 2.8-1.2 0.4-0.8 0-5.8-1.5-0.8-0.7-1.1-1.1-1-0.7-2-1-0.6-0.1-2.6-0.3-0.6-0.1-0.4-0.2-0.2-0.2-0.7-0.7-0.5-0.7-0.3-0.3-3-1.7-0.7-0.6-0.3-0.2-0.4-0.5 0-2.8-0.2-0.4-0.3-0.4-0.3-0.2-0.5-0.3-0.1-0.3 0-0.4 0.1-1.1-0.1-0.4-0.1-0.3-1.4-1.2-0.4-0.5-0.1-0.3-0.1-0.4 0.1-0.3 0-1.1 0.1-0.4 0.2-0.3 0.2-0.1 1-0.1 0.3-0.1 0.2-0.2 0.6-0.9 0.1-0.3 0.3-0.9 1-1.4 0.2-0.4 0.2-0.6 0.2-1.1 0.5-1 0.2-0.4 0.3-0.7 0-0.4-0.1-0.3-0.2-0.1-0.3-0.1-0.3 0-0.5 0.1-0.2 0-1.6 0.1-0.8 0.2-1.5 0.7-0.5 0.1-0.6 0-1.8-0.4-0.6-0.3-0.3-0.2 0-0.3 0.1-0.2 0.2-0.3 0.7-0.7 0.2-0.2 0.1-0.2-0.1-0.4-0.3-0.5-0.9-0.6-0.5-0.2-0.5-0.1-0.2 0.2-0.2 0.2-0.1 0.2-0.4 0.2-0.3 0.1-1.4 0.1-0.6 0-1.2-0.4-0.7-0.6-2-2.5-0.4-0.6-0.2-0.7-0.3-0.3-0.2-0.2-0.8-0.5-0.3-0.1-0.6-0.1-0.3 0.1-0.3 0.1-0.2 0.2-0.1 0.3-0.5 1-0.2 0.2-0.3 0.2-0.5 0.1-1.1 0-0.5 0.1-0.2 0.3-0.1 0.2-0.1 0.1-0.3 0.4-1.8 2-0.6 0.2-4.6 0.8-0.2 0.1-0.1 0.3-0.1 0.2 0 0.3 0.1 0.3 0.1 0.2 0.2 0.2 0.2 0.2 0.5 0.3 1.9 0.8 0.3 0.1 0.2 0.2 0 0.3-0.1 0.3-0.5 0.4-0.9 0.3-0.9 0-0.9-0.1-0.1-0.1-8.8 1.1-0.4 0-1.9-1-0.2-0.3-0.2-0.4 0.1-0.3 0.1-0.2 0.4-0.5 0.2-0.2 0.1-0.5-0.1-0.3-0.3-0.2-0.3-0.1-0.3 0-0.5 0.1-0.1 0.2-0.1 0.3 0 0.3-0.1 0.2-0.1 0.1-0.1 0.2-0.5 0.6-0.2 0.2-0.5 1-2.3 2.8-0.2 0-0.3-0.1-1-0.5-0.5-0.3-0.5-0.6-0.2-0.2-1.3-0.5-0.3-0.2-0.1-0.2-0.2-0.2-0.6-0.5-1.1-0.4-0.9-0.4-3.9-3-1.6-0.6-3.3 0.3-0.3 0.1-0.5 0.3-0.2 0.1-0.2 0.2-0.1 0.3-0.4 0.8-0.3 0.4-0.3 0.5-1.7 0.2-0.7-0.2-2.8-2.5-0.4-0.5-1.9-2-0.1-0.3-0.1-0.2-0.1-0.3 0-0.3-0.1-1.1-0.3-0.9-3.2-0.6-1-0.4-0.2-0.1-1.5-2.1-0.7-0.7-0.5-0.3-3.2-0.6-0.5 0-1.4 0.9-0.6 0.1-0.2 0.1-1.2-1-0.7-0.9-0.2-0.3-0.6-1.5-0.3-0.3-0.3-0.2-0.3-0.1-1.1-0.4-2-1.2-0.8-0.6-2.1 0-0.8-0.3-0.7-0.7-0.4-0.5-0.1-0.2-3.6-3-0.3-0.6 0-0.2 0.1-0.3 0.2-0.2 0.6-0.3 0-0.2 0.1-0.4-0.3-0.7-0.2-0.3-0.2-0.3-3.2-1.8-2.3-0.7-1.8-0.3-0.4 0-0.4 0-0.5 0.3-0.5 0.2-0.9 1-1.1 1.6-1.4 1.6-0.9 1.3-0.1 0.3-0.2 0.2-0.2 0.9-0.1 0.3-0.2 0.1-0.3 0.2-1.6 0.6-1 0.1-0.2 0.2-0.2 0.1-0.2 0.2-0.1 0.3 0 0.3 0.2 0.5-1-1-0.5-1.1-0.3-1.1-0.2-0.5-0.3-0.3-3.1-1.7-0.4-0.1-1.2 0.1-0.9-0.2-1.2 0.1-1.4-0.1-0.3 0.1-0.4 0.5-0.2 0.2-0.3 0.2-0.2 0.1-0.7 0.3-1.3 0.1-0.8-0.1-0.1-0.2-0.1-0.4 0-0.5 0.1-0.4 0.2-0.7 0.5-2.5 0.1-0.2 0.2-0.3 0.2-0.1 0.2-0.1 0.4-0.3 0.4-0.4 0.6-1 0.3-0.6 0.1-0.5 0.1-1.4-0.2-1.8 0-0.3-0.6-0.7-2.3-0.9-0.6-0.3-0.3-0.4-0.7-1-0.4-0.1-0.2 0-0.2 0.2-0.5 0.6-0.3 0.2-0.5 0.1-1.1 0-0.5-0.1-0.3-0.1-0.2-0.2-2.4-1.6-0.7-0.2-0.4-0.1-0.6 0.3-0.5 0.2-0.4 0-0.2-0.1-0.5-0.6-0.5-0.4-0.4-0.2-0.3 0-0.6 0.2-0.7 0.3-0.1-5.6 1.8 0.2 0.6-0.3 0.1-0.6 0.1-0.4-0.1-0.7 0.1-0.4 0.1-0.5 0.2-0.1 0.2 0.1 0.2 0.2 0.3 0.9 0.2 0.2 0.5 0.2 1.1 0.2 0.5 0 0.4-0.1 0.3-0.3 0.3-0.4 0.2-0.3 0-0.4 0-0.3-0.3-1.3-0.5-1.6-0.1-0.3-0.1-0.4 0.3-0.7 0.4-1 1.4-2.1 0.8-1.8 0.2-2.1 0-0.3 0-0.4-0.1-0.3-0.2-0.2-0.1-0.2-0.5-0.3-1-0.5-0.5-0.3-0.2-0.1-0.4-0.4-0.1-0.2-0.2-0.4 0-0.5 0-0.9 0.1-0.6 0.2-0.4 0.3-0.7 0.5-0.7 3.7-8.6 1.8-3 0.2-0.5 0.4-1.1 2.7 0 1.2-0.2 0.6 0 0.6 0.2 1.2 1.1 0.6 0.1 0.2-0.9-0.1-0.8-0.2-0.7-0.1-0.7 0.2-0.6 0.2-0.1 0.4-0.2 0.5 0.5 0.7 1.1 1 0.2 0.8-0.4 0.6-0.6 0.9-0.3 0.7 0.2 0 0.3-0.2 0.5-0.2 0.4 0 1.1 0.1 0.4 0.8 0.5 1.9 1 2.4 0.3 1.7-0.8 0-2.2 0.2-0.1 0.1 0 0-0.1 0.1-0.4 0.3 0 0.7 1.2 2.1 1.3 0.5 0.7 0.2 0.7 0.6 0 0.4-0.4-0.2-0.9-0.4-1 0.5-0.2 2.5 0.6 0.8 0 0.3-0.7-0.9-1.5-0.1-1.4 1.2-0.3 1.1 0.7-0.4 1.8 4.2-1.7 0.6 0.3 0.3 0.4 1.1 0.8 0.3 0.5 0.1 0.6 1.1 2.6 1.5 2.4 1.9 0.2 2.2-0.7 2.4-0.3 2.4 0.7 6 3.9 1.4 0.6 0.9-0.1 0.8-0.3 1.2-0.2 0.8 0.5 1 2.8 0.8 1.2 2 1.1 1.4 0.4 0.1 0 1 0.2 2.6 0.1 2.1-0.6 1.9-1.4 1.8-2.1 0.9-1.8 0.8-0.3 0.2 0.1 0.3 0.2 0.5 0 0.9 0 0.7 0 0.2 0.2 0.8 0.6 0.2 0.2 0.1 0.2 0.1 0.3 0.1 0.3 0 0.3 0 0.3-0.2 0.2 0 0.3-0.1 0.3 0.2 0.2 0.2 0.2 5.6 1.3 0.3 0.2 0.5 0.3 0.2 0.2 0.6 0.4 0.1 0.1 1.9-0.7 0.6-0.4 0.3-0.1 0.5-0.3 1.7-0.4 0.4-0.2 0.3-0.2 0.3-0.5 0.1-0.3 0.2-0.1 0.2-0.2 4.9-0.7 0.4 0.1 3.2 1.3 0.2 0.1 0.2 0.2 0.5 0.7 0.2 0.2 1.3-0.1 4.2-1.3 1 0.4 0.3 0 0.4-0.3 0.3-0.6 0.2-0.3 0.2-0.1 0.3-0.1 4 0.2 2.9 0.6 0.6 1 1.1 0.1 2.3-0.5 1.2 0 0.9 0.3 1.7 0.8 3.1 2.6 0.9 0.3 1.1-0.3 0.8-0.6 1.3-1.4 2.4-0.8 1-0.5 0.2-0.9 0.5-0.6 0.6-0.4 0.6-0.2 1 0 0.2-0.2 0.3-0.8 0.3-0.2 1.4 0 2.8-0.6 1.5 0.3 0.9 0.1 0.7 0.2 0.5 0 2.2-0.6 0.6 0 0.4 0 0.3 0.1 5.7 1.1 1 0.5 0.6 0.5 0.2 0.2 0.1 0.2 0.3 0.9 0.2 0.3 0.4 0.2 0.7 0.3 0.5 0 0.4-0.1 0.4-0.2 0.3 0 1 0.5 1.8 0.4 0.5 0 0.1-0.1 0.2-0.1 0.2-0.2 0.3-0.1 1.6-0.3 0.5 0 0.4 0 0.2 0.2 0.1 0.3 0.1 0.2 0 0.3-0.1 0.2-0.3 0.5-0.1 0.3-0.1 0.3 0 0.3 0 0.3 0.2 0.9 0.1 0.9 0.1 0.6 0.1 0.3 0.1 0.3 0.2 0.3 0.4 0.2 1.3 0.5 0.4 0.1 0.2 0.2 0.2 0.2 0.1 0.3 0.1 0.2 0 0.3 0.1 0.8 0 0.3 0.1 0.2 0.2 0.3 0.8 0.7 1.7 1.3-1 0.1-1.1-1-0.6-0.9-1.5-1.5-1.1-0.8-0.6 0-1.5 1.3 0 0.5 0.8 0-1.6 5.8-0.4 3.2 0.4 3.6 0.7 2.7 0.3 0.5 0.3 0.8 0.5 0.5 0.1 0.9-0.3 5.9 0.2 3.6 1.8 8.2 0.2 2.2 0.2 0.6 0.2 0.5 0.8 1.1 0.2 0.4 0.1 1.7 0.4 1.7 1.1 3 1 1.8 0.2 0.5 1.6 2.3 2.4 2.3 1.2 2.2 1.9 2.1 2.2 1.7 1.5 0.6 3.4 4.6 1.7 1.7 1.8 1.5 1.1 0.6 2.6 0.9 0 0.1-0.3 0.8-0.6 1.8-0.1 0.7 0 0.3 0 0.3 0 0.4 0.1 0.2 0.1 0.6 0.1 0.2 0 0.3-0.1 0.3-0.6 1.3-0.1 0.3-0.2 0.2-0.2 0.1-1.3 0.6-0.2 0.2-0.2 0.2-0.1 0.2-0.2 0.2-0.2 0.6-0.1 0.2-0.2 0.2-0.3 0.2-0.3 0-2.1 0-0.4-0.1-0.3-0.2-0.3-0.5-0.2-0.4-0.3-1.2-0.3-0.5-0.4-0.7-0.3-0.5-0.2-0.2-0.2 0-0.5 0.2-0.2 0.3-0.2 0.3-0.1 0.3-0.1 0.2-0.2 0.2-0.2 0.2-0.2 0-0.2-0.2-0.2-0.6-0.1-0.4 0.1-0.4 0-0.3-0.3-0.4-0.3-0.3-2.4-1.3-0.8-0.5 0.4-0.8 0.1-0.8 0-0.6-0.1-0.7-0.1-0.7-0.4-0.8-1.7 0.3-1.5 0.8-0.3 0.2-0.3 0.3-0.3 0.3-0.3 0.3-0.3-0.2-0.8-0.6-0.9-0.2-0.7 0.8-0.6 0.5-0.8-0.7z" id="IT45" name="Emilia-Romagna">
  </path>
  <path d="M491 307.5l-0.6 0.6-0.6 2 0.2 0.5 0.6 1.2 1.2 0.7 0.5 0.2 0.7-0.1 1.2-0.2 0.2-0.3 0.8-1.4 0-0.3 0-0.2 0.1-0.2 0.1-0.2 0.1-0.1 0.8 0.5 2.4 1.3 0.3 0.3 0.3 0.4 0 0.3-0.1 0.4 0.1 0.4 0.2 0.6 0.2 0.2 0.2 0 0.2-0.2 0.2-0.2 0.1-0.2 0.1-0.3 0.2-0.3 0.2-0.3 0.5-0.2 0.2 0 0.2 0.2 0.3 0.5 0.4 0.7 0.3 0.5 0.3 1.2 0.2 0.4 0.3 0.5 0.3 0.2 0.4 0.1 2.1 0 0.3 0 0.3-0.2 0.2-0.2 0.1-0.2 0.2-0.6 0.2-0.2 0.1-0.2 0.2-0.2 0.2-0.2 1.3-0.6 0.2-0.1 0.2-0.2 0.1-0.3 0.6-1.3 0.1-0.3 0-0.3-0.1-0.2-0.1-0.6-0.1-0.2 0-0.4 0-0.3 0-0.3 0.1-0.7 0.6-1.8 0.3-0.8 0-0.1 0.1 0 2.8 0.4 1.1 0.7 2.3 1.9 3.9 1.6 0.6 0.9 0.5 0.6 13.5 11.8 4.5 4 6.8 4.2 1.2 0.5 0.5 0.7 2.8 1 1.6 0.9 0.5-0.3 0.5-0.6 0.3-0.3 0.2-0.1 0.1-0.2 0.2-0.1 0.3-0.1 0.4 0.1 0.1 0.4 0.2 0.4 0.1 0.1 1.2 0.6 0.8 1.4 0.7 1.3 0.6 0.6 1.1 0.3 1 0.7 0.5 1.1-0.4 1.3 1.7 4.5 5.8 14.8 0.9 2.3 0.9 1.6 0.3 0.6 0.3 2.9 0.3 0.6 0.7 1.2 1.9 4.1 0.8 2.8 0.3 2 0.7 4.8 2.3 8.5-1 0.1-4.2 1-3.3 1.5-1.2 0.4-0.9-0.1-0.3 0.1-0.4 0.3-0.5 0.6-0.2 0.4-0.2 0.3 0 0.8-0.1 0.3-0.1 0.3-0.1 0.2-0.2 0.2-0.4 0.3-1 0.5-1.6 0.3-0.4 0-0.3-0.1-0.6-0.2-0.3 0-0.3 0-1.6 0.6-0.4 0.1-0.3 0-0.3-0.1-0.2-0.1-0.4-0.4-0.2-0.1-0.3-0.1-0.3 0.1-0.4 0.3-0.5 0.7-0.6 1.4-0.2 0.2-0.5 0.7-0.1 0.2-0.1 0.3-0.1 0.3-0.1 0.6-0.1 0.4-0.1 0.3-0.2 0.2-0.5 0.2-0.9 0.3-0.6 0.2-0.5 0.3-0.4 0.6-0.2 0.5-0.1 0.4-0.1 0.6-0.6 0.4-0.5 0.2-4.3 0.6-1.5-2.6-0.5-0.5-1.2-1.1-0.5-0.3-0.4-0.1-0.2 0-0.1 0.1-0.6 0.5-0.3 0.1-0.3 0-2.8 0.1 0-1.1 0.3-0.6 0.2-0.3 0.4-0.1 0.2 0.1 0.4 0.1 0.4 0 0.7-0.2 0.4-0.3 0.2-0.2 0.1-0.3 0.3-1.7 0-0.4 0-0.4 0-0.3-0.1-0.6-0.4-1-0.5-1-0.1-0.2-0.2-0.2-0.1-0.1-0.4-0.2-3.4 1.8-1 0.1-0.1-0.2-0.1-0.3-0.1-0.6-0.1-0.3-0.1-0.2-0.2-0.5-1.9-2.1-0.3-0.4-0.6-0.6-1.2-1-0.8-0.9-0.4-0.4-0.4-0.2-0.2 0.1-0.4 0.1-0.5 0.1-1.7-0.1-0.4 0.1-0.1 0.3 0 0.2 0.1 0.3 0.2 0.5 0 0.3-0.1 0.3-0.2 0.2-0.6 0.2-0.2-0.1-0.2-0.3 0-0.2 0-1.4 0-0.3-0.1-0.3 0-0.3-0.2-0.3-0.1-0.2-1.6-1-0.3-0.4-1-1.3-0.3-0.6-0.2-0.6 0-0.7 0-0.3-0.1-0.3-0.3-0.5-0.1-0.2 0-0.3 0-0.3 0.1-0.7 0-0.3 0-0.3 0-0.1-0.3-1-0.1-0.9 0-0.8 0.2-1.3 0.1-0.7-0.2-0.6-0.3-0.6-0.7-1.1-0.5-0.5-0.4-0.3-0.9-0.1-0.3-0.2-0.1-0.3-0.2-0.8 0-0.3 0-0.2 0.2-0.2 0.4-0.4 0.3-0.4 0.1-0.3 0.2-0.2 0-0.3 0.1-0.3 0-0.4 0-0.3 0-0.6-0.3-1.2 0-0.2-2.9-4.9-0.4-0.7-0.1-0.6 0.1-1.1-0.1-1.2-0.1-0.4-0.2-0.4-2-3.3-0.3-0.6-0.2-0.5 0-0.3 0.4-2 0.1-0.7 0-0.3 0-0.6 0.2-1.1 0-0.3 0-1.4-1.5 0.1-1.1 0.5-0.3 0.3-0.2 0.1-0.5 0.8-0.3 0.4-0.3 0.1-0.3-0.1-0.7-0.4-0.7-0.2-0.7-0.1-0.4 0-0.2 0-0.2 0.2-0.5 0.5-0.5 0.4-0.3 0.1-0.3-0.2-5.5-6.6-1.3-0.8-2.7-1.1-0.6-0.2-0.3 0.1-0.3 0.1-0.2 0.1-0.3 0.5-0.3 0.2-0.3 0.2-0.6 0.1-0.7-0.2-3.6-1.7-0.4-0.3-0.2-0.2-0.2-0.2-0.1-0.3 0-0.3 0.1-0.2 0.2-0.2 0.3-0.1 0.3 0.1 0.9 0.1 0.3 0 0.2-0.1 0.3-0.1 0.1-0.2 0.2-0.3 0.1-0.2 0.1-0.3 0-0.3 0-0.3-0.2-0.4 0-0.3 0.1-0.3 0.2-0.5 0.1-0.3 0-0.4-0.1-0.4-0.2 0-0.3 0-2.3 0.9-0.2 0.1-0.3 0.2-0.1 0.2-0.2 0.6-0.2 0.2-0.5 0.1-0.3-0.1-1.2-0.8-0.9-0.3-0.5-0.1-0.7 0-0.7-0.1-0.2-0.2-0.2-0.4-0.7-2.3 0-0.3 0.1-0.4 0.3-0.1 0.8-0.3 0.3-0.2 0.5-0.4 1-1.1 0.3-0.3 1.1-0.2 0.5-0.3 0.3-0.3 0.2-0.4 0.3-1.1 0.4-1 0.3-0.4 0.2-0.1 0.1 0.2 0.1 0.3 0.2 2.5 0.2 0.3 0.2 0.3 0.3 0.2 0.2-0.1 0.3-0.4 0.4-0.6 0.8-1.2 0.2-0.5 0-0.4-3-2.9-0.9-0.7-0.3-0.2-0.2-0.1-0.2-0.1-0.3 0-0.3 0-0.3 0.1-0.5 0.6-0.3 0.1-0.3 0-1.2-0.2-0.3 0-0.3 0.1-0.2 0.2-0.2 0.1-0.6 0.9-0.2 0.2-0.2 0.2-0.3 0-0.3 0-0.3-0.1-0.2-0.2-0.8-0.7-0.4-0.3-0.6-0.3-0.6-0.1-0.3 0-0.6 0.1-0.8 0.3 0.7-2.8 0.4-0.9 1.1-1.4 0.3-0.8 1.1-5.1 0-0.3-0.2-1.2 0.1-0.7 0-0.3 0.2-0.2 0.2-0.1 0.2 0 0.2 0.1 0.7 0.4 0.3 0 2 0.1 0.3 0.1 0.4 0 0.4-0.1 2.6-1.6 1.2-0.9 0.6-0.3 0.4-0.2 0.2-0.4 0.4 0.2 0.8 0.7 0.6-0.5 0.7-0.8 0.9 0.2 0.8 0.6 0.3 0.2z m-13.8 12.3l0.3 0.7 0.3 0.6 0.5 0.5 0.5 0.2 0-0.1 0.2-0.1 1.4-1.1 0.5-0.2 0.2 0 0.1-0.1 0-0.1 0-0.1 0-0.3 0-0.1-0.1-0.1 0-0.1-0.1-0.1-0.2-0.1-0.4-0.2-2.4-0.3-0.4-0.2 0-0.1-0.4 1.1 0 0.3z m14.2 17.1l0.5 0.4 0.5 0 0.5-0.4 0.3-0.6 0.1-0.8-0.2-0.7-0.3-0.6-0.4-0.3-0.4 0-0.4 0.3-0.4 0.5-0.1 0.9 0 0.7 0.3 0.6z" id="IT57" name="Marche">
  </path>
 </g>
 <g id="points">
  <circle class="36.06904243930791|7.1984631952682845" cx="185.5" cy="912.6" id="0">
  </circle>
  <circle class="40.70743086626166|13.155812027880252" cx="534.9" cy="565.3" id="1">
  </circle>
  <circle class="46.50541639995385|17.921691093969827" cx="814.5" cy="95.1" id="2">
  </circle>
 </g>
 <g id="label_points">
  <circle class="Valle d'Aosta" cx="191.7" cy="162.5" id="IT23">
  </circle>
  <circle class="Piedmont" cx="222.1" cy="223.6" id="IT21">
  </circle>
  <circle class="Liguria" cx="303.6" cy="265.7" id="IT42">
  </circle>
  <circle class="Lombardy" cx="335.3" cy="162.3" id="IT25">
  </circle>
  <circle class="Trentino-Alto Adige" cx="425.9" cy="103.4" id="IT32">
  </circle>
  <circle class="Veneto" cx="452.6" cy="177.5" id="IT34">
  </circle>
  <circle class="Friuli Venezia Giulia" cx="524.3" cy="119.2" id="IT36">
  </circle>
  <circle class="Tuscany" cx="417.6" cy="348.5" id="IT52">
  </circle>
  <circle class="Umbria" cx="495.2" cy="388.3" id="IT55">
  </circle>
  <circle class="Lazio" cx="505.4" cy="468" id="IT62">
  </circle>
  <circle class="Abruzzo" cx="574.7" cy="445.8" id="IT65">
  </circle>
  <circle class="Puglia" cx="727.9" cy="543.2" id="IT75">
  </circle>
  <circle class="Campania" cx="632.7" cy="539.8" id="IT72">
  </circle>
  <circle class="Molise" cx="625.7" cy="490.6" id="IT67">
  </circle>
  <circle class="Basilicata" cx="706.8" cy="582.9" id="IT77">
  </circle>
  <circle class="Calabria" cx="729.8" cy="677.6" id="IT78">
  </circle>
  <circle class="Sicilia" cx="593.5" cy="803" id="IT82">
  </circle>
  <circle class="Sardegna" cx="294" cy="610.8" id="IT88">
  </circle>
  <circle class="Emilia-Romagna" cx="409.5" cy="260.7" id="IT45">
  </circle>
  <circle class="Marche" cx="541.6" cy="363.8" id="IT57">
  </circle>
 </g>
</svg>